<svg width="1253" height="180" viewBox="0 0 1253 180" fill="none" xmlns="http://www.w3.org/2000/svg">
<path d="M825.934 104.859V155.25H818.669V96.7344H825.309L825.934 104.859ZM854.411 117.516V118.336C854.411 121.409 854.046 124.26 853.317 126.891C852.588 129.495 851.52 131.76 850.114 133.688C848.734 135.615 847.028 137.112 844.997 138.18C842.966 139.247 840.635 139.781 838.005 139.781C835.322 139.781 832.953 139.339 830.895 138.453C828.838 137.568 827.093 136.279 825.661 134.586C824.229 132.893 823.083 130.862 822.223 128.492C821.39 126.122 820.817 123.453 820.505 120.484V116.109C820.817 112.984 821.403 110.185 822.262 107.711C823.122 105.237 824.255 103.128 825.661 101.383C827.093 99.612 828.825 98.2708 830.856 97.3594C832.887 96.4219 835.231 95.9531 837.887 95.9531C840.544 95.9531 842.901 96.474 844.958 97.5156C847.015 98.5312 848.747 99.9896 850.153 101.891C851.559 103.792 852.614 106.07 853.317 108.727C854.046 111.357 854.411 114.286 854.411 117.516ZM847.145 118.336V117.516C847.145 115.406 846.924 113.427 846.481 111.578C846.039 109.703 845.348 108.062 844.411 106.656C843.499 105.224 842.328 104.104 840.895 103.297C839.463 102.464 837.757 102.047 835.778 102.047C833.955 102.047 832.367 102.359 831.012 102.984C829.684 103.609 828.552 104.456 827.614 105.523C826.677 106.565 825.908 107.763 825.309 109.117C824.736 110.445 824.307 111.826 824.02 113.258V123.375C824.541 125.198 825.27 126.917 826.208 128.531C827.145 130.12 828.395 131.409 829.958 132.398C831.52 133.362 833.486 133.844 835.856 133.844C837.809 133.844 839.489 133.44 840.895 132.633C842.328 131.799 843.499 130.667 844.411 129.234C845.348 127.802 846.039 126.161 846.481 124.312C846.924 122.438 847.145 120.445 847.145 118.336ZM869.881 79V139H862.616V79H869.881ZM904.805 131.773V110.016C904.805 108.349 904.466 106.904 903.789 105.68C903.138 104.43 902.148 103.466 900.82 102.789C899.492 102.112 897.852 101.773 895.898 101.773C894.076 101.773 892.474 102.086 891.094 102.711C889.74 103.336 888.672 104.156 887.891 105.172C887.135 106.188 886.758 107.281 886.758 108.453H879.531C879.531 106.943 879.922 105.445 880.703 103.961C881.484 102.477 882.604 101.135 884.062 99.9375C885.547 98.7135 887.318 97.75 889.375 97.0469C891.458 96.3177 893.776 95.9531 896.328 95.9531C899.401 95.9531 902.109 96.474 904.453 97.5156C906.823 98.5573 908.672 100.133 910 102.242C911.354 104.326 912.031 106.943 912.031 110.094V129.781C912.031 131.188 912.148 132.685 912.383 134.273C912.643 135.862 913.021 137.229 913.516 138.375V139H905.977C905.612 138.167 905.326 137.06 905.117 135.68C904.909 134.273 904.805 132.971 904.805 131.773ZM906.055 113.375L906.133 118.453H898.828C896.771 118.453 894.935 118.622 893.32 118.961C891.706 119.273 890.352 119.755 889.258 120.406C888.164 121.057 887.331 121.878 886.758 122.867C886.185 123.831 885.898 124.964 885.898 126.266C885.898 127.594 886.198 128.805 886.797 129.898C887.396 130.992 888.294 131.865 889.492 132.516C890.716 133.141 892.214 133.453 893.984 133.453C896.198 133.453 898.151 132.984 899.844 132.047C901.536 131.109 902.878 129.964 903.867 128.609C904.883 127.255 905.43 125.94 905.508 124.664L908.594 128.141C908.411 129.234 907.917 130.445 907.109 131.773C906.302 133.102 905.221 134.378 903.867 135.602C902.539 136.799 900.951 137.802 899.102 138.609C897.279 139.391 895.221 139.781 892.93 139.781C890.065 139.781 887.552 139.221 885.391 138.102C883.255 136.982 881.589 135.484 880.391 133.609C879.219 131.708 878.633 129.586 878.633 127.242C878.633 124.977 879.076 122.984 879.961 121.266C880.846 119.521 882.122 118.076 883.789 116.93C885.456 115.758 887.461 114.872 889.805 114.273C892.148 113.674 894.766 113.375 897.656 113.375H906.055ZM933.048 134.625L944.806 96.7344H952.541L935.587 145.523C935.197 146.565 934.676 147.685 934.025 148.883C933.4 150.107 932.593 151.266 931.603 152.359C930.614 153.453 929.416 154.339 928.009 155.016C926.629 155.719 924.976 156.07 923.048 156.07C922.476 156.07 921.746 155.992 920.861 155.836C919.976 155.68 919.351 155.549 918.986 155.445L918.947 149.586C919.155 149.612 919.481 149.638 919.923 149.664C920.392 149.716 920.718 149.742 920.9 149.742C922.541 149.742 923.934 149.521 925.08 149.078C926.226 148.661 927.189 147.945 927.97 146.93C928.778 145.94 929.468 144.573 930.041 142.828L933.048 134.625ZM924.416 96.7344L935.392 129.547L937.267 137.164L932.072 139.82L916.525 96.7344H924.416ZM984.3 96.7344H990.863V138.102C990.863 141.826 990.107 145.003 988.597 147.633C987.086 150.263 984.977 152.255 982.269 153.609C979.586 154.99 976.488 155.68 972.972 155.68C971.514 155.68 969.795 155.445 967.816 154.977C965.863 154.534 963.935 153.766 962.034 152.672C960.159 151.604 958.584 150.159 957.308 148.336L961.097 144.039C962.868 146.174 964.717 147.659 966.644 148.492C968.597 149.326 970.524 149.742 972.425 149.742C974.717 149.742 976.696 149.312 978.363 148.453C980.029 147.594 981.318 146.318 982.23 144.625C983.167 142.958 983.636 140.901 983.636 138.453V106.031L984.3 96.7344ZM955.198 118.336V117.516C955.198 114.286 955.576 111.357 956.331 108.727C957.113 106.07 958.219 103.792 959.652 101.891C961.11 99.9896 962.868 98.5312 964.925 97.5156C966.982 96.474 969.3 95.9531 971.878 95.9531C974.534 95.9531 976.852 96.4219 978.831 97.3594C980.836 98.2708 982.529 99.612 983.909 101.383C985.316 103.128 986.422 105.237 987.23 107.711C988.037 110.185 988.597 112.984 988.909 116.109V119.703C988.623 122.802 988.063 125.589 987.23 128.062C986.422 130.536 985.316 132.646 983.909 134.391C982.529 136.135 980.836 137.477 978.831 138.414C976.826 139.326 974.482 139.781 971.8 139.781C969.274 139.781 966.982 139.247 964.925 138.18C962.894 137.112 961.149 135.615 959.691 133.688C958.232 131.76 957.113 129.495 956.331 126.891C955.576 124.26 955.198 121.409 955.198 118.336ZM962.425 117.516V118.336C962.425 120.445 962.633 122.424 963.05 124.273C963.493 126.122 964.157 127.75 965.042 129.156C965.954 130.562 967.113 131.669 968.519 132.477C969.925 133.258 971.605 133.648 973.558 133.648C975.954 133.648 977.933 133.141 979.495 132.125C981.058 131.109 982.295 129.768 983.206 128.102C984.144 126.435 984.873 124.625 985.394 122.672V113.258C985.107 111.826 984.665 110.445 984.066 109.117C983.493 107.763 982.738 106.565 981.8 105.523C980.889 104.456 979.756 103.609 978.402 102.984C977.047 102.359 975.459 102.047 973.636 102.047C971.657 102.047 969.951 102.464 968.519 103.297C967.113 104.104 965.954 105.224 965.042 106.656C964.157 108.062 963.493 109.703 963.05 111.578C962.633 113.427 962.425 115.406 962.425 117.516ZM1007.47 103.375V139H1000.24V96.7344H1007.27L1007.47 103.375ZM1020.67 96.5L1020.63 103.219C1020.03 103.089 1019.46 103.01 1018.91 102.984C1018.39 102.932 1017.79 102.906 1017.11 102.906C1015.45 102.906 1013.98 103.167 1012.7 103.688C1011.42 104.208 1010.34 104.938 1009.46 105.875C1008.57 106.812 1007.87 107.932 1007.35 109.234C1006.85 110.51 1006.53 111.917 1006.37 113.453L1004.34 114.625C1004.34 112.073 1004.59 109.677 1005.08 107.438C1005.6 105.198 1006.4 103.219 1007.47 101.5C1008.53 99.7552 1009.89 98.401 1011.53 97.4375C1013.19 96.4479 1015.17 95.9531 1017.47 95.9531C1017.99 95.9531 1018.59 96.0182 1019.26 96.1484C1019.94 96.2526 1020.41 96.3698 1020.67 96.5ZM1023.05 118.336V117.438C1023.05 114.391 1023.5 111.565 1024.38 108.961C1025.27 106.331 1026.54 104.052 1028.21 102.125C1029.88 100.172 1031.89 98.6615 1034.26 97.5938C1036.63 96.5 1039.29 95.9531 1042.23 95.9531C1045.2 95.9531 1047.87 96.5 1050.24 97.5938C1052.64 98.6615 1054.67 100.172 1056.33 102.125C1058.03 104.052 1059.32 106.331 1060.2 108.961C1061.09 111.565 1061.53 114.391 1061.53 117.438V118.336C1061.53 121.383 1061.09 124.208 1060.2 126.812C1059.32 129.417 1058.03 131.695 1056.33 133.648C1054.67 135.576 1052.65 137.086 1050.28 138.18C1047.94 139.247 1045.28 139.781 1042.31 139.781C1039.34 139.781 1036.67 139.247 1034.3 138.18C1031.93 137.086 1029.9 135.576 1028.21 133.648C1026.54 131.695 1025.27 129.417 1024.38 126.812C1023.5 124.208 1023.05 121.383 1023.05 118.336ZM1030.28 117.438V118.336C1030.28 120.445 1030.53 122.438 1031.02 124.312C1031.52 126.161 1032.26 127.802 1033.25 129.234C1034.26 130.667 1035.53 131.799 1037.04 132.633C1038.55 133.44 1040.31 133.844 1042.31 133.844C1044.29 133.844 1046.02 133.44 1047.51 132.633C1049.02 131.799 1050.27 130.667 1051.26 129.234C1052.25 127.802 1052.99 126.161 1053.48 124.312C1054 122.438 1054.26 120.445 1054.26 118.336V117.438C1054.26 115.354 1054 113.388 1053.48 111.539C1052.99 109.664 1052.23 108.01 1051.22 106.578C1050.23 105.12 1048.98 103.974 1047.47 103.141C1045.98 102.307 1044.24 101.891 1042.23 101.891C1040.25 101.891 1038.51 102.307 1037 103.141C1035.51 103.974 1034.26 105.12 1033.25 106.578C1032.26 108.01 1031.52 109.664 1031.02 111.539C1030.53 113.388 1030.28 115.354 1030.28 117.438ZM1094.85 129.234V96.7344H1102.12V139H1095.2L1094.85 129.234ZM1096.22 120.328L1099.23 120.25C1099.23 123.062 1098.93 125.667 1098.33 128.062C1097.76 130.432 1096.82 132.49 1095.52 134.234C1094.21 135.979 1092.51 137.346 1090.4 138.336C1088.29 139.299 1085.72 139.781 1082.7 139.781C1080.65 139.781 1078.76 139.482 1077.04 138.883C1075.35 138.284 1073.89 137.359 1072.66 136.109C1071.44 134.859 1070.49 133.232 1069.81 131.227C1069.16 129.221 1068.84 126.812 1068.84 124V96.7344H1076.06V124.078C1076.06 125.979 1076.27 127.555 1076.69 128.805C1077.13 130.029 1077.72 131.005 1078.45 131.734C1079.2 132.438 1080.03 132.932 1080.95 133.219C1081.88 133.505 1082.85 133.648 1083.84 133.648C1086.91 133.648 1089.34 133.062 1091.14 131.891C1092.94 130.693 1094.23 129.091 1095.01 127.086C1095.82 125.055 1096.22 122.802 1096.22 120.328ZM1118.76 105.758V139H1111.53V96.7344H1118.37L1118.76 105.758ZM1117.04 116.266L1114.03 116.148C1114.06 113.258 1114.49 110.589 1115.32 108.141C1116.16 105.667 1117.33 103.518 1118.84 101.695C1120.35 99.8724 1122.14 98.4661 1124.23 97.4766C1126.34 96.4609 1128.67 95.9531 1131.22 95.9531C1133.3 95.9531 1135.18 96.2396 1136.85 96.8125C1138.51 97.3594 1139.93 98.2448 1141.1 99.4688C1142.3 100.693 1143.21 102.281 1143.84 104.234C1144.46 106.161 1144.78 108.518 1144.78 111.305V139H1137.51V111.227C1137.51 109.013 1137.18 107.242 1136.53 105.914C1135.88 104.56 1134.93 103.583 1133.68 102.984C1132.43 102.359 1130.89 102.047 1129.07 102.047C1127.28 102.047 1125.63 102.424 1124.15 103.18C1122.69 103.935 1121.43 104.977 1120.36 106.305C1119.32 107.633 1118.5 109.156 1117.9 110.875C1117.33 112.568 1117.04 114.365 1117.04 116.266ZM1180.79 130.797V79H1188.06V139H1181.42L1180.79 130.797ZM1152.35 118.336V117.516C1152.35 114.286 1152.75 111.357 1153.53 108.727C1154.33 106.07 1155.47 103.792 1156.92 101.891C1158.41 99.9896 1160.17 98.5312 1162.2 97.5156C1164.26 96.474 1166.55 95.9531 1169.07 95.9531C1171.73 95.9531 1174.05 96.4219 1176.03 97.3594C1178.03 98.2708 1179.72 99.612 1181.1 101.383C1182.51 103.128 1183.62 105.237 1184.42 107.711C1185.23 110.185 1185.79 112.984 1186.1 116.109V119.703C1185.82 122.802 1185.26 125.589 1184.42 128.062C1183.62 130.536 1182.51 132.646 1181.1 134.391C1179.72 136.135 1178.03 137.477 1176.03 138.414C1174.02 139.326 1171.68 139.781 1169 139.781C1166.52 139.781 1164.26 139.247 1162.2 138.18C1160.17 137.112 1158.41 135.615 1156.92 133.688C1155.47 131.76 1154.33 129.495 1153.53 126.891C1152.75 124.26 1152.35 121.409 1152.35 118.336ZM1159.62 117.516V118.336C1159.62 120.445 1159.83 122.424 1160.25 124.273C1160.69 126.122 1161.37 127.75 1162.28 129.156C1163.19 130.562 1164.35 131.669 1165.75 132.477C1167.16 133.258 1168.84 133.648 1170.79 133.648C1173.19 133.648 1175.15 133.141 1176.69 132.125C1178.25 131.109 1179.5 129.768 1180.44 128.102C1181.38 126.435 1182.11 124.625 1182.63 122.672V113.258C1182.32 111.826 1181.86 110.445 1181.26 109.117C1180.69 107.763 1179.93 106.565 1179 105.523C1178.08 104.456 1176.95 103.609 1175.6 102.984C1174.27 102.359 1172.69 102.047 1170.87 102.047C1168.89 102.047 1167.19 102.464 1165.75 103.297C1164.35 104.104 1163.19 105.224 1162.28 106.656C1161.37 108.062 1160.69 109.703 1160.25 111.578C1159.83 113.427 1159.62 115.406 1159.62 117.516Z" fill="white"/>
<path d="M70.2782 164.528C67.6119 169.198 61.6672 170.84 57.3731 167.642C44.5456 158.09 34.5076 145.114 28.4419 130.083C21.1549 112.026 20.0149 92.0306 25.2012 73.2464C30.3875 54.4621 41.6055 37.9562 57.0884 26.3282C72.5712 14.7002 91.4393 8.61086 110.721 9.01929C130.002 9.42772 148.601 16.3107 163.589 28.5841C178.577 40.8576 189.102 57.8241 193.506 76.8115C197.91 95.7989 195.943 115.728 187.914 133.461C181.231 148.222 170.665 160.762 157.453 169.762C153.03 172.775 147.159 170.883 144.688 166.104L116.919 112.389C115.159 108.984 116.801 104.762 118.382 101.269V101.269C119.346 99.1406 119.582 96.7491 119.053 94.4706C118.525 92.1921 117.262 90.1562 115.463 88.6833C113.665 87.2105 111.433 86.3846 109.119 86.3356C106.805 86.2865 104.541 87.0173 102.683 88.4126C100.825 89.808 99.4792 91.7887 98.8569 94.0428C98.2345 96.2969 98.3713 98.6963 99.2458 100.863V100.863C100.681 104.421 102.147 108.709 100.247 112.036L70.2782 164.528Z" fill="#6318FF"/>
<path d="M227.922 138.582V42.7742H272.267C278.563 42.7742 284.038 44.006 288.691 46.4696C293.345 48.842 296.995 52.1725 299.641 56.4611C302.287 60.7496 303.61 65.7225 303.61 71.3798C303.61 77.037 302.287 82.0099 299.641 86.2985C296.995 90.5871 293.299 93.9632 288.555 96.4268C283.901 98.7992 278.472 99.9854 272.267 99.9854H242.293V138.582H227.922ZM242.293 87.8041H270.762C276.419 87.8041 280.89 86.3441 284.175 83.4242C287.551 80.4131 289.239 76.4439 289.239 71.5167C289.239 66.5894 287.551 62.6658 284.175 59.7459C280.89 56.826 276.419 55.3661 270.762 55.3661H242.293V87.8041Z" fill="#6318FF"/>
<path d="M318.41 138.582V42.7742H389.035V55.3661H332.781V84.1086H369.736V96.2899H332.781V125.99H389.582V138.582H318.41Z" fill="#6318FF"/>
<path d="M404.354 138.582V42.7742H447.742C454.129 42.7742 459.695 43.9604 464.44 46.3328C469.276 48.7052 473.017 52.0356 475.663 56.3242C478.4 60.5215 479.769 65.4488 479.769 71.106C479.769 77.402 477.99 82.8311 474.431 87.3934C470.873 91.9557 466.082 95.2406 460.06 97.248L481.411 138.582H465.535L445.689 99.301H418.725V138.582H404.354ZM418.725 87.2566H446.647C452.304 87.2566 456.821 85.8423 460.197 83.0136C463.664 80.0938 465.398 76.1702 465.398 71.2429C465.398 66.4981 463.664 62.6658 460.197 59.7459C456.821 56.826 452.304 55.3661 446.647 55.3661H418.725V87.2566Z" fill="#6318FF"/>
<path d="M494.575 138.582V42.7742H513.874L543.848 104.091L573.823 42.7742H592.984V138.582H579.434V60.2934L543.711 131.739L507.989 60.2934V138.582H494.575Z" fill="#6318FF"/>
<path d="M612.464 138.582V42.7742H626.836V138.582H612.464Z" fill="#6318FF"/>
<path d="M646.414 138.582V42.7742H717.312V55.3661H660.786V84.7929H698.014V96.9743H660.786V138.582H646.414Z" fill="#6318FF"/>
<path d="M760.032 138.582V100.533L721.435 42.7742H738.133L767.559 87.8041L796.986 42.7742H813L774.403 100.807V138.582H760.032Z" fill="#6318FF"/>
</svg>
