<svg width="562" height="145" viewBox="0 0 562 145" fill="none" xmlns="http://www.w3.org/2000/svg">
<g clip-path="url(#clip0_476_373)">
<g filter="url(#filter0_dd_476_373)">
<g clip-path="url(#clip1_476_373)">
<path d="M1 58.4571C1 38.3453 1 28.2893 4.91403 20.6076C8.35692 13.8506 13.8506 8.35692 20.6076 4.91403C28.2893 1 38.3453 1 58.4572 1H87.1857C107.298 1 117.354 1 125.035 4.91403C131.792 8.35692 137.286 13.8506 140.729 20.6076C144.643 28.2893 144.643 38.3453 144.643 58.4572V87.1857C144.643 107.298 144.643 117.354 140.729 125.035C137.286 131.792 131.792 137.286 125.035 140.729C117.354 144.643 107.298 144.643 87.1857 144.643H58.4571C38.3453 144.643 28.2893 144.643 20.6076 140.729C13.8506 137.286 8.35692 131.792 4.91403 125.035C1 117.354 1 107.298 1 87.1857V58.4571Z" fill="white"/>
<path d="M1 58.4571C1 38.3453 1 28.2893 4.91403 20.6076C8.35692 13.8506 13.8506 8.35692 20.6076 4.91403C28.2893 1 38.3453 1 58.4572 1H87.1857C107.298 1 117.354 1 125.035 4.91403C131.792 8.35692 137.286 13.8506 140.729 20.6076C144.643 28.2893 144.643 38.3453 144.643 58.4572V87.1857C144.643 107.298 144.643 117.354 140.729 125.035C137.286 131.792 131.792 137.286 125.035 140.729C117.354 144.643 107.298 144.643 87.1857 144.643H58.4571C38.3453 144.643 28.2893 144.643 20.6076 140.729C13.8506 137.286 8.35692 131.792 4.91403 125.035C1 117.354 1 107.298 1 87.1857V58.4571Z" fill="url(#paint0_linear_476_373)"/>
<path fill-rule="evenodd" clip-rule="evenodd" d="M72.8208 10.1509C38.2094 10.1509 10.1514 38.209 10.1514 72.8203C10.1514 107.432 38.2094 135.49 72.8208 135.49C107.432 135.49 135.49 107.432 135.49 72.8203C135.49 38.209 107.432 10.1509 72.8208 10.1509ZM9.80273 72.8203C9.80273 38.0164 38.0169 9.80225 72.8208 9.80225C107.625 9.80225 135.839 38.0164 135.839 72.8203C135.839 107.624 107.625 135.838 72.8208 135.838C38.0169 135.838 9.80273 107.624 9.80273 72.8203Z" fill="#D0D5DD"/>
<path fill-rule="evenodd" clip-rule="evenodd" d="M72.8216 55.2149C63.0977 55.2149 55.2149 63.0977 55.2149 72.8216C55.2149 82.5455 63.0977 90.4283 72.8216 90.4283C82.5455 90.4283 90.4283 82.5455 90.4283 72.8216C90.4283 63.0977 82.5455 55.2149 72.8216 55.2149ZM54.8662 72.8216C54.8662 62.9051 62.9051 54.8662 72.8216 54.8662C82.738 54.8662 90.7769 62.9051 90.7769 72.8216C90.7769 82.738 82.738 90.7769 72.8216 90.7769C62.9051 90.7769 54.8662 82.738 54.8662 72.8216Z" fill="#D0D5DD"/>
<path fill-rule="evenodd" clip-rule="evenodd" d="M72.8233 60.7905C66.1802 60.7905 60.7949 66.1758 60.7949 72.8189C60.7949 79.462 66.1802 84.8472 72.8233 84.8472C79.4664 84.8472 84.8516 79.462 84.8516 72.8189C84.8516 66.1758 79.4664 60.7905 72.8233 60.7905ZM60.4463 72.8189C60.4463 65.9833 65.9877 60.4419 72.8233 60.4419C79.6589 60.4419 85.2003 65.9833 85.2003 72.8189C85.2003 79.6545 79.6589 85.1959 72.8233 85.1959C65.9877 85.1959 60.4463 79.6545 60.4463 72.8189Z" fill="#D0D5DD"/>
<path d="M72.6465 1H72.9951V144.643H72.6465V1Z" fill="#D0D5DD"/>
<path d="M144.643 72.646L144.643 72.9946L0.99971 72.9946L0.99971 72.646L144.643 72.646Z" fill="#D0D5DD"/>
<path d="M120.41 1H120.759V144.643H120.41V1Z" fill="#D0D5DD"/>
<path d="M48.7637 1H49.1123V144.643H48.7637V1Z" fill="#D0D5DD"/>
<path d="M96.5283 1H96.877V144.643H96.5283V1Z" fill="#D0D5DD"/>
<path d="M24.8818 1H25.2305V144.643H24.8818V1Z" fill="#D0D5DD"/>
<path d="M144.643 120.41L144.643 120.759L0.99971 120.759L0.99971 120.41L144.643 120.41Z" fill="#D0D5DD"/>
<path d="M144.643 48.7642L144.643 49.1128L0.99971 49.1128L0.99971 48.7642L144.643 48.7642Z" fill="#D0D5DD"/>
<path d="M144.643 96.5283L144.643 96.877L0.99971 96.877L0.99971 96.5283L144.643 96.5283Z" fill="#D0D5DD"/>
<path d="M144.643 24.8818L144.643 25.2305L0.99971 25.2305L0.99971 24.8818L144.643 24.8818Z" fill="#D0D5DD"/>
<path d="M52.8712 109.89C51.4939 112.216 48.4232 113.034 46.2051 111.441C39.579 106.684 34.394 100.22 31.2607 92.7331C27.4967 83.7389 26.9078 73.7793 29.5867 64.4229C32.2657 55.0665 38.0603 46.8449 46.058 41.053C54.0556 35.2611 63.8018 32.228 73.7616 32.4315C83.7214 32.6349 93.3288 36.0633 101.071 42.1767C108.813 48.2901 114.249 56.7411 116.524 66.1987C118.799 75.6563 117.783 85.5831 113.636 94.4157C110.184 101.768 104.726 108.014 97.9011 112.497C95.6165 113.998 92.5836 113.056 91.3074 110.675L76.9635 83.92C76.0543 82.224 76.9022 80.1208 77.7192 78.3807C78.2169 77.3208 78.3388 76.1296 78.0658 74.9947C77.7929 73.8598 77.1405 72.8456 76.2115 72.112C75.2824 71.3784 74.1295 70.967 72.9344 70.9426C71.7392 70.9182 70.5696 71.2822 69.6099 71.9772C68.6502 72.6722 67.9549 73.6588 67.6334 74.7816C67.3119 75.9044 67.3826 77.0995 67.8343 78.1788C68.5758 79.9508 69.3327 82.0867 68.3514 83.7441L52.8712 109.89Z" fill="url(#paint1_linear_476_373)"/>
</g>
<path d="M58.457 1.44922H87.1855C97.2489 1.44922 104.77 1.44911 110.735 1.93652C116.696 2.42351 121.064 3.39511 124.831 5.31445C131.504 8.7143 136.929 14.139 140.329 20.8115C142.248 24.5784 143.219 28.9471 143.706 34.9072C144.193 40.8729 144.194 48.3937 144.194 58.457V87.1855C144.194 97.2489 144.193 104.77 143.706 110.735C143.219 116.695 142.248 121.064 140.329 124.831C136.929 131.504 131.504 136.929 124.831 140.329C121.064 142.248 116.695 143.219 110.735 143.706C104.77 144.193 97.2489 144.194 87.1855 144.194H58.457C48.3937 144.194 40.8729 144.193 34.9072 143.706C28.9471 143.219 24.5784 142.248 20.8115 140.329C14.139 136.929 8.7143 131.504 5.31445 124.831C3.39512 121.064 2.42351 116.696 1.93652 110.735C1.44911 104.77 1.44922 97.2489 1.44922 87.1855V58.457C1.44922 48.3937 1.44911 40.8729 1.93652 34.9072C2.42352 28.947 3.39509 24.5785 5.31445 20.8115C8.71429 14.139 14.139 8.71429 20.8115 5.31445C24.5785 3.39509 28.947 2.42352 34.9072 1.93652C40.8729 1.44911 48.3937 1.44922 58.457 1.44922Z" stroke="#D0D5DD" stroke-width="0.897768"/>
</g>
<path d="M517.599 102.532C515.759 102.532 514.056 102.383 512.49 102.085C510.949 101.811 509.719 101.488 508.799 101.115L511.931 90.6004C513.895 91.1721 515.647 91.4456 517.189 91.4207C518.73 91.3959 520.085 90.9111 521.253 89.9665C522.446 89.0468 523.453 87.5056 524.273 85.343L525.429 82.2481L504.66 23.7822H518.978L532.178 67.0351H532.775L546.011 23.7822H560.367L537.435 87.9903C536.366 91.023 534.95 93.6207 533.185 95.7833C531.42 97.9708 529.257 99.6363 526.697 100.78C524.161 101.948 521.129 102.532 517.599 102.532Z" fill="white"/>
<path d="M498.644 23.7837V34.2241H464.787V23.7837H498.644ZM473.251 81.0565V18.3771C473.251 14.5241 474.047 11.3175 475.638 8.7571C477.253 6.19674 479.416 4.28267 482.126 3.01492C484.835 1.74716 487.843 1.11328 491.149 1.11328C493.486 1.11328 495.561 1.29972 497.376 1.67259C499.191 2.04546 500.533 2.38104 501.403 2.67934L498.718 13.1197C498.146 12.9457 497.426 12.7717 496.556 12.5977C495.686 12.3988 494.716 12.2994 493.647 12.2994C491.137 12.2994 489.359 12.9084 488.315 14.1264C487.296 15.3196 486.786 17.0348 486.786 19.272V81.0565H473.251Z" fill="white"/>
<path d="M442.247 81.055V23.7823H455.745V81.055H442.247ZM449.033 15.6538C446.896 15.6538 445.056 14.9453 443.515 13.5284C441.974 12.0866 441.203 10.359 441.203 8.34552C441.203 6.30717 441.974 4.57954 443.515 3.16264C445.056 1.72088 446.896 1 449.033 1C451.196 1 453.036 1.72088 454.552 3.16264C456.093 4.57954 456.864 6.30717 456.864 8.34552C456.864 10.359 456.093 12.0866 454.552 13.5284C453.036 14.9453 451.196 15.6538 449.033 15.6538Z" fill="white"/>
<path d="M348.039 81.0536V23.7809H360.94V33.5128H361.612C362.805 30.2315 364.781 27.6712 367.54 25.8317C370.299 23.9673 373.593 23.0352 377.421 23.0352C381.299 23.0352 384.568 23.9798 387.228 25.869C389.912 27.7333 391.802 30.2812 392.895 33.5128H393.492C394.76 30.331 396.897 27.7955 399.905 25.9062C402.938 23.9922 406.53 23.0352 410.681 23.0352C415.951 23.0352 420.251 24.7006 423.582 28.0316C426.913 31.3626 428.579 36.2223 428.579 42.6108V81.0536H415.044V44.6989C415.044 41.1442 414.099 38.5465 412.21 36.9059C410.321 35.2404 408.009 34.4077 405.275 34.4077C402.018 34.4077 399.47 35.4268 397.631 37.4652C395.816 39.4787 394.909 42.1012 394.909 45.3327V81.0536H381.672V44.1396C381.672 41.1815 380.777 38.82 378.987 37.055C377.222 35.2901 374.911 34.4077 372.052 34.4077C370.113 34.4077 368.348 34.9048 366.757 35.8991C365.166 36.8686 363.898 38.2482 362.954 40.038C362.009 41.8029 361.537 43.8661 361.537 46.2276V81.0536H348.039Z" fill="white"/>
<path d="M306.408 81.055V23.7822H319.496V33.3277H320.093C321.137 30.0216 322.926 27.4736 325.462 25.6839C328.022 23.8692 330.943 22.9619 334.224 22.9619C334.97 22.9619 335.803 22.9992 336.722 23.0738C337.667 23.1235 338.45 23.2105 339.072 23.3348V35.7513C338.5 35.5525 337.593 35.3785 336.35 35.2293C335.132 35.0553 333.951 34.9683 332.807 34.9683C330.346 34.9683 328.134 35.5028 326.17 36.5716C324.231 37.6157 322.703 39.0699 321.584 40.9342C320.465 42.7986 319.906 44.9488 319.906 47.3849V81.055H306.408Z" fill="white"/>
<path d="M269.507 82.1722C263.765 82.1722 258.806 80.979 254.63 78.5927C250.479 76.1815 247.284 72.7759 245.047 68.3761C242.81 63.9513 241.691 58.7436 241.691 52.7528C241.691 46.8615 242.81 41.6911 245.047 37.2415C247.309 32.767 250.466 29.2869 254.518 26.8011C258.57 24.2905 263.33 23.0352 268.799 23.0352C272.329 23.0352 275.66 23.6069 278.792 24.7504C281.949 25.869 284.733 27.609 287.144 29.9705C289.58 32.332 291.494 35.3398 292.886 38.994C294.278 42.6232 294.974 46.9485 294.974 51.9698V56.1087H248.03V47.0107H282.036C282.011 44.4254 281.452 42.1261 280.358 40.1126C279.264 38.0742 277.735 36.4709 275.772 35.3026C273.833 34.1342 271.571 33.5501 268.985 33.5501C266.226 33.5501 263.803 34.2212 261.714 35.5636C259.626 36.881 257.998 38.6211 256.83 40.7837C255.686 42.9215 255.102 45.2706 255.077 47.831V55.7731C255.077 59.104 255.686 61.9627 256.904 64.3491C258.123 66.7106 259.825 68.5252 262.013 69.793C264.2 71.0359 266.761 71.6573 269.694 71.6573C271.658 71.6573 273.435 71.3839 275.026 70.837C276.617 70.2653 277.996 69.4325 279.165 68.3388C280.333 67.245 281.216 65.8903 281.812 64.2745L294.415 65.6914C293.62 69.0224 292.103 71.9308 289.866 74.4165C287.654 76.8775 284.82 78.7915 281.365 80.1587C277.909 81.5011 273.957 82.1722 269.507 82.1722Z" fill="white"/>
<path d="M178 81.055V4.69141H206.636C212.503 4.69141 217.425 5.78516 221.402 7.97266C225.404 10.1602 228.424 13.168 230.463 16.9961C232.526 20.7994 233.558 25.1246 233.558 29.9719C233.558 34.869 232.526 39.2191 230.463 43.0224C228.4 46.8256 225.354 49.821 221.327 52.0085C217.3 54.1712 212.341 55.2525 206.45 55.2525H187.471V43.88H204.586C208.016 43.88 210.825 43.2834 213.012 42.0902C215.2 40.897 216.816 39.2564 217.86 37.1683C218.929 35.0803 219.463 32.6815 219.463 29.9719C219.463 27.2624 218.929 24.8761 217.86 22.8129C216.816 20.7496 215.188 19.1463 212.975 18.0028C210.788 16.8345 207.966 16.2504 204.511 16.2504H191.833V81.055H178Z" fill="white"/>
<path d="M474.42 107.65C476.22 107.65 477.87 108 479.37 108.7C480.87 109.4 482.103 110.35 483.07 111.55V99H489.02V135.85H483.32L483.17 132.35C482.236 133.583 481.003 134.583 479.47 135.35C477.936 136.083 476.253 136.45 474.42 136.45C471.986 136.45 469.836 135.833 467.97 134.6C466.103 133.333 464.636 131.617 463.57 129.45C462.536 127.25 462.02 124.783 462.02 122.05C462.02 119.283 462.536 116.817 463.57 114.65C464.636 112.483 466.103 110.783 467.97 109.55C469.836 108.283 471.986 107.65 474.42 107.65ZM475.82 131.5C477.486 131.5 478.953 131.017 480.22 130.05C481.52 129.05 482.47 127.733 483.07 126.1V117.95C482.47 116.283 481.52 114.983 480.22 114.05C478.953 113.083 477.486 112.6 475.82 112.6C474.286 112.6 472.92 113.017 471.72 113.85C470.553 114.65 469.636 115.767 468.97 117.2C468.303 118.6 467.97 120.217 467.97 122.05C467.97 123.85 468.303 125.467 468.97 126.9C469.636 128.3 470.553 129.417 471.72 130.25C472.92 131.083 474.286 131.5 475.82 131.5Z" fill="url(#paint2_linear_476_373)"/>
<path d="M451.073 135.85V118.6C451.073 116.8 450.573 115.367 449.573 114.3C448.607 113.233 447.34 112.7 445.773 112.7C443.973 112.7 442.34 113.35 440.873 114.65C439.44 115.917 438.207 117.967 437.173 120.8L436.273 114.85C437.373 112.417 438.873 110.617 440.773 109.45C442.673 108.25 444.707 107.65 446.873 107.65C448.973 107.65 450.773 108.1 452.273 109C453.807 109.867 454.973 111.1 455.773 112.7C456.607 114.267 457.023 116.117 457.023 118.25V135.85H451.073ZM431.823 135.85V108.25H437.523L437.773 114.05V135.85H431.823Z" fill="url(#paint3_linear_476_373)"/>
<path d="M405.526 108.25V125.5C405.526 127.3 406.01 128.733 406.976 129.8C407.976 130.867 409.26 131.4 410.826 131.4C412.626 131.4 414.243 130.767 415.676 129.5C417.143 128.2 418.393 126.133 419.426 123.3L420.326 129.25C419.226 131.683 417.726 133.5 415.826 134.7C413.926 135.867 411.893 136.45 409.726 136.45C407.626 136.45 405.81 136.017 404.276 135.15C402.776 134.25 401.61 133.017 400.776 131.45C399.976 129.85 399.576 127.983 399.576 125.85V108.25H405.526ZM424.776 108.25V135.85H419.076L418.826 130.05V108.25H424.776Z" fill="url(#paint4_linear_476_373)"/>
<path d="M380.929 136.45C378.029 136.45 375.529 135.867 373.429 134.7C371.363 133.533 369.763 131.883 368.629 129.75C367.529 127.583 366.979 125.017 366.979 122.05C366.979 119.05 367.529 116.483 368.629 114.35C369.763 112.217 371.363 110.567 373.429 109.4C375.529 108.233 378.029 107.65 380.929 107.65C385.263 107.65 388.663 108.933 391.129 111.5C393.596 114.033 394.829 117.55 394.829 122.05C394.829 125.017 394.263 127.583 393.129 129.75C392.029 131.883 390.429 133.533 388.329 134.7C386.263 135.867 383.796 136.45 380.929 136.45ZM380.929 131.55C383.363 131.55 385.279 130.7 386.679 129C388.113 127.3 388.829 124.983 388.829 122.05C388.829 119.083 388.113 116.767 386.679 115.1C385.279 113.4 383.363 112.55 380.929 112.55C378.429 112.55 376.479 113.4 375.079 115.1C373.679 116.767 372.979 119.083 372.979 122.05C372.979 124.983 373.679 127.3 375.079 129C376.479 130.7 378.429 131.55 380.929 131.55Z" fill="url(#paint5_linear_476_373)"/>
<path d="M356.233 120.75V117.3C356.233 115.933 355.816 114.833 354.983 114C354.183 113.133 353.016 112.7 351.483 112.7C349.616 112.7 347.916 113.383 346.383 114.75C344.849 116.117 343.566 118.267 342.533 121.2L341.783 115.6C342.549 113.867 343.449 112.417 344.483 111.25C345.549 110.05 346.749 109.15 348.083 108.55C349.449 107.95 350.933 107.65 352.533 107.65C355.366 107.65 357.683 108.483 359.483 110.15C361.283 111.817 362.183 114.2 362.183 117.3V120.75H356.233ZM337.633 135.85V108.25H343.283L343.583 114.1V135.85H337.633Z" fill="url(#paint6_linear_476_373)"/>
<path d="M324.637 111.85L324.787 108.25H330.487V132.6C330.487 136.767 329.37 139.934 327.137 142.1C324.903 144.267 321.503 145.35 316.937 145.35C314.437 145.35 312.27 145.017 310.437 144.35C308.603 143.717 307.17 142.734 306.137 141.4C305.137 140.1 304.57 138.45 304.437 136.45H310.687C310.853 137.784 311.47 138.784 312.537 139.45C313.603 140.117 315.17 140.45 317.237 140.45C319.67 140.45 321.487 139.817 322.687 138.55C323.92 137.317 324.537 135.567 324.537 133.3V130.3C323.603 131.6 322.387 132.617 320.887 133.35C319.42 134.084 317.787 134.45 315.987 134.45C313.653 134.45 311.57 133.867 309.737 132.7C307.937 131.534 306.52 129.95 305.487 127.95C304.453 125.917 303.937 123.634 303.937 121.1C303.937 118.334 304.47 115.95 305.537 113.95C306.637 111.917 308.12 110.367 309.987 109.3C311.853 108.234 313.97 107.7 316.337 107.7C318.103 107.7 319.703 108.084 321.137 108.85C322.603 109.617 323.77 110.617 324.637 111.85ZM317.387 129.85C319.053 129.85 320.52 129.35 321.787 128.35C323.087 127.317 324.003 125.967 324.537 124.3V117.8C324.003 116.1 323.087 114.767 321.787 113.8C320.52 112.8 319.053 112.3 317.387 112.3C315.92 112.3 314.62 112.684 313.487 113.45C312.353 114.217 311.47 115.25 310.837 116.55C310.203 117.85 309.887 119.334 309.887 121C309.887 122.7 310.203 124.217 310.837 125.55C311.47 126.85 312.353 127.9 313.487 128.7C314.62 129.467 315.92 129.85 317.387 129.85Z" fill="url(#paint7_linear_476_373)"/>
<path d="M283.289 120.55L285.839 127.5L288.439 120.5L293.639 108.25H299.739L287.139 138C286.373 139.867 285.506 141.333 284.539 142.4C283.606 143.467 282.539 144.217 281.339 144.65C280.139 145.117 278.756 145.35 277.189 145.35H272.239V140.5H276.689C277.589 140.5 278.339 140.3 278.939 139.9C279.573 139.533 280.139 138.967 280.639 138.2C281.139 137.467 281.623 136.55 282.089 135.45L282.789 133.85L271.939 108.25H278.139L283.289 120.55Z" fill="url(#paint8_linear_476_373)"/>
<path d="M260.744 135.85L260.494 130V117.6C260.494 115.867 259.91 114.5 258.744 113.5C257.577 112.5 255.96 112 253.894 112C251.927 112 250.31 112.45 249.044 113.35C247.81 114.25 247.11 115.483 246.944 117.05H241.144C241.31 115.083 241.944 113.4 243.044 112C244.177 110.6 245.677 109.533 247.544 108.8C249.444 108.033 251.627 107.65 254.094 107.65C256.627 107.65 258.81 108.05 260.644 108.85C262.51 109.65 263.944 110.817 264.944 112.35C265.944 113.883 266.444 115.75 266.444 117.95V135.85H260.744ZM251.144 136.45C249.344 136.45 247.744 136.117 246.344 135.45C244.977 134.783 243.91 133.833 243.144 132.6C242.377 131.367 241.994 129.933 241.994 128.3C241.994 125.467 243.094 123.267 245.294 121.7C247.494 120.1 250.544 119.3 254.444 119.3H261.194V123.6L254.244 123.65C252.244 123.65 250.677 124.033 249.544 124.8C248.41 125.533 247.844 126.6 247.844 128C247.844 129.1 248.244 129.983 249.044 130.65C249.877 131.317 251.01 131.65 252.444 131.65C254.277 131.65 255.91 131.167 257.344 130.2C258.81 129.2 259.994 127.833 260.894 126.1L261.544 130.3C260.677 132.333 259.36 133.867 257.594 134.9C255.827 135.933 253.677 136.45 251.144 136.45Z" fill="url(#paint9_linear_476_373)"/>
<path d="M219.446 135.85V99H225.446V135.85H219.446ZM209.696 135.85V131H235.296V135.85H209.696ZM213.296 103.85V99H222.446V103.85H213.296Z" fill="url(#paint10_linear_476_373)"/>
<path d="M192.6 107.65C195.033 107.65 197.167 108.283 199 109.55C200.867 110.783 202.333 112.483 203.4 114.65C204.467 116.817 205 119.283 205 122.05C205 124.783 204.467 127.25 203.4 129.45C202.333 131.617 200.867 133.333 199 134.6C197.167 135.833 195.033 136.45 192.6 136.45C190.8 136.45 189.15 136.1 187.65 135.4C186.183 134.7 184.95 133.733 183.95 132.5V144.75H178V108.25H183.7L183.85 111.65C184.85 110.417 186.1 109.45 187.6 108.75C189.1 108.017 190.767 107.65 192.6 107.65ZM191.2 131.5C192.767 131.5 194.133 131.083 195.3 130.25C196.467 129.417 197.367 128.3 198 126.9C198.667 125.467 199 123.85 199 122.05C199 120.217 198.667 118.6 198 117.2C197.367 115.767 196.467 114.65 195.3 113.85C194.133 113.017 192.767 112.6 191.2 112.6C189.567 112.6 188.1 113.067 186.8 114C185.5 114.933 184.55 116.217 183.95 117.85V126.2C184.55 127.833 185.5 129.133 186.8 130.1C188.1 131.033 189.567 131.5 191.2 131.5Z" fill="url(#paint11_linear_476_373)"/>
</g>
<defs>
<filter id="filter0_dd_476_373" x="-12.4665" y="-7.97768" width="170.576" height="170.576" filterUnits="userSpaceOnUse" color-interpolation-filters="sRGB">
<feFlood flood-opacity="0" result="BackgroundImageFix"/>
<feColorMatrix in="SourceAlpha" type="matrix" values="0 0 0 0 0 0 0 0 0 0 0 0 0 0 0 0 0 0 127 0" result="hardAlpha"/>
<feOffset dy="4.48884"/>
<feGaussianBlur stdDeviation="4.48884"/>
<feColorMatrix type="matrix" values="0 0 0 0 0.0627451 0 0 0 0 0.0941176 0 0 0 0 0.156863 0 0 0 0.06 0"/>
<feBlend mode="normal" in2="BackgroundImageFix" result="effect1_dropShadow_476_373"/>
<feColorMatrix in="SourceAlpha" type="matrix" values="0 0 0 0 0 0 0 0 0 0 0 0 0 0 0 0 0 0 127 0" result="hardAlpha"/>
<feOffset dy="4.48884"/>
<feGaussianBlur stdDeviation="6.73326"/>
<feColorMatrix type="matrix" values="0 0 0 0 0.0627451 0 0 0 0 0.0941176 0 0 0 0 0.156863 0 0 0 0.1 0"/>
<feBlend mode="normal" in2="effect1_dropShadow_476_373" result="effect2_dropShadow_476_373"/>
<feBlend mode="normal" in="SourceGraphic" in2="effect2_dropShadow_476_373" result="shape"/>
</filter>
<linearGradient id="paint0_linear_476_373" x1="72.8214" y1="1" x2="72.8214" y2="144.643" gradientUnits="userSpaceOnUse">
<stop stop-color="white"/>
<stop offset="1" stop-color="#D0D5DD"/>
</linearGradient>
<linearGradient id="paint1_linear_476_373" x1="117.71" y1="32.4219" x2="37.3573" y2="121.703" gradientUnits="userSpaceOnUse">
<stop stop-color="#B39FFF"/>
<stop offset="1" stop-color="#6A1ED2"/>
</linearGradient>
<linearGradient id="paint2_linear_476_373" x1="198" y1="192.85" x2="306.894" y2="-74.1653" gradientUnits="userSpaceOnUse">
<stop stop-color="#6366F1"/>
<stop offset="0.552083" stop-color="#A855F7"/>
<stop offset="1" stop-color="#E9D5FF"/>
</linearGradient>
<linearGradient id="paint3_linear_476_373" x1="198" y1="192.85" x2="306.894" y2="-74.1654" gradientUnits="userSpaceOnUse">
<stop stop-color="#6366F1"/>
<stop offset="0.552083" stop-color="#A855F7"/>
<stop offset="1" stop-color="#E9D5FF"/>
</linearGradient>
<linearGradient id="paint4_linear_476_373" x1="198" y1="192.85" x2="306.894" y2="-74.1653" gradientUnits="userSpaceOnUse">
<stop stop-color="#6366F1"/>
<stop offset="0.552083" stop-color="#A855F7"/>
<stop offset="1" stop-color="#E9D5FF"/>
</linearGradient>
<linearGradient id="paint5_linear_476_373" x1="198" y1="192.85" x2="306.894" y2="-74.1654" gradientUnits="userSpaceOnUse">
<stop stop-color="#6366F1"/>
<stop offset="0.552083" stop-color="#A855F7"/>
<stop offset="1" stop-color="#E9D5FF"/>
</linearGradient>
<linearGradient id="paint6_linear_476_373" x1="198" y1="192.85" x2="306.894" y2="-74.1654" gradientUnits="userSpaceOnUse">
<stop stop-color="#6366F1"/>
<stop offset="0.552083" stop-color="#A855F7"/>
<stop offset="1" stop-color="#E9D5FF"/>
</linearGradient>
<linearGradient id="paint7_linear_476_373" x1="198" y1="192.85" x2="306.894" y2="-74.1651" gradientUnits="userSpaceOnUse">
<stop stop-color="#6366F1"/>
<stop offset="0.552083" stop-color="#A855F7"/>
<stop offset="1" stop-color="#E9D5FF"/>
</linearGradient>
<linearGradient id="paint8_linear_476_373" x1="198" y1="192.85" x2="306.893" y2="-74.1653" gradientUnits="userSpaceOnUse">
<stop stop-color="#6366F1"/>
<stop offset="0.552083" stop-color="#A855F7"/>
<stop offset="1" stop-color="#E9D5FF"/>
</linearGradient>
<linearGradient id="paint9_linear_476_373" x1="198" y1="192.85" x2="306.894" y2="-74.1654" gradientUnits="userSpaceOnUse">
<stop stop-color="#6366F1"/>
<stop offset="0.552083" stop-color="#A855F7"/>
<stop offset="1" stop-color="#E9D5FF"/>
</linearGradient>
<linearGradient id="paint10_linear_476_373" x1="198" y1="192.85" x2="306.894" y2="-74.1653" gradientUnits="userSpaceOnUse">
<stop stop-color="#6366F1"/>
<stop offset="0.552083" stop-color="#A855F7"/>
<stop offset="1" stop-color="#E9D5FF"/>
</linearGradient>
<linearGradient id="paint11_linear_476_373" x1="198" y1="192.85" x2="306.894" y2="-74.1654" gradientUnits="userSpaceOnUse">
<stop stop-color="#6366F1"/>
<stop offset="0.552083" stop-color="#A855F7"/>
<stop offset="1" stop-color="#E9D5FF"/>
</linearGradient>
<clipPath id="clip0_476_373">
<rect width="562" height="145" fill="white"/>
</clipPath>
<clipPath id="clip1_476_373">
<path d="M1 58.4571C1 38.3453 1 28.2893 4.91403 20.6076C8.35692 13.8506 13.8506 8.35692 20.6076 4.91403C28.2893 1 38.3453 1 58.4572 1H87.1857C107.298 1 117.354 1 125.035 4.91403C131.792 8.35692 137.286 13.8506 140.729 20.6076C144.643 28.2893 144.643 38.3453 144.643 58.4572V87.1857C144.643 107.298 144.643 117.354 140.729 125.035C137.286 131.792 131.792 137.286 125.035 140.729C117.354 144.643 107.298 144.643 87.1857 144.643H58.4571C38.3453 144.643 28.2893 144.643 20.6076 140.729C13.8506 137.286 8.35692 131.792 4.91403 125.035C1 117.354 1 107.298 1 87.1857V58.4571Z" fill="white"/>
</clipPath>
</defs>
</svg>
