<?xml version="1.0" encoding="utf-8"?>
<svg viewBox="0 0 100 100" xmlns="http://www.w3.org/2000/svg" width="200px" height="200px" style="height: 100%; width: 100%; background-image: none; shape-rendering: auto;"><g class="ldl-scale" style="transform-origin: 50% 50%; transform: rotate(0deg) scale(0.74, 0.74);"><g class="ldl-ani" style="transform-origin: 50px 50px;"><g class="ldl-layer"><g class="ldl-ani" style="transform-origin: 50px 50px; opacity: 1; animation: 1.0416666666666665s linear -0.7916666666666665s infinite normal forwards running fade-f914e2f4-1f5e-458c-b9d4-a63c8f335906;"><path fill="#f4e6c8" d="M38.283 68.939a5.332 5.332 0 0 0-5.532 1.459c-1.44 1.579-1.751 3.636-1.15 5.396.286.836.232 1.74-.229 2.493l-.075.126c-.537.93-.78 1.909-.741 2.742.06 1.275-.195 2.545-.906 3.605l-.075.112c-.764 1.161-1.667 2.241-2.242 3.51-.585 1.264-1.105 2.565-1.353 4.024l.162.093c1.139-.944 2.006-2.045 2.808-3.184.812-1.133 1.296-2.455 1.919-3.697l.06-.122c.563-1.146 1.534-2.002 2.669-2.588.741-.382 1.467-1.082 2.004-2.013l.062-.11c.426-.774 1.176-1.292 2.043-1.461a5.343 5.343 0 0 0 3.619-2.579 5.372 5.372 0 0 0-3.043-7.806z" style="fill: rgb(130, 70, 255);"></path></g></g><g class="ldl-layer"><g class="ldl-ani" style="transform-origin: 50px 50px; opacity: 1; animation: 1.0416666666666665s linear -0.8333333333333333s infinite normal forwards running fade-f914e2f4-1f5e-458c-b9d4-a63c8f335906;"><path fill="#f47e5f" d="M65.194 52.327L53.331 70.982l.805.464 6.972 5.381 5.834-8.361a6.753 6.753 0 0 0 .531-4.151l-2.279-11.988z" style="fill: rgb(193, 162, 255);"></path></g></g><g class="ldl-layer"><g class="ldl-ani" style="transform-origin: 50px 50px; opacity: 1; animation: 1.0416666666666665s linear -0.8749999999999999s infinite normal forwards running fade-f914e2f4-1f5e-458c-b9d4-a63c8f335906;"><path fill="#f47e5f" d="M26.395 45.057L22.07 54.29l8.146 3.347 1.069.617 10.434-19.919-11.995 4.187a6.747 6.747 0 0 0-3.329 2.535z" style="fill: rgb(193, 162, 255);"></path></g></g><g class="ldl-layer"><g class="ldl-ani" style="transform-origin: 50px 50px; opacity: 1; animation: 1.0416666666666665s linear -0.9166666666666665s infinite normal forwards running fade-f914e2f4-1f5e-458c-b9d4-a63c8f335906;"><path d="M51.289 59.812l-9.573-5.527L30.86 67.999l13.98 8.072z" fill="#666" style="fill: rgb(193, 162, 255);"></path></g></g><g class="ldl-layer"><g class="ldl-ani" style="transform-origin: 50px 50px; opacity: 1; animation: 1.0416666666666665s linear -0.9583333333333331s infinite normal forwards running fade-f914e2f4-1f5e-458c-b9d4-a63c8f335906;"><path fill="#e0e0e0" d="M52.084 20.381L41.719 38.335 31.285 58.254l22.046 12.728 11.863-18.655L75.75 34.044c.214-.371.402-.756.573-1.147L52.791 19.311c-.253.343-.492.698-.707 1.07z" style="fill: rgb(99, 24, 255);"></path></g></g><g class="ldl-layer"><g class="ldl-ani" style="transform-origin: 50px 50px; opacity: 1; animation: 1.0416666666666665s linear -0.9999999999999999s infinite normal forwards running fade-f914e2f4-1f5e-458c-b9d4-a63c8f335906;"><path fill="#e15c64" d="M77.924 13.969a6.216 6.216 0 0 0-4.368-6.203c-1.804-.567-3.775-.195-5.371.82l-12.296 7.823a11.545 11.545 0 0 0-3.098 2.902l23.532 13.586c.571-1.304.903-2.704.964-4.134l.637-14.794z" style="fill: rgb(130, 70, 255);"></path></g></g><g class="ldl-layer"><g class="ldl-ani" style="transform-origin: 50px 50px; opacity: 1; animation: 1.0416666666666665s linear -1.0416666666666665s infinite normal forwards running fade-f914e2f4-1f5e-458c-b9d4-a63c8f335906;"><circle r="5.892" fill="#a0c8d7" cy="37.939" cx="57.535" transform="rotate(-60 57.536 37.94)" style="fill: rgb(162, 116, 255);"></circle></g></g><metadata xmlns:d="https://loading.io/stock/">
<d:name>rocket</d:name>
<d:tags>rocket,launch,space shuttle,take off,fire,star ship,flight,future,technology,landing page</d:tags>
<d:license>by</d:license>
<d:slug>tedlac</d:slug>
</metadata></g></g><style id="fade-f914e2f4-1f5e-458c-b9d4-a63c8f335906" data-anikit="">@keyframes fade-f914e2f4-1f5e-458c-b9d4-a63c8f335906
{
  0% {
    animation-timing-function: cubic-bezier(0.2057,0.573,0.3723,0.9184);
    opacity: 1;
  }
  100% {
    opacity: 0;
  }
}</style><!-- [ldio] generated by https://loading.io/ --></svg>