<svg width="418" height="296" viewBox="0 0 418 296" fill="none" xmlns="http://www.w3.org/2000/svg">
<g filter="url(#filter0_f_499_2)">
<path d="M109.742 64.1265C109.742 64.1265 101.694 59.2451 90.4433 59.2451C79.1926 59.2451 69 57.3452 69 64.1265C69 70.0003 79.1926 69.4282 90.4433 69.4282C101.694 69.4282 109.742 64.1265 109.742 64.1265Z" fill="url(#paint0_linear_499_2)"/>
</g>
<g filter="url(#filter1_d_499_2)">
<path d="M78.6495 64.1176C78.6495 61.453 76.4894 59.2929 73.8248 59.2929C71.1601 59.2929 69 61.453 69 64.1176C69 66.7823 71.1601 68.9424 73.8247 68.9424C76.4894 68.9424 78.6495 66.7823 78.6495 64.1176Z" fill="#6366F1"/>
</g>
<g filter="url(#filter2_f_499_2)">
<path fill-rule="evenodd" clip-rule="evenodd" d="M110.5 38C110.5 34.6863 113.186 32 116.5 32H164V36H116.5C115.395 36 114.5 36.8954 114.5 38V60C114.5 63.3137 111.814 66 108.5 66H59C57.8954 66 57 66.8954 57 68V88H53V68C53 64.6863 55.6863 62 59 62H108.5C109.605 62 110.5 61.1046 110.5 60V38Z" fill="url(#paint1_linear_499_2)"/>
</g>
<path fill-rule="evenodd" clip-rule="evenodd" d="M110.5 38C110.5 34.6863 113.186 32 116.5 32H164V36H116.5C115.395 36 114.5 36.8954 114.5 38V60C114.5 63.3137 111.814 66 108.5 66H59C57.8954 66 57 66.8954 57 68V88H53V68C53 64.6863 55.6863 62 59 62H108.5C109.605 62 110.5 61.1046 110.5 60V38Z" fill="url(#paint2_linear_499_2)"/>
<g filter="url(#filter3_f_499_2)">
<path fill-rule="evenodd" clip-rule="evenodd" d="M362 35.5H221.5V31.5H362C365.314 31.5 368 34.1863 368 37.5V85H364V37.5C364 36.3954 363.105 35.5 362 35.5Z" fill="url(#paint3_linear_499_2)"/>
</g>
<path fill-rule="evenodd" clip-rule="evenodd" d="M362 35.5H221.5V31.5H362C365.314 31.5 368 34.1863 368 37.5V85H364V37.5C364 36.3954 363.105 35.5 362 35.5Z" fill="url(#paint4_linear_499_2)"/>
<g filter="url(#filter4_f_499_2)">
<path d="M366.128 28.9999C366.128 28.9999 361.247 37.0482 361.247 48.2989C361.247 59.5495 359.347 69.7422 366.128 69.7422C372.002 69.7422 371.43 59.5495 371.43 48.2989C371.43 37.0482 366.128 28.9999 366.128 28.9999Z" fill="url(#paint5_linear_499_2)"/>
</g>
<g filter="url(#filter5_d_499_2)">
<path d="M366.121 60.0927C363.456 60.0927 361.296 62.2528 361.296 64.9174C361.296 67.5821 363.456 69.7422 366.121 69.7422C368.785 69.7422 370.945 67.5821 370.945 64.9174C370.945 62.2528 368.785 60.0927 366.121 60.0927Z" fill="#6366F1"/>
</g>
<g filter="url(#filter6_f_499_2)">
<path fill-rule="evenodd" clip-rule="evenodd" d="M193 120.137V63H189V120.137C189 123.451 191.686 126.137 195 126.137H222C223.105 126.137 224 127.032 224 128.137V159H228V128.137C228 124.823 225.314 122.137 222 122.137H195C193.895 122.137 193 121.241 193 120.137Z" fill="url(#paint6_linear_499_2)"/>
</g>
<path fill-rule="evenodd" clip-rule="evenodd" d="M193 120.137V63H189V120.137C189 123.451 191.686 126.137 195 126.137H222C223.105 126.137 224 127.032 224 128.137V159H228V128.137C228 124.823 225.314 122.137 222 122.137H195C193.895 122.137 193 121.241 193 120.137Z" fill="url(#paint7_linear_499_2)"/>
<g filter="url(#filter7_f_499_2)">
<path d="M191.128 75.9999C191.128 75.9999 186.247 84.0482 186.247 95.2989C186.247 106.55 184.347 116.742 191.128 116.742C197.002 116.742 196.43 106.55 196.43 95.2989C196.43 84.0482 191.128 75.9999 191.128 75.9999Z" fill="url(#paint8_linear_499_2)"/>
</g>
<g filter="url(#filter8_d_499_2)">
<path d="M191.121 107.093C188.456 107.093 186.296 109.253 186.296 111.917C186.296 114.582 188.456 116.742 191.121 116.742C193.785 116.742 195.945 114.582 195.945 111.917C195.945 109.253 193.785 107.093 191.121 107.093Z" fill="#6366F1"/>
</g>
<g filter="url(#filter9_f_499_2)">
<path fill-rule="evenodd" clip-rule="evenodd" d="M53 179.576V121H57V179.576C57 180.681 57.8954 181.576 59 181.576H126C129.314 181.576 132 184.262 132 187.576V222H128V187.576C128 186.472 127.105 185.576 126 185.576H59C55.6863 185.576 53 182.89 53 179.576Z" fill="url(#paint9_linear_499_2)"/>
</g>
<path fill-rule="evenodd" clip-rule="evenodd" d="M53 179.576V121H57V179.576C57 180.681 57.8954 181.576 59 181.576H126C129.314 181.576 132 184.262 132 187.576V222H128V187.576C128 186.472 127.105 185.576 126 185.576H59C55.6863 185.576 53 182.89 53 179.576Z" fill="url(#paint10_linear_499_2)"/>
<g filter="url(#filter10_f_499_2)">
<path d="M55.1285 131C55.1285 131 50.2471 139.048 50.2471 150.299C50.2471 161.55 48.3472 171.742 55.1285 171.742C61.0022 171.742 60.4301 161.55 60.4301 150.299C60.4301 139.048 55.1285 131 55.1285 131Z" fill="url(#paint11_linear_499_2)"/>
</g>
<g filter="url(#filter11_d_499_2)">
<path d="M55.1206 162.093C52.4559 162.093 50.2958 164.253 50.2958 166.917C50.2958 169.582 52.4559 171.742 55.1206 171.742C57.7852 171.742 59.9453 169.582 59.9453 166.917C59.9453 164.253 57.7852 162.093 55.1206 162.093Z" fill="#A855F7"/>
</g>
<path fill-rule="evenodd" clip-rule="evenodd" d="M224 251V191H228V251C228 254.314 225.314 257 222 257H159V253H222C223.105 253 224 252.105 224 251Z" fill="url(#paint12_linear_499_2)"/>
<path fill-rule="evenodd" clip-rule="evenodd" d="M224 251V191H228V251C228 254.314 225.314 257 222 257H159V253H222C223.105 253 224 252.105 224 251Z" fill="url(#paint13_linear_499_2)"/>
<g filter="url(#filter12_f_499_2)">
<path d="M213.742 255.127C213.742 255.127 205.694 250.245 194.443 250.245C183.193 250.245 173 248.345 173 255.127C173 261 183.193 260.428 194.443 260.428C205.694 260.428 213.742 255.127 213.742 255.127Z" fill="url(#paint14_linear_499_2)"/>
</g>
<g filter="url(#filter13_d_499_2)">
<path d="M182.65 255.118C182.65 252.453 180.489 250.293 177.825 250.293C175.16 250.293 173 252.453 173 255.118C173 257.782 175.16 259.942 177.825 259.942C180.489 259.942 182.65 257.782 182.65 255.118Z" fill="#A855F7"/>
</g>
<path fill-rule="evenodd" clip-rule="evenodd" d="M368 116V160.5C368 163.814 365.314 166.5 362 166.5H322C320.895 166.5 320 167.395 320 168.5V213H316V168.5C316 165.186 318.686 162.5 322 162.5H362C363.105 162.5 364 161.605 364 160.5V116H368Z" fill="url(#paint15_linear_499_2)"/>
<path fill-rule="evenodd" clip-rule="evenodd" d="M368 116V160.5C368 163.814 365.314 166.5 362 166.5H322C320.895 166.5 320 167.395 320 168.5V213H316V168.5C316 165.186 318.686 162.5 322 162.5H362C363.105 162.5 364 161.605 364 160.5V116H368Z" fill="url(#paint16_linear_499_2)"/>
<g filter="url(#filter14_f_499_2)">
<path d="M366.742 165.127C366.742 165.127 358.694 160.245 347.443 160.245C336.193 160.245 326 158.345 326 165.127C326 171 336.193 170.428 347.443 170.428C358.694 170.428 366.742 165.127 366.742 165.127Z" fill="url(#paint17_linear_499_2)"/>
</g>
<g filter="url(#filter15_d_499_2)">
<path d="M335.65 165.118C335.65 162.453 333.489 160.293 330.825 160.293C328.16 160.293 326 162.453 326 165.118C326 167.782 328.16 169.942 330.825 169.942C333.489 169.942 335.65 167.782 335.65 165.118Z" fill="#A855F7"/>
</g>
<g filter="url(#filter16_bd_499_2)">
<path d="M162 8.53952C162 6.03241 164.032 4 166.54 4H216.474C218.981 4 221.014 6.03241 221.014 8.53953V58.4743C221.014 60.9814 218.981 63.0138 216.474 63.0138H166.54C164.032 63.0138 162 60.9814 162 58.4743V8.53952Z" fill="white" fill-opacity="0.1" shape-rendering="crispEdges"/>
</g>
<g filter="url(#filter17_bd_499_2)">
<path fill-rule="evenodd" clip-rule="evenodd" d="M216.474 4.75659H166.54C164.45 4.75659 162.757 6.45026 162.757 8.53952V58.4743C162.757 60.5636 164.45 62.2572 166.54 62.2572H216.474C218.564 62.2572 220.257 60.5636 220.257 58.4743V8.53953C220.257 6.45027 218.564 4.75659 216.474 4.75659ZM166.54 4C164.032 4 162 6.03241 162 8.53952V58.4743C162 60.9814 164.032 63.0138 166.54 63.0138H216.474C218.981 63.0138 221.014 60.9814 221.014 58.4743V8.53953C221.014 6.03241 218.981 4 216.474 4H166.54Z" fill="#6366F1" fill-opacity="0.7" shape-rendering="crispEdges"/>
</g>
<path d="M170.32 16.8618C170.32 14.3547 172.353 12.3223 174.86 12.3223H208.15C210.657 12.3223 212.689 14.3547 212.689 16.8618V50.1516C212.689 52.6588 210.657 54.6912 208.15 54.6912H174.86C172.353 54.6912 170.32 52.6588 170.32 50.1516V16.8618Z" fill="url(#paint18_linear_499_2)"/>
<path fill-rule="evenodd" clip-rule="evenodd" d="M208.15 13.0789H174.86C172.771 13.0789 171.077 14.7725 171.077 16.8618V50.1516C171.077 52.2409 172.771 53.9346 174.86 53.9346H208.15C210.239 53.9346 211.933 52.2409 211.933 50.1516V16.8618C211.933 14.7725 210.239 13.0789 208.15 13.0789ZM174.86 12.3223C172.353 12.3223 170.32 14.3547 170.32 16.8618V50.1516C170.32 52.6588 172.353 54.6912 174.86 54.6912H208.15C210.657 54.6912 212.689 52.6588 212.689 50.1516V16.8618C212.689 14.3547 210.657 12.3223 208.15 12.3223H174.86Z" fill="#A855F7"/>
<path fill-rule="evenodd" clip-rule="evenodd" d="M188.107 25.1109C189.139 24.0795 190.538 23.5 191.996 23.5C193.455 23.5 194.854 24.0795 195.885 25.1109C196.917 26.1424 197.496 27.5413 197.496 29C197.496 30.4587 196.917 31.8576 195.885 32.8891C194.854 33.9205 193.455 34.5 191.996 34.5C190.538 34.5 189.139 33.9205 188.107 32.8891C187.076 31.8576 186.496 30.4587 186.496 29C186.496 27.5413 187.076 26.1424 188.107 25.1109ZM191.996 24.5C190.803 24.5 189.658 24.9741 188.814 25.818C187.97 26.6619 187.496 27.8065 187.496 29C187.496 30.1935 187.97 31.3381 188.814 32.182C189.658 33.0259 190.803 33.5 191.996 33.5C193.19 33.5 194.334 33.0259 195.178 32.182C196.022 31.3381 196.496 30.1935 196.496 29C196.496 27.8065 196.022 26.6619 195.178 25.818C194.334 24.9741 193.19 24.5 191.996 24.5ZM182.906 44C182.906 39.7628 187.081 36.5 191.996 36.5C196.911 36.5 201.086 39.7628 201.086 44H200.086C200.086 40.4972 196.561 37.5 191.996 37.5C187.431 37.5 183.906 40.4972 183.906 44H182.906Z" fill="url(#paint19_linear_499_2)"/>
<g filter="url(#filter18_bd_499_2)">
<path d="M99 227.54C99 225.032 101.032 223 103.54 223H153.474C155.981 223 158.014 225.032 158.014 227.54V277.474C158.014 279.981 155.981 282.014 153.474 282.014H103.54C101.032 282.014 99 279.981 99 277.474V227.54Z" fill="white" fill-opacity="0.1" shape-rendering="crispEdges"/>
</g>
<g filter="url(#filter19_bd_499_2)">
<path fill-rule="evenodd" clip-rule="evenodd" d="M153.474 223.757H103.54C101.45 223.757 99.7566 225.45 99.7566 227.54V277.474C99.7566 279.564 101.45 281.257 103.54 281.257H153.474C155.564 281.257 157.257 279.564 157.257 277.474V227.54C157.257 225.45 155.564 223.757 153.474 223.757ZM103.54 223C101.032 223 99 225.032 99 227.54V277.474C99 279.981 101.032 282.014 103.54 282.014H153.474C155.981 282.014 158.014 279.981 158.014 277.474V227.54C158.014 225.032 155.981 223 153.474 223H103.54Z" fill="#6366F1" fill-opacity="0.7" shape-rendering="crispEdges"/>
</g>
<path d="M107.32 235.862C107.32 233.355 109.353 231.322 111.86 231.322H145.15C147.657 231.322 149.689 233.355 149.689 235.862V269.152C149.689 271.659 147.657 273.691 145.15 273.691H111.86C109.353 273.691 107.32 271.659 107.32 269.152V235.862Z" fill="url(#paint20_linear_499_2)"/>
<path fill-rule="evenodd" clip-rule="evenodd" d="M145.15 232.079H111.86C109.771 232.079 108.077 233.773 108.077 235.862V269.152C108.077 271.241 109.771 272.935 111.86 272.935H145.15C147.239 272.935 148.933 271.241 148.933 269.152V235.862C148.933 233.773 147.239 232.079 145.15 232.079ZM111.86 231.322C109.353 231.322 107.32 233.355 107.32 235.862V269.152C107.32 271.659 109.353 273.691 111.86 273.691H145.15C147.657 273.691 149.689 271.659 149.689 269.152V235.862C149.689 233.355 147.657 231.322 145.15 231.322H111.86Z" fill="#A855F7"/>
<path fill-rule="evenodd" clip-rule="evenodd" d="M124 245.75C123.314 245.75 122.75 246.314 122.75 247V248.25H126.25V246C126.25 245.916 126.251 245.833 126.254 245.75H124ZM126.25 249.75H122C121.116 249.75 120.59 249.971 120.28 250.28C119.971 250.59 119.75 251.116 119.75 252V260C119.75 260.884 119.971 261.41 120.28 261.72C120.59 262.029 121.116 262.25 122 262.25H126.8C126.414 261.626 126.25 260.854 126.25 260V249.75ZM130 262.25C129.116 262.25 128.59 262.029 128.28 261.72C127.971 261.41 127.75 260.884 127.75 260V246C127.75 245.667 127.777 245.408 127.835 245.193C127.895 244.968 127.847 244.728 127.705 244.543C127.563 244.358 127.343 244.25 127.11 244.25H124C122.486 244.25 121.25 245.486 121.25 247V248.297C120.449 248.401 119.75 248.689 119.22 249.22C118.529 249.91 118.25 250.884 118.25 252V260C118.25 261.116 118.529 262.09 119.22 262.78C119.91 263.471 120.884 263.75 122 263.75H130C130.192 263.75 130.367 263.678 130.5 263.559C130.633 263.678 130.808 263.75 131 263.75H135C135.414 263.75 135.75 263.414 135.75 263V259C135.75 258.036 134.964 257.25 134 257.25H132C131.036 257.25 130.25 258.036 130.25 259V262.293C130.172 262.265 130.088 262.25 130 262.25ZM131 248.25C131.414 248.25 131.75 248.586 131.75 249V254C131.75 254.414 131.414 254.75 131 254.75C130.586 254.75 130.25 254.414 130.25 254V249C130.25 248.586 130.586 248.25 131 248.25ZM135 248.25C135.414 248.25 135.75 248.586 135.75 249V254C135.75 254.414 135.414 254.75 135 254.75C134.586 254.75 134.25 254.414 134.25 254V249C134.25 248.586 134.586 248.25 135 248.25ZM123 253.25C123.414 253.25 123.75 253.586 123.75 254V258C123.75 258.414 123.414 258.75 123 258.75C122.586 258.75 122.25 258.414 122.25 258V254C122.25 253.586 122.586 253.25 123 253.25ZM132 258.75C131.864 258.75 131.75 258.864 131.75 259V262.25H134.25V259C134.25 258.864 134.136 258.75 134 258.75H132Z" fill="url(#paint21_linear_499_2)"/>
<path fill-rule="evenodd" clip-rule="evenodd" d="M128.28 244.28C127.971 244.59 127.75 245.116 127.75 246V260C127.75 260.884 127.971 261.41 128.28 261.72C128.59 262.029 129.116 262.25 130 262.25H136C136.884 262.25 137.41 262.029 137.72 261.72C138.029 261.41 138.25 260.884 138.25 260V246C138.25 245.116 138.029 244.59 137.72 244.28C137.41 243.971 136.884 243.75 136 243.75H130C129.116 243.75 128.59 243.971 128.28 244.28ZM127.22 243.22C127.91 242.529 128.884 242.25 130 242.25H136C137.116 242.25 138.09 242.529 138.78 243.22C139.471 243.91 139.75 244.884 139.75 246V260C139.75 261.116 139.471 262.09 138.78 262.78C138.09 263.471 137.116 263.75 136 263.75H130C128.884 263.75 127.91 263.471 127.22 262.78C126.529 262.09 126.25 261.116 126.25 260V246C126.25 244.884 126.529 243.91 127.22 243.22Z" fill="url(#paint22_linear_499_2)"/>
<g filter="url(#filter20_bd_499_2)">
<path d="M287 217.54C287 215.032 289.032 213 291.54 213H341.474C343.981 213 346.014 215.032 346.014 217.54V267.474C346.014 269.981 343.981 272.014 341.474 272.014H291.54C289.032 272.014 287 269.981 287 267.474V217.54Z" fill="white" fill-opacity="0.1" shape-rendering="crispEdges"/>
</g>
<g filter="url(#filter21_bd_499_2)">
<path fill-rule="evenodd" clip-rule="evenodd" d="M341.474 213.757H291.54C289.45 213.757 287.757 215.45 287.757 217.54V267.474C287.757 269.564 289.45 271.257 291.54 271.257H341.474C343.564 271.257 345.257 269.564 345.257 267.474V217.54C345.257 215.45 343.564 213.757 341.474 213.757ZM291.54 213C289.032 213 287 215.032 287 217.54V267.474C287 269.981 289.032 272.014 291.54 272.014H341.474C343.981 272.014 346.014 269.981 346.014 267.474V217.54C346.014 215.032 343.981 213 341.474 213H291.54Z" fill="#6366F1" fill-opacity="0.7" shape-rendering="crispEdges"/>
</g>
<path d="M295.32 225.862C295.32 223.355 297.353 221.322 299.86 221.322H333.15C335.657 221.322 337.689 223.355 337.689 225.862V259.152C337.689 261.659 335.657 263.691 333.15 263.691H299.86C297.353 263.691 295.32 261.659 295.32 259.152V225.862Z" fill="url(#paint23_linear_499_2)"/>
<path fill-rule="evenodd" clip-rule="evenodd" d="M318.25 233.75H314C311.574 233.75 310.071 234.24 309.155 235.155C308.24 236.071 307.75 237.574 307.75 240V246C307.75 248.426 308.24 249.929 309.155 250.845C310.071 251.76 311.574 252.25 314 252.25H320C322.426 252.25 323.929 251.76 324.845 250.845C325.76 249.929 326.25 248.426 326.25 246V241.75H323C321.458 241.75 320.192 241.503 319.345 240.655C318.497 239.808 318.25 238.542 318.25 237V233.75ZM327.749 240.967C327.741 240.772 327.657 240.595 327.527 240.466L319.534 232.473C319.398 232.335 319.209 232.25 319 232.25H319C319 232.25 319 232.25 319 232.25H314C311.426 232.25 309.429 232.76 308.095 234.095C306.76 235.429 306.25 237.426 306.25 240V246C306.25 248.574 306.76 250.571 308.095 251.905C309.429 253.24 311.426 253.75 314 253.75H320C322.574 253.75 324.571 253.24 325.905 251.905C327.24 250.571 327.75 248.574 327.75 246V241.006V241C327.75 240.989 327.75 240.978 327.749 240.967ZM319.75 237V234.811L325.189 240.25H323C321.542 240.25 320.808 239.997 320.405 239.595C320.003 239.192 319.75 238.458 319.75 237ZM312 243.25C311.586 243.25 311.25 243.586 311.25 244C311.25 244.414 311.586 244.75 312 244.75H318C318.414 244.75 318.75 244.414 318.75 244C318.75 243.586 318.414 243.25 318 243.25H312ZM312 247.25C311.586 247.25 311.25 247.586 311.25 248C311.25 248.414 311.586 248.75 312 248.75H316C316.414 248.75 316.75 248.414 316.75 248C316.75 247.586 316.414 247.25 316 247.25H312Z" fill="url(#paint24_linear_499_2)"/>
<path fill-rule="evenodd" clip-rule="evenodd" d="M333.15 222.079H299.86C297.771 222.079 296.077 223.773 296.077 225.862V259.152C296.077 261.241 297.771 262.935 299.86 262.935H333.15C335.239 262.935 336.933 261.241 336.933 259.152V225.862C336.933 223.773 335.239 222.079 333.15 222.079ZM299.86 221.322C297.353 221.322 295.32 223.355 295.32 225.862V259.152C295.32 261.659 297.353 263.691 299.86 263.691H333.15C335.657 263.691 337.689 261.659 337.689 259.152V225.862C337.689 223.355 335.657 221.322 333.15 221.322H299.86Z" fill="#A855F7"/>
<g filter="url(#filter22_bd_499_2)">
<rect x="8" y="88" width="91" height="32" rx="15.3875" fill="white" fill-opacity="0.1" shape-rendering="crispEdges"/>
<rect x="8.48086" y="88.4809" width="90.0383" height="31.0383" rx="14.9067" stroke="url(#paint25_linear_499_2)" stroke-opacity="0.7" stroke-width="0.961721" shape-rendering="crispEdges"/>
<path d="M33.9787 109H32.348L36.0121 98.8182H37.7869L41.451 109H39.8203L36.9418 100.668H36.8622L33.9787 109ZM34.2521 105.013H39.5419V106.305H34.2521V105.013ZM45.5376 109.149C44.9212 109.149 44.371 108.992 43.8871 108.677C43.4065 108.359 43.0286 107.906 42.7536 107.32C42.4818 106.73 42.3459 106.022 42.3459 105.197C42.3459 104.371 42.4834 103.665 42.7585 103.079C43.0369 102.492 43.4181 102.043 43.902 101.732C44.3859 101.42 44.9344 101.264 45.5476 101.264C46.0215 101.264 46.4027 101.344 46.6911 101.503C46.9827 101.659 47.2081 101.841 47.3672 102.05C47.5296 102.259 47.6555 102.442 47.745 102.602H47.8345V98.8182H49.321V109H47.8693V107.812H47.745C47.6555 107.974 47.5263 108.16 47.3572 108.369C47.1915 108.577 46.9628 108.76 46.6712 108.915C46.3795 109.071 46.0017 109.149 45.5376 109.149ZM45.8658 107.881C46.2933 107.881 46.6546 107.769 46.9496 107.543C47.2479 107.315 47.4732 106.998 47.6257 106.594C47.7815 106.189 47.8594 105.719 47.8594 105.182C47.8594 104.652 47.7831 104.187 47.6307 103.79C47.4782 103.392 47.2545 103.082 46.9595 102.86C46.6645 102.638 46.3 102.527 45.8658 102.527C45.4183 102.527 45.0455 102.643 44.7472 102.875C44.4489 103.107 44.2235 103.424 44.071 103.825C43.9219 104.226 43.8473 104.678 43.8473 105.182C43.8473 105.692 43.9235 106.151 44.076 106.559C44.2285 106.967 44.4538 107.29 44.7521 107.528C45.0537 107.764 45.425 107.881 45.8658 107.881ZM51.4426 109V101.364H52.8695V102.607H52.964C53.123 102.186 53.3832 101.857 53.7445 101.622C54.1058 101.384 54.5383 101.264 55.0421 101.264C55.5525 101.264 55.9801 101.384 56.3248 101.622C56.6728 101.861 56.9296 102.189 57.0953 102.607H57.1749C57.3572 102.199 57.6472 101.874 58.0449 101.632C58.4426 101.387 58.9166 101.264 59.4668 101.264C60.1595 101.264 60.7246 101.481 61.1621 101.915C61.6029 102.35 61.8233 103.004 61.8233 103.879V109H60.3368V104.018C60.3368 103.501 60.196 103.127 59.9142 102.895C59.6325 102.663 59.2961 102.547 58.905 102.547C58.4211 102.547 58.0449 102.696 57.7765 102.994C57.508 103.289 57.3738 103.669 57.3738 104.133V109H55.8922V103.924C55.8922 103.51 55.763 103.177 55.5044 102.925C55.2459 102.673 54.9095 102.547 54.4952 102.547C54.2135 102.547 53.9533 102.621 53.7147 102.771C53.4793 102.916 53.2888 103.12 53.1429 103.382C53.0004 103.644 52.9292 103.947 52.9292 104.292V109H51.4426ZM63.8157 109V101.364H65.3022V109H63.8157ZM64.5664 100.185C64.3079 100.185 64.0858 100.099 63.9002 99.9268C63.7179 99.7512 63.6268 99.5424 63.6268 99.3004C63.6268 99.0552 63.7179 98.8464 63.9002 98.674C64.0858 98.4983 64.3079 98.4105 64.5664 98.4105C64.8249 98.4105 65.0453 98.4983 65.2276 98.674C65.4132 98.8464 65.506 99.0552 65.506 99.3004C65.506 99.5424 65.4132 99.7512 65.2276 99.9268C65.0453 100.099 64.8249 100.185 64.5664 100.185ZM68.7885 104.466V109H67.302V101.364H68.7289V102.607H68.8233C68.999 102.202 69.2741 101.877 69.6486 101.632C70.0265 101.387 70.5021 101.264 71.0755 101.264C71.5958 101.264 72.0516 101.374 72.4426 101.592C72.8337 101.808 73.137 102.129 73.3525 102.557C73.5679 102.984 73.6756 103.513 73.6756 104.143V109H72.1891V104.322C72.1891 103.768 72.0449 103.336 71.7566 103.024C71.4682 102.709 71.0721 102.552 70.5684 102.552C70.2237 102.552 69.9171 102.626 69.6486 102.776C69.3835 102.925 69.173 103.143 69.0172 103.432C68.8648 103.717 68.7885 104.062 68.7885 104.466Z" fill="#CBD5E1"/>
</g>
<g filter="url(#filter23_bd_499_2)">
<rect x="322" y="85" width="88" height="32" rx="15.3875" fill="white" fill-opacity="0.1" shape-rendering="crispEdges"/>
<rect x="322.481" y="85.4809" width="87.0383" height="31.0383" rx="14.9067" stroke="url(#paint26_linear_499_2)" stroke-opacity="0.7" stroke-width="0.961721" shape-rendering="crispEdges"/>
<path d="M347.119 106V95.8182H353.502V97.1406H348.655V100.243H353.169V101.56H348.655V104.678H353.562V106H347.119ZM358.294 106.149C357.677 106.149 357.127 105.992 356.643 105.677C356.162 105.359 355.785 104.906 355.509 104.32C355.238 103.73 355.102 103.022 355.102 102.197C355.102 101.371 355.239 100.665 355.514 100.079C355.793 99.4922 356.174 99.0431 356.658 98.7315C357.142 98.42 357.69 98.2642 358.303 98.2642C358.777 98.2642 359.159 98.3438 359.447 98.5028C359.739 98.6586 359.964 98.8409 360.123 99.0497C360.285 99.2585 360.411 99.4425 360.501 99.6016H360.59V95.8182H362.077V106H360.625V104.812H360.501C360.411 104.974 360.282 105.16 360.113 105.369C359.947 105.577 359.719 105.76 359.427 105.915C359.135 106.071 358.758 106.149 358.294 106.149ZM358.622 104.881C359.049 104.881 359.41 104.769 359.705 104.543C360.004 104.315 360.229 103.998 360.382 103.594C360.537 103.189 360.615 102.719 360.615 102.182C360.615 101.652 360.539 101.187 360.387 100.79C360.234 100.392 360.01 100.082 359.715 99.8601C359.42 99.638 359.056 99.527 358.622 99.527C358.174 99.527 357.801 99.643 357.503 99.875C357.205 100.107 356.979 100.424 356.827 100.825C356.678 101.226 356.603 101.678 356.603 102.182C356.603 102.692 356.679 103.151 356.832 103.559C356.984 103.967 357.21 104.29 357.508 104.528C357.81 104.764 358.181 104.881 358.622 104.881ZM364.199 106V98.3636H365.685V106H364.199ZM364.949 97.1854C364.691 97.1854 364.469 97.0992 364.283 96.9268C364.101 96.7512 364.01 96.5424 364.01 96.3004C364.01 96.0552 364.101 95.8464 364.283 95.674C364.469 95.4983 364.691 95.4105 364.949 95.4105C365.208 95.4105 365.428 95.4983 365.61 95.674C365.796 95.8464 365.889 96.0552 365.889 96.3004C365.889 96.5424 365.796 96.7512 365.61 96.9268C365.428 97.0992 365.208 97.1854 364.949 97.1854ZM371.249 98.3636V99.5568H367.078V98.3636H371.249ZM368.197 96.5341H369.683V103.758C369.683 104.046 369.727 104.263 369.813 104.409C369.899 104.552 370.01 104.649 370.146 104.702C370.285 104.752 370.436 104.777 370.598 104.777C370.718 104.777 370.822 104.769 370.911 104.752C371.001 104.736 371.07 104.722 371.12 104.712L371.389 105.94C371.302 105.973 371.18 106.007 371.021 106.04C370.862 106.076 370.663 106.096 370.424 106.099C370.033 106.106 369.669 106.036 369.33 105.891C368.992 105.745 368.719 105.519 368.51 105.214C368.301 104.91 368.197 104.527 368.197 104.066V96.5341ZM376.028 106.154C375.313 106.154 374.688 105.99 374.154 105.662C373.621 105.334 373.206 104.875 372.911 104.285C372.616 103.695 372.469 103.005 372.469 102.217C372.469 101.424 372.616 100.732 372.911 100.138C373.206 99.5452 373.621 99.0845 374.154 98.7564C374.688 98.4283 375.313 98.2642 376.028 98.2642C376.744 98.2642 377.369 98.4283 377.903 98.7564C378.436 99.0845 378.851 99.5452 379.146 100.138C379.441 100.732 379.588 101.424 379.588 102.217C379.588 103.005 379.441 103.695 379.146 104.285C378.851 104.875 378.436 105.334 377.903 105.662C377.369 105.99 376.744 106.154 376.028 106.154ZM376.033 104.906C376.497 104.906 376.882 104.784 377.187 104.538C377.492 104.293 377.717 103.967 377.863 103.559C378.012 103.151 378.087 102.702 378.087 102.212C378.087 101.724 378.012 101.277 377.863 100.869C377.717 100.458 377.492 100.129 377.187 99.88C376.882 99.6314 376.497 99.5071 376.033 99.5071C375.566 99.5071 375.178 99.6314 374.87 99.88C374.565 100.129 374.338 100.458 374.189 100.869C374.043 101.277 373.97 101.724 373.97 102.212C373.97 102.702 374.043 103.151 374.189 103.559C374.338 103.967 374.565 104.293 374.87 104.538C375.178 104.784 375.566 104.906 376.033 104.906ZM381.247 106V98.3636H382.684V99.5767H382.764C382.903 99.1657 383.148 98.8426 383.499 98.6072C383.854 98.3686 384.255 98.2493 384.703 98.2493C384.795 98.2493 384.905 98.2526 385.031 98.2592C385.16 98.2659 385.261 98.2741 385.334 98.2841V99.706C385.274 99.6894 385.168 99.6712 385.016 99.6513C384.863 99.6281 384.711 99.6165 384.558 99.6165C384.207 99.6165 383.894 99.6911 383.619 99.8402C383.347 99.986 383.132 100.19 382.972 100.452C382.813 100.71 382.734 101.005 382.734 101.337V106H381.247Z" fill="#CBD5E1"/>
</g>
<g filter="url(#filter24_bd_499_2)">
<rect x="174" y="159" width="104" height="32" rx="15.3875" fill="white" fill-opacity="0.1" shape-rendering="crispEdges"/>
<rect x="174.481" y="159.481" width="103.038" height="31.0383" rx="14.9067" stroke="url(#paint27_linear_499_2)" stroke-opacity="0.7" stroke-width="0.961721" shape-rendering="crispEdges"/>
<path d="M199.119 169.818H200.983L204.224 177.733H204.344L207.585 169.818H209.45V180H207.988V172.632H207.893L204.891 179.985H203.678L200.675 172.627H200.58V180H199.119V169.818ZM214.855 180.154C214.103 180.154 213.455 179.993 212.911 179.672C212.371 179.347 211.953 178.891 211.658 178.305C211.367 177.715 211.221 177.024 211.221 176.232C211.221 175.449 211.367 174.76 211.658 174.163C211.953 173.567 212.364 173.101 212.891 172.766C213.421 172.432 214.041 172.264 214.751 172.264C215.181 172.264 215.599 172.335 216.003 172.478C216.408 172.621 216.771 172.844 217.092 173.149C217.414 173.454 217.667 173.85 217.853 174.337C218.038 174.821 218.131 175.41 218.131 176.102V176.629H212.061V175.516H216.675C216.675 175.125 216.595 174.778 216.436 174.477C216.277 174.172 216.053 173.931 215.765 173.756C215.48 173.58 215.145 173.492 214.76 173.492C214.343 173.492 213.978 173.595 213.667 173.8C213.358 174.003 213.12 174.268 212.951 174.596C212.785 174.921 212.702 175.274 212.702 175.655V176.525C212.702 177.035 212.792 177.469 212.971 177.827C213.153 178.185 213.407 178.459 213.731 178.648C214.056 178.833 214.436 178.926 214.87 178.926C215.152 178.926 215.408 178.886 215.64 178.807C215.872 178.724 216.073 178.601 216.242 178.439C216.411 178.277 216.54 178.076 216.63 177.837L218.037 178.091C217.924 178.505 217.722 178.868 217.43 179.18C217.142 179.488 216.779 179.728 216.341 179.901C215.907 180.07 215.412 180.154 214.855 180.154ZM219.781 180V172.364H221.207V173.607H221.302C221.461 173.186 221.721 172.857 222.082 172.622C222.444 172.384 222.876 172.264 223.38 172.264C223.89 172.264 224.318 172.384 224.663 172.622C225.011 172.861 225.268 173.189 225.433 173.607H225.513C225.695 173.199 225.985 172.874 226.383 172.632C226.781 172.387 227.254 172.264 227.805 172.264C228.497 172.264 229.062 172.481 229.5 172.915C229.941 173.35 230.161 174.004 230.161 174.879V180H228.675V175.018C228.675 174.501 228.534 174.127 228.252 173.895C227.97 173.663 227.634 173.547 227.243 173.547C226.759 173.547 226.383 173.696 226.114 173.994C225.846 174.289 225.712 174.669 225.712 175.133V180H224.23V174.924C224.23 174.51 224.101 174.177 223.842 173.925C223.584 173.673 223.247 173.547 222.833 173.547C222.551 173.547 222.291 173.621 222.053 173.771C221.817 173.916 221.627 174.12 221.481 174.382C221.338 174.644 221.267 174.947 221.267 175.292V180H219.781ZM232.273 180V169.818H233.759V173.602H233.849C233.935 173.442 234.059 173.259 234.222 173.05C234.384 172.841 234.61 172.659 234.898 172.503C235.186 172.344 235.567 172.264 236.041 172.264C236.658 172.264 237.208 172.42 237.692 172.732C238.176 173.043 238.555 173.492 238.83 174.079C239.109 174.665 239.248 175.371 239.248 176.197C239.248 177.022 239.11 177.73 238.835 178.32C238.56 178.906 238.182 179.359 237.702 179.677C237.221 179.992 236.673 180.149 236.056 180.149C235.592 180.149 235.213 180.071 234.918 179.915C234.626 179.76 234.397 179.577 234.232 179.369C234.066 179.16 233.938 178.974 233.849 178.812H233.725V180H232.273ZM233.73 176.182C233.73 176.719 233.807 177.189 233.963 177.594C234.119 177.998 234.344 178.315 234.639 178.543C234.934 178.769 235.296 178.881 235.723 178.881C236.167 178.881 236.539 178.764 236.837 178.528C237.135 178.29 237.36 177.967 237.513 177.559C237.669 177.151 237.747 176.692 237.747 176.182C237.747 175.678 237.67 175.226 237.518 174.825C237.369 174.424 237.143 174.107 236.842 173.875C236.544 173.643 236.171 173.527 235.723 173.527C235.292 173.527 234.928 173.638 234.629 173.86C234.334 174.082 234.111 174.392 233.958 174.79C233.806 175.187 233.73 175.652 233.73 176.182ZM244.208 180.154C243.456 180.154 242.808 179.993 242.265 179.672C241.724 179.347 241.307 178.891 241.012 178.305C240.72 177.715 240.574 177.024 240.574 176.232C240.574 175.449 240.72 174.76 241.012 174.163C241.307 173.567 241.718 173.101 242.245 172.766C242.775 172.432 243.395 172.264 244.104 172.264C244.535 172.264 244.953 172.335 245.357 172.478C245.761 172.621 246.124 172.844 246.446 173.149C246.767 173.454 247.021 173.85 247.206 174.337C247.392 174.821 247.485 175.41 247.485 176.102V176.629H241.414V175.516H246.028C246.028 175.125 245.949 174.778 245.789 174.477C245.63 174.172 245.407 173.931 245.118 173.756C244.833 173.58 244.498 173.492 244.114 173.492C243.696 173.492 243.332 173.595 243.02 173.8C242.712 174.003 242.473 174.268 242.304 174.596C242.139 174.921 242.056 175.274 242.056 175.655V176.525C242.056 177.035 242.145 177.469 242.324 177.827C242.507 178.185 242.76 178.459 243.085 178.648C243.41 178.833 243.789 178.926 244.223 178.926C244.505 178.926 244.762 178.886 244.994 178.807C245.226 178.724 245.426 178.601 245.596 178.439C245.765 178.277 245.894 178.076 245.983 177.837L247.39 178.091C247.278 178.505 247.075 178.868 246.784 179.18C246.495 179.488 246.132 179.728 245.695 179.901C245.261 180.07 244.765 180.154 244.208 180.154ZM249.134 180V172.364H250.571V173.577H250.65C250.79 173.166 251.035 172.843 251.386 172.607C251.741 172.369 252.142 172.249 252.589 172.249C252.682 172.249 252.791 172.253 252.917 172.259C253.047 172.266 253.148 172.274 253.221 172.284V173.706C253.161 173.689 253.055 173.671 252.903 173.651C252.75 173.628 252.598 173.616 252.445 173.616C252.094 173.616 251.781 173.691 251.506 173.84C251.234 173.986 251.018 174.19 250.859 174.452C250.7 174.71 250.621 175.005 250.621 175.337V180H249.134Z" fill="#CBD5E1"/>
</g>
<rect x="66.5" y="278.5" width="80" height="17" rx="8.5" fill="#1B2537"/>
<rect x="66.5" y="278.5" width="80" height="17" rx="8.5" fill="#1E293B" fill-opacity="0.32"/>
<rect x="66.5" y="278.5" width="80" height="17" rx="8.5" stroke="url(#paint28_angular_499_2)"/>
<path d="M87.7596 287.091C87.7596 287.712 87.646 288.246 87.4187 288.693C87.1914 289.138 86.8799 289.481 86.484 289.722C86.0901 289.96 85.6422 290.08 85.1403 290.08C84.6365 290.08 84.1867 289.96 83.7908 289.722C83.3969 289.481 83.0863 289.137 82.859 288.69C82.6317 288.243 82.5181 287.71 82.5181 287.091C82.5181 286.47 82.6317 285.937 82.859 285.491C83.0863 285.045 83.3969 284.702 83.7908 284.463C84.1867 284.223 84.6365 284.102 85.1403 284.102C85.6422 284.102 86.0901 284.223 86.484 284.463C86.8799 284.702 87.1914 285.045 87.4187 285.491C87.646 285.937 87.7596 286.47 87.7596 287.091ZM86.8903 287.091C86.8903 286.617 86.8136 286.219 86.6602 285.895C86.5086 285.569 86.3003 285.323 86.0352 285.156C85.7719 284.988 85.4736 284.903 85.1403 284.903C84.805 284.903 84.5058 284.988 84.2425 285.156C83.9793 285.323 83.771 285.569 83.6175 285.895C83.466 286.219 83.3903 286.617 83.3903 287.091C83.3903 287.564 83.466 287.964 83.6175 288.29C83.771 288.614 83.9793 288.86 84.2425 289.028C84.5058 289.195 84.805 289.278 85.1403 289.278C85.4736 289.278 85.7719 289.195 86.0352 289.028C86.3003 288.86 86.5086 288.614 86.6602 288.29C86.8136 287.964 86.8903 287.564 86.8903 287.091ZM88.7859 290V285.636H89.6069V286.33H89.6523C89.7319 286.095 89.872 285.91 90.0728 285.776C90.2754 285.639 90.5046 285.571 90.7603 285.571C90.8133 285.571 90.8758 285.573 90.9478 285.577C91.0217 285.58 91.0794 285.585 91.1211 285.591V286.403C91.087 286.394 91.0264 286.384 90.9393 286.372C90.8522 286.359 90.765 286.352 90.6779 286.352C90.4772 286.352 90.2982 286.395 90.141 286.48C89.9857 286.563 89.8626 286.68 89.7717 286.83C89.6808 286.977 89.6353 287.146 89.6353 287.335V290H88.7859ZM93.5295 291.727C93.1829 291.727 92.8846 291.682 92.6346 291.591C92.3865 291.5 92.1838 291.38 92.0266 291.23C91.8694 291.08 91.752 290.917 91.6744 290.739L92.4045 290.438C92.4556 290.521 92.5238 290.609 92.609 290.702C92.6961 290.796 92.8136 290.877 92.9613 290.943C93.1109 291.009 93.3031 291.043 93.538 291.043C93.86 291.043 94.1261 290.964 94.3363 290.807C94.5465 290.652 94.6516 290.403 94.6516 290.062V289.205H94.5977C94.5465 289.297 94.4727 289.401 94.3761 289.514C94.2814 289.628 94.1507 289.726 93.984 289.81C93.8174 289.893 93.6005 289.935 93.3335 289.935C92.9888 289.935 92.6781 289.854 92.4016 289.693C92.127 289.53 91.9092 289.291 91.7482 288.974C91.5891 288.656 91.5096 288.265 91.5096 287.801C91.5096 287.337 91.5882 286.939 91.7454 286.608C91.9045 286.277 92.1223 286.023 92.3988 285.847C92.6753 285.669 92.9888 285.58 93.3391 285.58C93.61 285.58 93.8287 285.625 93.9954 285.716C94.1621 285.805 94.2918 285.909 94.3846 286.028C94.4793 286.148 94.5522 286.253 94.6033 286.344H94.6658V285.636H95.4982V290.097C95.4982 290.472 95.4111 290.779 95.2369 291.02C95.0626 291.26 94.8268 291.438 94.5295 291.554C94.234 291.67 93.9007 291.727 93.5295 291.727ZM93.521 289.23C93.7653 289.23 93.9717 289.173 94.1403 289.06C94.3107 288.944 94.4395 288.779 94.5266 288.565C94.6156 288.349 94.6602 288.091 94.6602 287.79C94.6602 287.496 94.6166 287.238 94.5295 287.014C94.4424 286.791 94.3145 286.616 94.146 286.491C93.9774 286.365 93.7691 286.301 93.521 286.301C93.2653 286.301 93.0522 286.367 92.8817 286.5C92.7113 286.631 92.5825 286.809 92.4954 287.034C92.4102 287.259 92.3675 287.511 92.3675 287.79C92.3675 288.076 92.4111 288.327 92.4982 288.543C92.5853 288.759 92.7141 288.927 92.8846 289.048C93.0569 289.17 93.2691 289.23 93.521 289.23ZM97.9073 290.097C97.6308 290.097 97.3808 290.045 97.1573 289.943C96.9338 289.839 96.7567 289.688 96.6261 289.491C96.4973 289.295 96.4329 289.053 96.4329 288.767C96.4329 288.521 96.4802 288.318 96.5749 288.159C96.6696 288 96.7975 287.874 96.9585 287.781C97.1194 287.688 97.2994 287.618 97.4982 287.571C97.6971 287.524 97.8997 287.488 98.1062 287.463C98.3675 287.433 98.5797 287.408 98.7425 287.389C98.9054 287.368 99.0238 287.335 99.0977 287.29C99.1715 287.244 99.2085 287.17 99.2085 287.068V287.048C99.2085 286.8 99.1384 286.608 98.9982 286.472C98.86 286.335 98.6535 286.267 98.3789 286.267C98.0929 286.267 97.8675 286.33 97.7028 286.457C97.5399 286.582 97.4272 286.722 97.3647 286.875L96.5664 286.693C96.6611 286.428 96.7994 286.214 96.9812 286.051C97.1649 285.886 97.3761 285.767 97.6147 285.693C97.8533 285.617 98.1043 285.58 98.3675 285.58C98.5418 285.58 98.7264 285.6 98.9215 285.642C99.1185 285.682 99.3022 285.756 99.4727 285.864C99.645 285.972 99.7861 286.126 99.896 286.327C100.006 286.526 100.061 286.784 100.061 287.102V290H99.2312V289.403H99.1971C99.1422 289.513 99.0598 289.621 98.9499 289.727C98.8401 289.833 98.699 289.921 98.5266 289.991C98.3543 290.062 98.1478 290.097 97.9073 290.097ZM98.092 289.415C98.3268 289.415 98.5276 289.368 98.6942 289.276C98.8628 289.183 98.9906 289.062 99.0778 288.912C99.1668 288.76 99.2113 288.598 99.2113 288.426V287.864C99.181 287.894 99.1223 287.922 99.0352 287.949C98.9499 287.973 98.8524 287.995 98.7425 288.014C98.6327 288.031 98.5257 288.047 98.4215 288.062C98.3174 288.076 98.2302 288.087 98.1602 288.097C97.9954 288.117 97.8448 288.152 97.7085 288.202C97.574 288.251 97.466 288.322 97.3846 288.415C97.305 288.506 97.2653 288.627 97.2653 288.778C97.2653 288.989 97.3429 289.148 97.4982 289.256C97.6535 289.362 97.8514 289.415 98.092 289.415ZM102.042 287.409V290H101.192V285.636H102.007V286.347H102.061C102.162 286.116 102.319 285.93 102.533 285.79C102.749 285.65 103.021 285.58 103.348 285.58C103.646 285.58 103.906 285.642 104.13 285.767C104.353 285.89 104.526 286.074 104.65 286.318C104.773 286.562 104.834 286.865 104.834 287.224V290H103.985V287.327C103.985 287.01 103.902 286.763 103.738 286.585C103.573 286.405 103.346 286.315 103.059 286.315C102.862 286.315 102.686 286.358 102.533 286.443C102.382 286.528 102.261 286.653 102.172 286.818C102.085 286.981 102.042 287.178 102.042 287.409ZM105.973 290V285.636H106.823V290H105.973ZM106.402 284.963C106.255 284.963 106.128 284.914 106.022 284.815C105.917 284.715 105.865 284.596 105.865 284.457C105.865 284.317 105.917 284.198 106.022 284.099C106.128 283.999 106.255 283.949 106.402 283.949C106.55 283.949 106.676 283.999 106.78 284.099C106.886 284.198 106.939 284.317 106.939 284.457C106.939 284.596 106.886 284.715 106.78 284.815C106.676 284.914 106.55 284.963 106.402 284.963ZM107.875 290V289.418L110.238 286.415V286.375H107.951V285.636H111.298V286.256L109.025 289.222V289.261H111.377V290H107.875ZM113.65 290.097C113.373 290.097 113.123 290.045 112.9 289.943C112.676 289.839 112.499 289.688 112.368 289.491C112.239 289.295 112.175 289.053 112.175 288.767C112.175 288.521 112.222 288.318 112.317 288.159C112.412 288 112.54 287.874 112.701 287.781C112.862 287.688 113.042 287.618 113.24 287.571C113.439 287.524 113.642 287.488 113.848 287.463C114.11 287.433 114.322 287.408 114.485 287.389C114.648 287.368 114.766 287.335 114.84 287.29C114.914 287.244 114.951 287.17 114.951 287.068V287.048C114.951 286.8 114.881 286.608 114.74 286.472C114.602 286.335 114.396 286.267 114.121 286.267C113.835 286.267 113.61 286.33 113.445 286.457C113.282 286.582 113.169 286.722 113.107 286.875L112.309 286.693C112.403 286.428 112.542 286.214 112.723 286.051C112.907 285.886 113.118 285.767 113.357 285.693C113.596 285.617 113.846 285.58 114.11 285.58C114.284 285.58 114.469 285.6 114.664 285.642C114.861 285.682 115.044 285.756 115.215 285.864C115.387 285.972 115.528 286.126 115.638 286.327C115.748 286.526 115.803 286.784 115.803 287.102V290H114.973V289.403H114.939C114.884 289.513 114.802 289.621 114.692 289.727C114.582 289.833 114.441 289.921 114.269 289.991C114.096 290.062 113.89 290.097 113.65 290.097ZM113.834 289.415C114.069 289.415 114.27 289.368 114.436 289.276C114.605 289.183 114.733 289.062 114.82 288.912C114.909 288.76 114.953 288.598 114.953 288.426V287.864C114.923 287.894 114.864 287.922 114.777 287.949C114.692 287.973 114.595 287.995 114.485 288.014C114.375 288.031 114.268 288.047 114.164 288.062C114.06 288.076 113.972 288.087 113.902 288.097C113.738 288.117 113.587 288.152 113.451 288.202C113.316 288.251 113.208 288.322 113.127 288.415C113.047 288.506 113.007 288.627 113.007 288.778C113.007 288.989 113.085 289.148 113.24 289.256C113.396 289.362 113.594 289.415 113.834 289.415ZM118.971 285.636V286.318H116.588V285.636H118.971ZM117.227 284.591H118.076V288.719C118.076 288.884 118.101 289.008 118.15 289.091C118.199 289.172 118.263 289.228 118.341 289.259C118.42 289.287 118.506 289.301 118.599 289.301C118.667 289.301 118.727 289.296 118.778 289.287C118.829 289.277 118.869 289.27 118.897 289.264L119.051 289.966C119.002 289.985 118.931 290.004 118.841 290.023C118.75 290.044 118.636 290.055 118.5 290.057C118.276 290.061 118.068 290.021 117.875 289.938C117.681 289.854 117.525 289.725 117.406 289.551C117.287 289.377 117.227 289.158 117.227 288.895V284.591ZM119.911 290V285.636H120.76V290H119.911ZM120.34 284.963C120.192 284.963 120.065 284.914 119.959 284.815C119.855 284.715 119.803 284.596 119.803 284.457C119.803 284.317 119.855 284.198 119.959 284.099C120.065 283.999 120.192 283.949 120.34 283.949C120.488 283.949 120.614 283.999 120.718 284.099C120.824 284.198 120.877 284.317 120.877 284.457C120.877 284.596 120.824 284.715 120.718 284.815C120.614 284.914 120.488 284.963 120.34 284.963ZM123.741 290.088C123.332 290.088 122.975 289.994 122.67 289.807C122.365 289.619 122.128 289.357 121.96 289.02C121.791 288.683 121.707 288.289 121.707 287.838C121.707 287.385 121.791 286.99 121.96 286.651C122.128 286.312 122.365 286.048 122.67 285.861C122.975 285.673 123.332 285.58 123.741 285.58C124.15 285.58 124.507 285.673 124.812 285.861C125.117 286.048 125.354 286.312 125.522 286.651C125.691 286.99 125.775 287.385 125.775 287.838C125.775 288.289 125.691 288.683 125.522 289.02C125.354 289.357 125.117 289.619 124.812 289.807C124.507 289.994 124.15 290.088 123.741 290.088ZM123.744 289.375C124.009 289.375 124.229 289.305 124.403 289.165C124.577 289.025 124.706 288.838 124.789 288.605C124.875 288.372 124.917 288.116 124.917 287.835C124.917 287.557 124.875 287.301 124.789 287.068C124.706 286.833 124.577 286.645 124.403 286.503C124.229 286.361 124.009 286.29 123.744 286.29C123.477 286.29 123.255 286.361 123.079 286.503C122.905 286.645 122.775 286.833 122.69 287.068C122.607 287.301 122.565 287.557 122.565 287.835C122.565 288.116 122.607 288.372 122.69 288.605C122.775 288.838 122.905 289.025 123.079 289.165C123.255 289.305 123.477 289.375 123.744 289.375ZM127.573 287.409V290H126.723V285.636H127.539V286.347H127.593C127.693 286.116 127.85 285.93 128.064 285.79C128.28 285.65 128.552 285.58 128.88 285.58C129.177 285.58 129.437 285.642 129.661 285.767C129.884 285.89 130.058 286.074 130.181 286.318C130.304 286.562 130.365 286.865 130.365 287.224V290H129.516V287.327C129.516 287.01 129.434 286.763 129.269 286.585C129.104 286.405 128.878 286.315 128.59 286.315C128.393 286.315 128.218 286.358 128.064 286.443C127.913 286.528 127.792 286.653 127.703 286.818C127.616 286.981 127.573 287.178 127.573 287.409Z" fill="#CBD5E1"/>
<rect x="173.5" y="44.5" width="54" height="17" rx="8.5" fill="#1B2537"/>
<rect x="173.5" y="44.5" width="54" height="17" rx="8.5" fill="#1E293B" fill-opacity="0.32"/>
<rect x="173.5" y="44.5" width="54" height="17" rx="8.5" stroke="url(#paint29_angular_499_2)"/>
<path d="M193.76 50.1818H194.64V54.0085C194.64 54.4157 194.545 54.7765 194.353 55.0909C194.162 55.4034 193.893 55.6496 193.547 55.8295C193.2 56.0076 192.794 56.0966 192.328 56.0966C191.864 56.0966 191.458 56.0076 191.112 55.8295C190.765 55.6496 190.496 55.4034 190.305 55.0909C190.114 54.7765 190.018 54.4157 190.018 54.0085V50.1818H190.896V53.9375C190.896 54.2008 190.954 54.4347 191.069 54.6392C191.187 54.8438 191.352 55.0047 191.566 55.1222C191.78 55.2377 192.034 55.2955 192.328 55.2955C192.623 55.2955 192.878 55.2377 193.092 55.1222C193.308 55.0047 193.473 54.8438 193.586 54.6392C193.702 54.4347 193.76 54.2008 193.76 53.9375V50.1818ZM199.118 52.7017L198.348 52.8381C198.316 52.7396 198.265 52.6458 198.195 52.5568C198.127 52.4678 198.034 52.3949 197.917 52.3381C197.799 52.2812 197.652 52.2528 197.476 52.2528C197.236 52.2528 197.035 52.3068 196.874 52.4148C196.713 52.5208 196.632 52.6581 196.632 52.8267C196.632 52.9725 196.686 53.09 196.794 53.179C196.902 53.268 197.077 53.3409 197.317 53.3977L198.01 53.5568C198.412 53.6496 198.711 53.7926 198.908 53.9858C199.105 54.179 199.203 54.4299 199.203 54.7386C199.203 55 199.128 55.233 198.976 55.4375C198.827 55.6402 198.617 55.7992 198.348 55.9148C198.081 56.0303 197.772 56.0881 197.419 56.0881C196.931 56.0881 196.532 55.9839 196.223 55.7756C195.915 55.5653 195.725 55.267 195.655 54.8807L196.476 54.7557C196.527 54.9697 196.632 55.1316 196.792 55.2415C196.951 55.3494 197.158 55.4034 197.414 55.4034C197.692 55.4034 197.915 55.3456 198.081 55.2301C198.248 55.1127 198.331 54.9697 198.331 54.8011C198.331 54.6648 198.28 54.5502 198.178 54.4574C198.078 54.3646 197.923 54.2945 197.715 54.2472L196.976 54.0852C196.569 53.9924 196.268 53.8447 196.073 53.642C195.88 53.4394 195.783 53.1828 195.783 52.8722C195.783 52.6146 195.855 52.3892 195.999 52.196C196.143 52.0028 196.342 51.8523 196.596 51.7443C196.849 51.6345 197.14 51.5795 197.468 51.5795C197.939 51.5795 198.31 51.6818 198.581 51.8864C198.852 52.089 199.031 52.3608 199.118 52.7017ZM202.018 56.0881C201.588 56.0881 201.218 55.9962 200.907 55.8125C200.599 55.6269 200.36 55.3665 200.191 55.0312C200.025 54.6941 199.941 54.2992 199.941 53.8466C199.941 53.3996 200.025 53.0057 200.191 52.6648C200.36 52.3239 200.595 52.0578 200.896 51.8665C201.199 51.6752 201.553 51.5795 201.958 51.5795C202.205 51.5795 202.443 51.6203 202.674 51.7017C202.905 51.7831 203.113 51.911 203.297 52.0852C203.48 52.2595 203.625 52.4858 203.731 52.7642C203.837 53.0407 203.89 53.3769 203.89 53.7727V54.0739H200.422V53.4375H203.058C203.058 53.214 203.012 53.0161 202.922 52.8438C202.831 52.6695 202.703 52.5322 202.538 52.4318C202.375 52.3314 202.184 52.2812 201.964 52.2812C201.725 52.2812 201.517 52.34 201.339 52.4574C201.163 52.5729 201.027 52.7244 200.93 52.9119C200.835 53.0975 200.788 53.2992 200.788 53.517V54.0142C200.788 54.3059 200.839 54.554 200.941 54.7585C201.046 54.9631 201.19 55.1193 201.376 55.2273C201.562 55.3333 201.779 55.3864 202.027 55.3864C202.188 55.3864 202.334 55.3636 202.467 55.3182C202.6 55.2708 202.714 55.2008 202.811 55.108C202.907 55.0152 202.981 54.9006 203.032 54.7642L203.836 54.9091C203.772 55.1458 203.656 55.3532 203.49 55.5312C203.325 55.7074 203.118 55.8447 202.868 55.9432C202.619 56.0398 202.336 56.0881 202.018 56.0881ZM204.833 56V51.6364H205.654V52.3295H205.699C205.779 52.0947 205.919 51.91 206.12 51.7756C206.322 51.6392 206.551 51.571 206.807 51.571C206.86 51.571 206.923 51.5729 206.995 51.5767C207.069 51.5805 207.126 51.5852 207.168 51.5909V52.4034C207.134 52.3939 207.073 52.3835 206.986 52.3722C206.899 52.3589 206.812 52.3523 206.725 52.3523C206.524 52.3523 206.345 52.3949 206.188 52.4801C206.033 52.5634 205.909 52.6799 205.819 52.8295C205.728 52.9773 205.682 53.1458 205.682 53.3352V56H204.833ZM211.173 52.7017L210.403 52.8381C210.371 52.7396 210.32 52.6458 210.25 52.5568C210.181 52.4678 210.089 52.3949 209.971 52.3381C209.854 52.2812 209.707 52.2528 209.531 52.2528C209.29 52.2528 209.09 52.3068 208.929 52.4148C208.768 52.5208 208.687 52.6581 208.687 52.8267C208.687 52.9725 208.741 53.09 208.849 53.179C208.957 53.268 209.131 53.3409 209.372 53.3977L210.065 53.5568C210.467 53.6496 210.766 53.7926 210.963 53.9858C211.16 54.179 211.258 54.4299 211.258 54.7386C211.258 55 211.182 55.233 211.031 55.4375C210.881 55.6402 210.672 55.7992 210.403 55.9148C210.136 56.0303 209.826 56.0881 209.474 56.0881C208.985 56.0881 208.587 55.9839 208.278 55.7756C207.969 55.5653 207.78 55.267 207.71 54.8807L208.531 54.7557C208.582 54.9697 208.687 55.1316 208.846 55.2415C209.005 55.3494 209.213 55.4034 209.468 55.4034C209.747 55.4034 209.969 55.3456 210.136 55.2301C210.303 55.1127 210.386 54.9697 210.386 54.8011C210.386 54.6648 210.335 54.5502 210.233 54.4574C210.132 54.3646 209.978 54.2945 209.77 54.2472L209.031 54.0852C208.624 53.9924 208.323 53.8447 208.127 53.642C207.934 53.4394 207.838 53.1828 207.838 52.8722C207.838 52.6146 207.91 52.3892 208.054 52.196C208.198 52.0028 208.396 51.8523 208.65 51.7443C208.904 51.6345 209.195 51.5795 209.522 51.5795C209.994 51.5795 210.365 51.6818 210.636 51.8864C210.907 52.089 211.086 52.3608 211.173 52.7017Z" fill="#CBD5E1"/>
<rect x="308.5" y="211.5" width="75" height="17" rx="8.5" fill="#1A2436"/>
<rect x="308.5" y="211.5" width="75" height="17" rx="8.5" fill="black" fill-opacity="0.2"/>
<rect x="308.5" y="211.5" width="75" height="17" rx="8.5" stroke="url(#paint30_angular_499_2)"/>
<path d="M326.706 223H324.823V217.182H326.766C327.336 217.182 327.826 217.298 328.235 217.531C328.644 217.762 328.957 218.095 329.175 218.528C329.395 218.96 329.505 219.478 329.505 220.082C329.505 220.688 329.394 221.209 329.172 221.645C328.953 222.08 328.634 222.416 328.218 222.651C327.801 222.884 327.297 223 326.706 223ZM325.701 222.233H326.658C327.101 222.233 327.47 222.15 327.763 221.983C328.057 221.814 328.276 221.571 328.422 221.253C328.568 220.933 328.641 220.543 328.641 220.082C328.641 219.626 328.568 219.239 328.422 218.92C328.278 218.602 328.063 218.361 327.777 218.196C327.491 218.031 327.136 217.949 326.712 217.949H325.701V222.233ZM332.366 223.088C331.957 223.088 331.6 222.994 331.295 222.807C330.99 222.619 330.753 222.357 330.585 222.02C330.416 221.683 330.332 221.289 330.332 220.838C330.332 220.385 330.416 219.99 330.585 219.651C330.753 219.312 330.99 219.048 331.295 218.861C331.6 218.673 331.957 218.58 332.366 218.58C332.775 218.58 333.132 218.673 333.437 218.861C333.742 219.048 333.979 219.312 334.147 219.651C334.316 219.99 334.4 220.385 334.4 220.838C334.4 221.289 334.316 221.683 334.147 222.02C333.979 222.357 333.742 222.619 333.437 222.807C333.132 222.994 332.775 223.088 332.366 223.088ZM332.369 222.375C332.634 222.375 332.854 222.305 333.028 222.165C333.202 222.025 333.331 221.838 333.414 221.605C333.5 221.372 333.542 221.116 333.542 220.835C333.542 220.557 333.5 220.301 333.414 220.068C333.331 219.833 333.202 219.645 333.028 219.503C332.854 219.361 332.634 219.29 332.369 219.29C332.102 219.29 331.88 219.361 331.704 219.503C331.53 219.645 331.4 219.833 331.315 220.068C331.232 220.301 331.19 220.557 331.19 220.835C331.19 221.116 331.232 221.372 331.315 221.605C331.4 221.838 331.53 222.025 331.704 222.165C331.88 222.305 332.102 222.375 332.369 222.375ZM337.186 223.088C336.764 223.088 336.4 222.992 336.096 222.801C335.792 222.608 335.56 222.342 335.397 222.003C335.234 221.664 335.152 221.276 335.152 220.838C335.152 220.395 335.236 220.004 335.402 219.665C335.569 219.324 335.804 219.058 336.107 218.866C336.41 218.675 336.767 218.58 337.178 218.58C337.509 218.58 337.805 218.641 338.064 218.764C338.324 218.885 338.533 219.056 338.692 219.276C338.853 219.495 338.949 219.752 338.979 220.045H338.152C338.107 219.841 338.003 219.665 337.84 219.517C337.679 219.369 337.463 219.295 337.192 219.295C336.955 219.295 336.748 219.358 336.57 219.483C336.394 219.606 336.257 219.782 336.158 220.011C336.06 220.239 336.01 220.508 336.01 220.818C336.01 221.136 336.059 221.411 336.155 221.642C336.252 221.873 336.388 222.052 336.564 222.179C336.742 222.306 336.952 222.369 337.192 222.369C337.353 222.369 337.499 222.34 337.63 222.281C337.762 222.221 337.873 222.134 337.962 222.023C338.053 221.911 338.116 221.777 338.152 221.619H338.979C338.949 221.902 338.857 222.153 338.703 222.375C338.55 222.597 338.345 222.771 338.087 222.898C337.831 223.025 337.531 223.088 337.186 223.088ZM342.652 221.19V218.636H343.504V223H342.669V222.244H342.623C342.523 222.477 342.362 222.671 342.14 222.827C341.921 222.98 341.647 223.057 341.319 223.057C341.039 223.057 340.791 222.995 340.575 222.872C340.361 222.747 340.192 222.562 340.069 222.318C339.948 222.074 339.887 221.772 339.887 221.412V218.636H340.737V221.31C340.737 221.607 340.819 221.844 340.984 222.02C341.149 222.196 341.363 222.284 341.626 222.284C341.785 222.284 341.943 222.244 342.1 222.165C342.26 222.085 342.391 221.965 342.495 221.804C342.601 221.643 342.654 221.438 342.652 221.19ZM344.645 223V218.636H345.461V219.347H345.515C345.605 219.106 345.754 218.919 345.961 218.784C346.167 218.648 346.414 218.58 346.702 218.58C346.994 218.58 347.238 218.648 347.435 218.784C347.634 218.92 347.781 219.108 347.875 219.347H347.921C348.025 219.114 348.191 218.928 348.418 218.79C348.645 218.65 348.916 218.58 349.23 218.58C349.626 218.58 349.949 218.704 350.199 218.952C350.451 219.2 350.577 219.574 350.577 220.074V223H349.728V220.153C349.728 219.858 349.647 219.644 349.486 219.511C349.325 219.379 349.133 219.312 348.909 219.312C348.633 219.312 348.418 219.398 348.265 219.568C348.111 219.737 348.034 219.954 348.034 220.219V223H347.188V220.099C347.188 219.863 347.114 219.672 346.966 219.528C346.819 219.384 346.626 219.312 346.39 219.312C346.229 219.312 346.08 219.355 345.944 219.44C345.809 219.524 345.7 219.64 345.617 219.79C345.535 219.939 345.495 220.113 345.495 220.31V223H344.645ZM353.596 223.088C353.166 223.088 352.796 222.996 352.485 222.812C352.177 222.627 351.938 222.366 351.77 222.031C351.603 221.694 351.52 221.299 351.52 220.847C351.52 220.4 351.603 220.006 351.77 219.665C351.938 219.324 352.173 219.058 352.474 218.866C352.777 218.675 353.131 218.58 353.537 218.58C353.783 218.58 354.021 218.62 354.252 218.702C354.484 218.783 354.691 218.911 354.875 219.085C355.058 219.259 355.203 219.486 355.309 219.764C355.415 220.041 355.468 220.377 355.468 220.773V221.074H352V220.438H354.636C354.636 220.214 354.591 220.016 354.5 219.844C354.409 219.67 354.281 219.532 354.116 219.432C353.953 219.331 353.762 219.281 353.542 219.281C353.304 219.281 353.095 219.34 352.917 219.457C352.741 219.573 352.605 219.724 352.508 219.912C352.413 220.098 352.366 220.299 352.366 220.517V221.014C352.366 221.306 352.417 221.554 352.52 221.759C352.624 221.963 352.769 222.119 352.954 222.227C353.14 222.333 353.357 222.386 353.605 222.386C353.766 222.386 353.913 222.364 354.045 222.318C354.178 222.271 354.292 222.201 354.389 222.108C354.485 222.015 354.559 221.901 354.61 221.764L355.414 221.909C355.35 222.146 355.234 222.353 355.068 222.531C354.903 222.707 354.696 222.845 354.446 222.943C354.198 223.04 353.914 223.088 353.596 223.088ZM357.26 220.409V223H356.411V218.636H357.226V219.347H357.28C357.381 219.116 357.538 218.93 357.752 218.79C357.968 218.65 358.239 218.58 358.567 218.58C358.864 218.58 359.125 218.642 359.348 218.767C359.572 218.89 359.745 219.074 359.868 219.318C359.991 219.562 360.053 219.865 360.053 220.224V223H359.203V220.327C359.203 220.01 359.121 219.763 358.956 219.585C358.792 219.405 358.565 219.315 358.277 219.315C358.08 219.315 357.905 219.358 357.752 219.443C357.6 219.528 357.48 219.653 357.391 219.818C357.304 219.981 357.26 220.178 357.26 220.409ZM363.229 218.636V219.318H360.846V218.636H363.229ZM361.485 217.591H362.334V221.719C362.334 221.884 362.359 222.008 362.408 222.091C362.457 222.172 362.521 222.228 362.598 222.259C362.678 222.287 362.764 222.301 362.857 222.301C362.925 222.301 362.985 222.296 363.036 222.287C363.087 222.277 363.127 222.27 363.155 222.264L363.309 222.966C363.259 222.985 363.189 223.004 363.098 223.023C363.007 223.044 362.894 223.055 362.757 223.057C362.534 223.061 362.326 223.021 362.132 222.938C361.939 222.854 361.783 222.725 361.664 222.551C361.544 222.377 361.485 222.158 361.485 221.895V217.591ZM367.368 219.702L366.598 219.838C366.566 219.74 366.515 219.646 366.445 219.557C366.377 219.468 366.284 219.395 366.167 219.338C366.049 219.281 365.902 219.253 365.726 219.253C365.486 219.253 365.285 219.307 365.124 219.415C364.963 219.521 364.882 219.658 364.882 219.827C364.882 219.973 364.936 220.09 365.044 220.179C365.152 220.268 365.327 220.341 365.567 220.398L366.26 220.557C366.662 220.65 366.961 220.793 367.158 220.986C367.355 221.179 367.453 221.43 367.453 221.739C367.453 222 367.378 222.233 367.226 222.438C367.077 222.64 366.867 222.799 366.598 222.915C366.331 223.03 366.022 223.088 365.669 223.088C365.181 223.088 364.782 222.984 364.473 222.776C364.165 222.565 363.975 222.267 363.905 221.881L364.726 221.756C364.777 221.97 364.882 222.132 365.042 222.241C365.201 222.349 365.408 222.403 365.664 222.403C365.942 222.403 366.165 222.346 366.331 222.23C366.498 222.113 366.581 221.97 366.581 221.801C366.581 221.665 366.53 221.55 366.428 221.457C366.328 221.365 366.173 221.295 365.965 221.247L365.226 221.085C364.819 220.992 364.518 220.845 364.323 220.642C364.13 220.439 364.033 220.183 364.033 219.872C364.033 219.615 364.105 219.389 364.249 219.196C364.393 219.003 364.592 218.852 364.846 218.744C365.099 218.634 365.39 218.58 365.718 218.58C366.189 218.58 366.56 218.682 366.831 218.886C367.102 219.089 367.281 219.361 367.368 219.702Z" fill="#CBD5E1"/>
<defs>
<filter id="filter0_f_499_2" x="64.7113" y="54.7113" width="49.3195" height="19.0207" filterUnits="userSpaceOnUse" color-interpolation-filters="sRGB">
<feFlood flood-opacity="0" result="BackgroundImageFix"/>
<feBlend mode="normal" in="SourceGraphic" in2="BackgroundImageFix" result="shape"/>
<feGaussianBlur stdDeviation="2.14433" result="effect1_foregroundBlur_499_2"/>
</filter>
<filter id="filter1_d_499_2" x="62.567" y="52.86" width="22.5144" height="22.5154" filterUnits="userSpaceOnUse" color-interpolation-filters="sRGB">
<feFlood flood-opacity="0" result="BackgroundImageFix"/>
<feColorMatrix in="SourceAlpha" type="matrix" values="0 0 0 0 0 0 0 0 0 0 0 0 0 0 0 0 0 0 127 0" result="hardAlpha"/>
<feOffset/>
<feGaussianBlur stdDeviation="3.2165"/>
<feComposite in2="hardAlpha" operator="out"/>
<feColorMatrix type="matrix" values="0 0 0 0 0.388235 0 0 0 0 0.4 0 0 0 0 0.945098 0 0 0 1 0"/>
<feBlend mode="normal" in2="BackgroundImageFix" result="effect1_dropShadow_499_2"/>
<feBlend mode="normal" in="SourceGraphic" in2="effect1_dropShadow_499_2" result="shape"/>
</filter>
<filter id="filter2_f_499_2" x="46.9473" y="25.9473" width="123.105" height="68.1054" filterUnits="userSpaceOnUse" color-interpolation-filters="sRGB">
<feFlood flood-opacity="0" result="BackgroundImageFix"/>
<feBlend mode="normal" in="SourceGraphic" in2="BackgroundImageFix" result="shape"/>
<feGaussianBlur stdDeviation="3.02635" result="effect1_foregroundBlur_499_2"/>
</filter>
<filter id="filter3_f_499_2" x="215.447" y="25.4473" width="158.605" height="65.6054" filterUnits="userSpaceOnUse" color-interpolation-filters="sRGB">
<feFlood flood-opacity="0" result="BackgroundImageFix"/>
<feBlend mode="normal" in="SourceGraphic" in2="BackgroundImageFix" result="shape"/>
<feGaussianBlur stdDeviation="3.02635" result="effect1_foregroundBlur_499_2"/>
</filter>
<filter id="filter4_f_499_2" x="356.711" y="24.7113" width="19.0226" height="49.3195" filterUnits="userSpaceOnUse" color-interpolation-filters="sRGB">
<feFlood flood-opacity="0" result="BackgroundImageFix"/>
<feBlend mode="normal" in="SourceGraphic" in2="BackgroundImageFix" result="shape"/>
<feGaussianBlur stdDeviation="2.14433" result="effect1_foregroundBlur_499_2"/>
</filter>
<filter id="filter5_d_499_2" x="354.864" y="53.6598" width="22.5144" height="22.5154" filterUnits="userSpaceOnUse" color-interpolation-filters="sRGB">
<feFlood flood-opacity="0" result="BackgroundImageFix"/>
<feColorMatrix in="SourceAlpha" type="matrix" values="0 0 0 0 0 0 0 0 0 0 0 0 0 0 0 0 0 0 127 0" result="hardAlpha"/>
<feOffset/>
<feGaussianBlur stdDeviation="3.2165"/>
<feComposite in2="hardAlpha" operator="out"/>
<feColorMatrix type="matrix" values="0 0 0 0 0.388235 0 0 0 0 0.4 0 0 0 0 0.945098 0 0 0 1 0"/>
<feBlend mode="normal" in2="BackgroundImageFix" result="effect1_dropShadow_499_2"/>
<feBlend mode="normal" in="SourceGraphic" in2="effect1_dropShadow_499_2" result="shape"/>
</filter>
<filter id="filter6_f_499_2" x="182.947" y="56.9473" width="51.1054" height="108.105" filterUnits="userSpaceOnUse" color-interpolation-filters="sRGB">
<feFlood flood-opacity="0" result="BackgroundImageFix"/>
<feBlend mode="normal" in="SourceGraphic" in2="BackgroundImageFix" result="shape"/>
<feGaussianBlur stdDeviation="3.02635" result="effect1_foregroundBlur_499_2"/>
</filter>
<filter id="filter7_f_499_2" x="181.711" y="71.7113" width="19.0226" height="49.3195" filterUnits="userSpaceOnUse" color-interpolation-filters="sRGB">
<feFlood flood-opacity="0" result="BackgroundImageFix"/>
<feBlend mode="normal" in="SourceGraphic" in2="BackgroundImageFix" result="shape"/>
<feGaussianBlur stdDeviation="2.14433" result="effect1_foregroundBlur_499_2"/>
</filter>
<filter id="filter8_d_499_2" x="179.864" y="100.66" width="22.5144" height="22.5154" filterUnits="userSpaceOnUse" color-interpolation-filters="sRGB">
<feFlood flood-opacity="0" result="BackgroundImageFix"/>
<feColorMatrix in="SourceAlpha" type="matrix" values="0 0 0 0 0 0 0 0 0 0 0 0 0 0 0 0 0 0 127 0" result="hardAlpha"/>
<feOffset/>
<feGaussianBlur stdDeviation="3.2165"/>
<feComposite in2="hardAlpha" operator="out"/>
<feColorMatrix type="matrix" values="0 0 0 0 0.388235 0 0 0 0 0.4 0 0 0 0 0.945098 0 0 0 1 0"/>
<feBlend mode="normal" in2="BackgroundImageFix" result="effect1_dropShadow_499_2"/>
<feBlend mode="normal" in="SourceGraphic" in2="effect1_dropShadow_499_2" result="shape"/>
</filter>
<filter id="filter9_f_499_2" x="46.9473" y="114.947" width="91.1054" height="113.105" filterUnits="userSpaceOnUse" color-interpolation-filters="sRGB">
<feFlood flood-opacity="0" result="BackgroundImageFix"/>
<feBlend mode="normal" in="SourceGraphic" in2="BackgroundImageFix" result="shape"/>
<feGaussianBlur stdDeviation="3.02635" result="effect1_foregroundBlur_499_2"/>
</filter>
<filter id="filter10_f_499_2" x="45.7113" y="126.711" width="19.0226" height="49.3195" filterUnits="userSpaceOnUse" color-interpolation-filters="sRGB">
<feFlood flood-opacity="0" result="BackgroundImageFix"/>
<feBlend mode="normal" in="SourceGraphic" in2="BackgroundImageFix" result="shape"/>
<feGaussianBlur stdDeviation="2.14433" result="effect1_foregroundBlur_499_2"/>
</filter>
<filter id="filter11_d_499_2" x="43.8639" y="155.66" width="22.5144" height="22.5154" filterUnits="userSpaceOnUse" color-interpolation-filters="sRGB">
<feFlood flood-opacity="0" result="BackgroundImageFix"/>
<feColorMatrix in="SourceAlpha" type="matrix" values="0 0 0 0 0 0 0 0 0 0 0 0 0 0 0 0 0 0 127 0" result="hardAlpha"/>
<feOffset/>
<feGaussianBlur stdDeviation="3.2165"/>
<feComposite in2="hardAlpha" operator="out"/>
<feColorMatrix type="matrix" values="0 0 0 0 0.658824 0 0 0 0 0.333333 0 0 0 0 0.968627 0 0 0 1 0"/>
<feBlend mode="normal" in2="BackgroundImageFix" result="effect1_dropShadow_499_2"/>
<feBlend mode="normal" in="SourceGraphic" in2="effect1_dropShadow_499_2" result="shape"/>
</filter>
<filter id="filter12_f_499_2" x="168.711" y="245.711" width="49.3195" height="19.0207" filterUnits="userSpaceOnUse" color-interpolation-filters="sRGB">
<feFlood flood-opacity="0" result="BackgroundImageFix"/>
<feBlend mode="normal" in="SourceGraphic" in2="BackgroundImageFix" result="shape"/>
<feGaussianBlur stdDeviation="2.14433" result="effect1_foregroundBlur_499_2"/>
</filter>
<filter id="filter13_d_499_2" x="166.567" y="243.86" width="22.5144" height="22.5154" filterUnits="userSpaceOnUse" color-interpolation-filters="sRGB">
<feFlood flood-opacity="0" result="BackgroundImageFix"/>
<feColorMatrix in="SourceAlpha" type="matrix" values="0 0 0 0 0 0 0 0 0 0 0 0 0 0 0 0 0 0 127 0" result="hardAlpha"/>
<feOffset/>
<feGaussianBlur stdDeviation="3.2165"/>
<feComposite in2="hardAlpha" operator="out"/>
<feColorMatrix type="matrix" values="0 0 0 0 0.658824 0 0 0 0 0.333333 0 0 0 0 0.968627 0 0 0 1 0"/>
<feBlend mode="normal" in2="BackgroundImageFix" result="effect1_dropShadow_499_2"/>
<feBlend mode="normal" in="SourceGraphic" in2="effect1_dropShadow_499_2" result="shape"/>
</filter>
<filter id="filter14_f_499_2" x="321.711" y="155.711" width="49.3195" height="19.0207" filterUnits="userSpaceOnUse" color-interpolation-filters="sRGB">
<feFlood flood-opacity="0" result="BackgroundImageFix"/>
<feBlend mode="normal" in="SourceGraphic" in2="BackgroundImageFix" result="shape"/>
<feGaussianBlur stdDeviation="2.14433" result="effect1_foregroundBlur_499_2"/>
</filter>
<filter id="filter15_d_499_2" x="319.567" y="153.86" width="22.5144" height="22.5154" filterUnits="userSpaceOnUse" color-interpolation-filters="sRGB">
<feFlood flood-opacity="0" result="BackgroundImageFix"/>
<feColorMatrix in="SourceAlpha" type="matrix" values="0 0 0 0 0 0 0 0 0 0 0 0 0 0 0 0 0 0 127 0" result="hardAlpha"/>
<feOffset/>
<feGaussianBlur stdDeviation="3.2165"/>
<feComposite in2="hardAlpha" operator="out"/>
<feColorMatrix type="matrix" values="0 0 0 0 0.658824 0 0 0 0 0.333333 0 0 0 0 0.968627 0 0 0 1 0"/>
<feBlend mode="normal" in2="BackgroundImageFix" result="effect1_dropShadow_499_2"/>
<feBlend mode="normal" in="SourceGraphic" in2="effect1_dropShadow_499_2" result="shape"/>
</filter>
<filter id="filter16_bd_499_2" x="152.661" y="-5.33851" width="77.6927" height="77.6907" filterUnits="userSpaceOnUse" color-interpolation-filters="sRGB">
<feFlood flood-opacity="0" result="BackgroundImageFix"/>
<feGaussianBlur in="BackgroundImageFix" stdDeviation="4.66926"/>
<feComposite in2="SourceAlpha" operator="in" result="effect1_backgroundBlur_499_2"/>
<feColorMatrix in="SourceAlpha" type="matrix" values="0 0 0 0 0 0 0 0 0 0 0 0 0 0 0 0 0 0 127 0" result="hardAlpha"/>
<feOffset/>
<feGaussianBlur stdDeviation="1.66848"/>
<feComposite in2="hardAlpha" operator="out"/>
<feColorMatrix type="matrix" values="0 0 0 0 0.752941 0 0 0 0 0.517647 0 0 0 0 0.988235 0 0 0 0.34 0"/>
<feBlend mode="normal" in2="effect1_backgroundBlur_499_2" result="effect2_dropShadow_499_2"/>
<feBlend mode="normal" in="SourceGraphic" in2="effect2_dropShadow_499_2" result="shape"/>
</filter>
<filter id="filter17_bd_499_2" x="152.661" y="-5.33851" width="77.6927" height="77.6907" filterUnits="userSpaceOnUse" color-interpolation-filters="sRGB">
<feFlood flood-opacity="0" result="BackgroundImageFix"/>
<feGaussianBlur in="BackgroundImageFix" stdDeviation="4.66926"/>
<feComposite in2="SourceAlpha" operator="in" result="effect1_backgroundBlur_499_2"/>
<feColorMatrix in="SourceAlpha" type="matrix" values="0 0 0 0 0 0 0 0 0 0 0 0 0 0 0 0 0 0 127 0" result="hardAlpha"/>
<feOffset/>
<feGaussianBlur stdDeviation="1.66848"/>
<feComposite in2="hardAlpha" operator="out"/>
<feColorMatrix type="matrix" values="0 0 0 0 0.752941 0 0 0 0 0.517647 0 0 0 0 0.988235 0 0 0 0.34 0"/>
<feBlend mode="normal" in2="effect1_backgroundBlur_499_2" result="effect2_dropShadow_499_2"/>
<feBlend mode="normal" in="SourceGraphic" in2="effect2_dropShadow_499_2" result="shape"/>
</filter>
<filter id="filter18_bd_499_2" x="89.6615" y="213.661" width="77.6927" height="77.6907" filterUnits="userSpaceOnUse" color-interpolation-filters="sRGB">
<feFlood flood-opacity="0" result="BackgroundImageFix"/>
<feGaussianBlur in="BackgroundImageFix" stdDeviation="4.66926"/>
<feComposite in2="SourceAlpha" operator="in" result="effect1_backgroundBlur_499_2"/>
<feColorMatrix in="SourceAlpha" type="matrix" values="0 0 0 0 0 0 0 0 0 0 0 0 0 0 0 0 0 0 127 0" result="hardAlpha"/>
<feOffset/>
<feGaussianBlur stdDeviation="1.66848"/>
<feComposite in2="hardAlpha" operator="out"/>
<feColorMatrix type="matrix" values="0 0 0 0 0.752941 0 0 0 0 0.517647 0 0 0 0 0.988235 0 0 0 0.34 0"/>
<feBlend mode="normal" in2="effect1_backgroundBlur_499_2" result="effect2_dropShadow_499_2"/>
<feBlend mode="normal" in="SourceGraphic" in2="effect2_dropShadow_499_2" result="shape"/>
</filter>
<filter id="filter19_bd_499_2" x="89.6615" y="213.661" width="77.6927" height="77.6907" filterUnits="userSpaceOnUse" color-interpolation-filters="sRGB">
<feFlood flood-opacity="0" result="BackgroundImageFix"/>
<feGaussianBlur in="BackgroundImageFix" stdDeviation="4.66926"/>
<feComposite in2="SourceAlpha" operator="in" result="effect1_backgroundBlur_499_2"/>
<feColorMatrix in="SourceAlpha" type="matrix" values="0 0 0 0 0 0 0 0 0 0 0 0 0 0 0 0 0 0 127 0" result="hardAlpha"/>
<feOffset/>
<feGaussianBlur stdDeviation="1.66848"/>
<feComposite in2="hardAlpha" operator="out"/>
<feColorMatrix type="matrix" values="0 0 0 0 0.752941 0 0 0 0 0.517647 0 0 0 0 0.988235 0 0 0 0.34 0"/>
<feBlend mode="normal" in2="effect1_backgroundBlur_499_2" result="effect2_dropShadow_499_2"/>
<feBlend mode="normal" in="SourceGraphic" in2="effect2_dropShadow_499_2" result="shape"/>
</filter>
<filter id="filter20_bd_499_2" x="277.661" y="203.661" width="77.6927" height="77.6907" filterUnits="userSpaceOnUse" color-interpolation-filters="sRGB">
<feFlood flood-opacity="0" result="BackgroundImageFix"/>
<feGaussianBlur in="BackgroundImageFix" stdDeviation="4.66926"/>
<feComposite in2="SourceAlpha" operator="in" result="effect1_backgroundBlur_499_2"/>
<feColorMatrix in="SourceAlpha" type="matrix" values="0 0 0 0 0 0 0 0 0 0 0 0 0 0 0 0 0 0 127 0" result="hardAlpha"/>
<feOffset/>
<feGaussianBlur stdDeviation="1.66848"/>
<feComposite in2="hardAlpha" operator="out"/>
<feColorMatrix type="matrix" values="0 0 0 0 0.752941 0 0 0 0 0.517647 0 0 0 0 0.988235 0 0 0 0.34 0"/>
<feBlend mode="normal" in2="effect1_backgroundBlur_499_2" result="effect2_dropShadow_499_2"/>
<feBlend mode="normal" in="SourceGraphic" in2="effect2_dropShadow_499_2" result="shape"/>
</filter>
<filter id="filter21_bd_499_2" x="277.661" y="203.661" width="77.6927" height="77.6907" filterUnits="userSpaceOnUse" color-interpolation-filters="sRGB">
<feFlood flood-opacity="0" result="BackgroundImageFix"/>
<feGaussianBlur in="BackgroundImageFix" stdDeviation="4.66926"/>
<feComposite in2="SourceAlpha" operator="in" result="effect1_backgroundBlur_499_2"/>
<feColorMatrix in="SourceAlpha" type="matrix" values="0 0 0 0 0 0 0 0 0 0 0 0 0 0 0 0 0 0 127 0" result="hardAlpha"/>
<feOffset/>
<feGaussianBlur stdDeviation="1.66848"/>
<feComposite in2="hardAlpha" operator="out"/>
<feColorMatrix type="matrix" values="0 0 0 0 0.752941 0 0 0 0 0.517647 0 0 0 0 0.988235 0 0 0 0.34 0"/>
<feBlend mode="normal" in2="effect1_backgroundBlur_499_2" result="effect2_dropShadow_499_2"/>
<feBlend mode="normal" in="SourceGraphic" in2="effect2_dropShadow_499_2" result="shape"/>
</filter>
<filter id="filter22_bd_499_2" x="-6.42581" y="73.5742" width="119.852" height="60.8516" filterUnits="userSpaceOnUse" color-interpolation-filters="sRGB">
<feFlood flood-opacity="0" result="BackgroundImageFix"/>
<feGaussianBlur in="BackgroundImageFix" stdDeviation="7.21291"/>
<feComposite in2="SourceAlpha" operator="in" result="effect1_backgroundBlur_499_2"/>
<feColorMatrix in="SourceAlpha" type="matrix" values="0 0 0 0 0 0 0 0 0 0 0 0 0 0 0 0 0 0 127 0" result="hardAlpha"/>
<feMorphology radius="2.57741" operator="dilate" in="SourceAlpha" result="effect2_dropShadow_499_2"/>
<feOffset/>
<feGaussianBlur stdDeviation="2.57741"/>
<feComposite in2="hardAlpha" operator="out"/>
<feColorMatrix type="matrix" values="0 0 0 0 0.388235 0 0 0 0 0.4 0 0 0 0 0.945098 0 0 0 0.34 0"/>
<feBlend mode="normal" in2="effect1_backgroundBlur_499_2" result="effect2_dropShadow_499_2"/>
<feBlend mode="normal" in="SourceGraphic" in2="effect2_dropShadow_499_2" result="shape"/>
</filter>
<filter id="filter23_bd_499_2" x="307.574" y="70.5742" width="116.852" height="60.8516" filterUnits="userSpaceOnUse" color-interpolation-filters="sRGB">
<feFlood flood-opacity="0" result="BackgroundImageFix"/>
<feGaussianBlur in="BackgroundImageFix" stdDeviation="7.21291"/>
<feComposite in2="SourceAlpha" operator="in" result="effect1_backgroundBlur_499_2"/>
<feColorMatrix in="SourceAlpha" type="matrix" values="0 0 0 0 0 0 0 0 0 0 0 0 0 0 0 0 0 0 127 0" result="hardAlpha"/>
<feMorphology radius="2.57741" operator="dilate" in="SourceAlpha" result="effect2_dropShadow_499_2"/>
<feOffset/>
<feGaussianBlur stdDeviation="2.57741"/>
<feComposite in2="hardAlpha" operator="out"/>
<feColorMatrix type="matrix" values="0 0 0 0 0.388235 0 0 0 0 0.4 0 0 0 0 0.945098 0 0 0 0.34 0"/>
<feBlend mode="normal" in2="effect1_backgroundBlur_499_2" result="effect2_dropShadow_499_2"/>
<feBlend mode="normal" in="SourceGraphic" in2="effect2_dropShadow_499_2" result="shape"/>
</filter>
<filter id="filter24_bd_499_2" x="159.574" y="144.574" width="132.852" height="60.8516" filterUnits="userSpaceOnUse" color-interpolation-filters="sRGB">
<feFlood flood-opacity="0" result="BackgroundImageFix"/>
<feGaussianBlur in="BackgroundImageFix" stdDeviation="7.21291"/>
<feComposite in2="SourceAlpha" operator="in" result="effect1_backgroundBlur_499_2"/>
<feColorMatrix in="SourceAlpha" type="matrix" values="0 0 0 0 0 0 0 0 0 0 0 0 0 0 0 0 0 0 127 0" result="hardAlpha"/>
<feMorphology radius="2.57741" operator="dilate" in="SourceAlpha" result="effect2_dropShadow_499_2"/>
<feOffset/>
<feGaussianBlur stdDeviation="2.57741"/>
<feComposite in2="hardAlpha" operator="out"/>
<feColorMatrix type="matrix" values="0 0 0 0 0.388235 0 0 0 0 0.4 0 0 0 0 0.945098 0 0 0 0.34 0"/>
<feBlend mode="normal" in2="effect1_backgroundBlur_499_2" result="effect2_dropShadow_499_2"/>
<feBlend mode="normal" in="SourceGraphic" in2="effect2_dropShadow_499_2" result="shape"/>
</filter>
<linearGradient id="paint0_linear_499_2" x1="70.6083" y1="64.6605" x2="117.784" y2="64.6605" gradientUnits="userSpaceOnUse">
<stop stop-color="#6366F1"/>
<stop offset="1" stop-color="#6366F1" stop-opacity="0"/>
</linearGradient>
<linearGradient id="paint1_linear_499_2" x1="66.0588" y1="88" x2="65.8278" y2="4.61562" gradientUnits="userSpaceOnUse">
<stop offset="0.0848068" stop-color="#6366F1"/>
<stop offset="1" stop-color="#6366F1" stop-opacity="0"/>
</linearGradient>
<linearGradient id="paint2_linear_499_2" x1="27" y1="60" x2="164" y2="24" gradientUnits="userSpaceOnUse">
<stop offset="0.29251" stop-color="#6366F1"/>
<stop offset="1" stop-color="#6366F1" stop-opacity="0"/>
</linearGradient>
<linearGradient id="paint3_linear_499_2" x1="238.735" y1="85" x2="238.576" y2="5.33785" gradientUnits="userSpaceOnUse">
<stop offset="0.0848068" stop-color="#6366F1"/>
<stop offset="1" stop-color="#6366F1" stop-opacity="0"/>
</linearGradient>
<linearGradient id="paint4_linear_499_2" x1="368" y1="85" x2="267.197" y2="135.724" gradientUnits="userSpaceOnUse">
<stop offset="0.444913" stop-color="#6366F1"/>
<stop offset="1" stop-color="#6366F1" stop-opacity="0"/>
</linearGradient>
<linearGradient id="paint5_linear_499_2" x1="366.662" y1="68.1339" x2="366.662" y2="20.9586" gradientUnits="userSpaceOnUse">
<stop stop-color="#6366F1"/>
<stop offset="1" stop-color="#6366F1" stop-opacity="0"/>
</linearGradient>
<linearGradient id="paint6_linear_499_2" x1="223.412" y1="159" x2="225.343" y2="16.0804" gradientUnits="userSpaceOnUse">
<stop offset="0.0848068" stop-color="#6366F1"/>
<stop offset="1" stop-color="#6366F1" stop-opacity="0"/>
</linearGradient>
<linearGradient id="paint7_linear_499_2" x1="226.5" y1="161" x2="159.104" y2="131.932" gradientUnits="userSpaceOnUse">
<stop offset="0.232708" stop-color="#6366F1"/>
<stop offset="1" stop-color="#6366F1" stop-opacity="0"/>
</linearGradient>
<linearGradient id="paint8_linear_499_2" x1="191.662" y1="115.134" x2="191.662" y2="67.9586" gradientUnits="userSpaceOnUse">
<stop stop-color="#6366F1"/>
<stop offset="1" stop-color="#6366F1" stop-opacity="0"/>
</linearGradient>
<linearGradient id="paint9_linear_499_2" x1="62.2941" y1="222" x2="61.2384" y2="71.6166" gradientUnits="userSpaceOnUse">
<stop offset="0.0848068" stop-color="#A855F7"/>
<stop offset="1" stop-color="#A855F7" stop-opacity="0"/>
</linearGradient>
<linearGradient id="paint10_linear_499_2" x1="132" y1="216" x2="119.139" y2="90.2363" gradientUnits="userSpaceOnUse">
<stop offset="0.29251" stop-color="#A855F7"/>
<stop offset="1" stop-color="#A855F7" stop-opacity="0"/>
</linearGradient>
<linearGradient id="paint11_linear_499_2" x1="55.6624" y1="170.134" x2="55.6624" y2="122.959" gradientUnits="userSpaceOnUse">
<stop stop-color="#A855F7"/>
<stop offset="1" stop-color="#A855F7" stop-opacity="0"/>
</linearGradient>
<linearGradient id="paint12_linear_499_2" x1="159" y1="270.5" x2="246.079" y2="252.616" gradientUnits="userSpaceOnUse">
<stop offset="0.29251" stop-color="#A855F7"/>
<stop offset="1" stop-color="#A855F7" stop-opacity="0"/>
</linearGradient>
<linearGradient id="paint13_linear_499_2" x1="159" y1="270.5" x2="246.079" y2="252.616" gradientUnits="userSpaceOnUse">
<stop offset="0.29251" stop-color="#A855F7"/>
<stop offset="1" stop-color="#A855F7" stop-opacity="0"/>
</linearGradient>
<linearGradient id="paint14_linear_499_2" x1="174.608" y1="255.66" x2="221.784" y2="255.66" gradientUnits="userSpaceOnUse">
<stop stop-color="#A855F7"/>
<stop offset="1" stop-color="#A855F7" stop-opacity="0"/>
</linearGradient>
<linearGradient id="paint15_linear_499_2" x1="316" y1="232.841" x2="383.643" y2="225.717" gradientUnits="userSpaceOnUse">
<stop offset="0.29251" stop-color="#A855F7"/>
<stop offset="1" stop-color="#A855F7" stop-opacity="0"/>
</linearGradient>
<linearGradient id="paint16_linear_499_2" x1="316" y1="232.841" x2="383.643" y2="225.717" gradientUnits="userSpaceOnUse">
<stop offset="0.29251" stop-color="#A855F7"/>
<stop offset="1" stop-color="#A855F7" stop-opacity="0"/>
</linearGradient>
<linearGradient id="paint17_linear_499_2" x1="327.608" y1="165.66" x2="374.784" y2="165.66" gradientUnits="userSpaceOnUse">
<stop stop-color="#A855F7"/>
<stop offset="1" stop-color="#A855F7" stop-opacity="0"/>
</linearGradient>
<linearGradient id="paint18_linear_499_2" x1="191.505" y1="12.3223" x2="191.505" y2="54.6912" gradientUnits="userSpaceOnUse">
<stop stop-color="#10182B"/>
<stop offset="1" stop-color="#10182B" stop-opacity="0"/>
</linearGradient>
<linearGradient id="paint19_linear_499_2" x1="203.455" y1="32.8606" x2="189.224" y2="23.068" gradientUnits="userSpaceOnUse">
<stop stop-color="#F8FAFC" stop-opacity="0.64"/>
<stop offset="0.477764" stop-color="#F8FAFC"/>
<stop offset="1" stop-color="#F8FAFC" stop-opacity="0.64"/>
</linearGradient>
<linearGradient id="paint20_linear_499_2" x1="128.505" y1="231.322" x2="128.505" y2="273.691" gradientUnits="userSpaceOnUse">
<stop stop-color="#10182B"/>
<stop offset="1" stop-color="#10182B" stop-opacity="0"/>
</linearGradient>
<linearGradient id="paint21_linear_499_2" x1="138.03" y1="253.154" x2="124.437" y2="243.688" gradientUnits="userSpaceOnUse">
<stop stop-color="#F8FAFC" stop-opacity="0.64"/>
<stop offset="0.477764" stop-color="#F8FAFC"/>
<stop offset="1" stop-color="#F8FAFC" stop-opacity="0.64"/>
</linearGradient>
<linearGradient id="paint22_linear_499_2" x1="141.509" y1="252.067" x2="128.925" y2="245.936" gradientUnits="userSpaceOnUse">
<stop stop-color="#F8FAFC" stop-opacity="0.64"/>
<stop offset="0.477764" stop-color="#F8FAFC"/>
<stop offset="1" stop-color="#F8FAFC" stop-opacity="0.64"/>
</linearGradient>
<linearGradient id="paint23_linear_499_2" x1="316.505" y1="221.322" x2="316.505" y2="263.691" gradientUnits="userSpaceOnUse">
<stop stop-color="#10182B"/>
<stop offset="1" stop-color="#10182B" stop-opacity="0"/>
</linearGradient>
<linearGradient id="paint24_linear_499_2" x1="330.551" y1="242.067" x2="315.072" y2="230.056" gradientUnits="userSpaceOnUse">
<stop stop-color="#F8FAFC" stop-opacity="0.64"/>
<stop offset="0.477764" stop-color="#F8FAFC"/>
<stop offset="1" stop-color="#F8FAFC" stop-opacity="0.64"/>
</linearGradient>
<linearGradient id="paint25_linear_499_2" x1="53.5" y1="88" x2="53.5" y2="120" gradientUnits="userSpaceOnUse">
<stop stop-color="#6366F1"/>
<stop offset="1" stop-color="#A855F7"/>
</linearGradient>
<linearGradient id="paint26_linear_499_2" x1="366" y1="85" x2="366" y2="117" gradientUnits="userSpaceOnUse">
<stop stop-color="#6366F1"/>
<stop offset="1" stop-color="#A855F7"/>
</linearGradient>
<linearGradient id="paint27_linear_499_2" x1="226" y1="159" x2="226" y2="191" gradientUnits="userSpaceOnUse">
<stop stop-color="#6366F1"/>
<stop offset="1" stop-color="#A855F7"/>
</linearGradient>
<radialGradient id="paint28_angular_499_2" cx="0" cy="0" r="1" gradientUnits="userSpaceOnUse" gradientTransform="translate(106.5 287) scale(40.5 9)">
<stop offset="0.471864" stop-color="#334155"/>
<stop offset="0.763822" stop-color="#94A3B8"/>
<stop offset="1" stop-color="#334155"/>
</radialGradient>
<radialGradient id="paint29_angular_499_2" cx="0" cy="0" r="1" gradientUnits="userSpaceOnUse" gradientTransform="translate(200.5 53) scale(27.5 9)">
<stop offset="0.471864" stop-color="#334155"/>
<stop offset="0.763822" stop-color="#94A3B8"/>
<stop offset="1" stop-color="#334155"/>
</radialGradient>
<radialGradient id="paint30_angular_499_2" cx="0" cy="0" r="1" gradientUnits="userSpaceOnUse" gradientTransform="translate(346 220) scale(38 9)">
<stop offset="0.471864" stop-color="#334155"/>
<stop offset="0.763822" stop-color="#94A3B8"/>
<stop offset="1" stop-color="#334155"/>
</radialGradient>
</defs>
</svg>
