<svg xmlns="http://www.w3.org/2000/svg" width="200" height="200"><g fill="none" transform="translate(25 22)"><path fill="#FFF" d="M42.148 137.67a65.995 65.995 0 0 1-14.808-11.604 16.51 16.51 0 0 1-4.557 3.949c-.966.545-1.983.993-3.038 1.336 23.572 25.741 61.77 31.851 92.195 14.749a4.633 4.633 0 0 0 0-8.035 4.557 4.557 0 0 0-4.556-.076 65.767 65.767 0 0 1-65.236-.32Zm-.015-113.854a65.63 65.63 0 0 1 17.498-6.972 16.57 16.57 0 0 1-1.155-6.075c.003-1.122.115-2.241.334-3.342C24.743 14.992.377 45.028 0 79.923a4.648 4.648 0 0 0 6.972 4.01 4.557 4.557 0 0 0 2.323-3.889 65.767 65.767 0 0 1 32.838-56.228Zm98.59 56.927a65.736 65.736 0 0 1-2.704 18.636c2.043.3 4.01.98 5.802 2.005a18.47 18.47 0 0 1 2.72 1.899c10.455-33.286-3.387-69.389-33.416-87.153a4.648 4.648 0 0 0-6.805 4.101 4.557 4.557 0 0 0 2.203 3.95 65.752 65.752 0 0 1 32.2 56.562ZM75.017 49.485a31.258 31.258 0 1 1-31.243 31.258c.016-17.25 13.992-31.233 31.243-31.258m0-9.28c-22.39 0-40.539 18.15-40.539 40.538 0 22.389 18.15 40.538 40.539 40.538 22.389 0 40.538-18.15 40.538-40.538a40.523 40.523 0 0 0-40.538-40.539Z"/><circle cx="75.002" cy="10.814" r="10.814" fill="#F58320"/><circle cx="14.444" cy="115.692" r="10.814" fill="#F58320"/><circle cx="135.559" cy="115.692" r="10.814" fill="#F58320"/><path fill="#F58320" d="M83.978 73.346a8.961 8.961 0 1 0-13.366 7.792L67.787 95.46a1.519 1.519 0 0 0 1.519 1.823h11.498a1.52 1.52 0 0 0 1.518-1.823l-2.84-14.323a8.946 8.946 0 0 0 4.496-7.792Z"/></g></svg>