<svg width="105" height="32" viewBox="0 0 105 32" fill="none" xmlns="http://www.w3.org/2000/svg">
<g clip-path="url(#clip0_481_914)">
<g filter="url(#filter0_dd_481_914)">
<g clip-path="url(#clip1_481_914)">
<path d="M0 12.8C0 8.31958 0 6.07937 0.871948 4.36808C1.63893 2.86278 2.86278 1.63893 4.36808 0.871948C6.07937 0 8.31958 0 12.8 0H19.2C23.6804 0 25.9206 0 27.6319 0.871948C29.1372 1.63893 30.3611 2.86278 31.1281 4.36808C32 6.07937 32 8.31958 32 12.8V19.2C32 23.6804 32 25.9206 31.1281 27.6319C30.3611 29.1372 29.1372 30.3611 27.6319 31.1281C25.9206 32 23.6804 32 19.2 32H12.8C8.31958 32 6.07937 32 4.36808 31.1281C2.86278 30.3611 1.63893 29.1372 0.871948 27.6319C0 25.9206 0 23.6804 0 19.2V12.8Z" fill="url(#paint0_linear_481_914)"/>
<path fill-rule="evenodd" clip-rule="evenodd" d="M15.9998 2.03861C8.28923 2.03861 2.03861 8.28923 2.03861 15.9998C2.03861 23.7103 8.28923 29.9609 15.9998 29.9609C23.7103 29.9609 29.9609 23.7103 29.9609 15.9998C29.9609 8.28923 23.7103 2.03861 15.9998 2.03861ZM1.96094 15.9998C1.96094 8.24634 8.24634 1.96094 15.9998 1.96094C23.7532 1.96094 30.0386 8.24634 30.0386 15.9998C30.0386 23.7532 23.7532 30.0386 15.9998 30.0386C8.24634 30.0386 1.96094 23.7532 1.96094 15.9998Z" fill="#D0D5DD"/>
<path fill-rule="evenodd" clip-rule="evenodd" d="M16 12.0777C13.8338 12.0777 12.0777 13.8338 12.0777 16C12.0777 18.1662 13.8338 19.9223 16 19.9223C18.1662 19.9223 19.9223 18.1662 19.9223 16C19.9223 13.8338 18.1662 12.0777 16 12.0777ZM12 16C12 13.7909 13.7909 12 16 12C18.2091 12 20 13.7909 20 16C20 18.2091 18.2091 20 16 20C13.7909 20 12 18.2091 12 16Z" fill="#D0D5DD"/>
<path fill-rule="evenodd" clip-rule="evenodd" d="M16.0004 13.3199C14.5205 13.3199 13.3208 14.5196 13.3208 15.9995C13.3208 17.4794 14.5205 18.6791 16.0004 18.6791C17.4804 18.6791 18.6801 17.4794 18.6801 15.9995C18.6801 14.5196 17.4804 13.3199 16.0004 13.3199ZM13.2432 15.9995C13.2432 14.4767 14.4776 13.2422 16.0004 13.2422C17.5233 13.2422 18.7577 14.4767 18.7577 15.9995C18.7577 17.5223 17.5233 18.7568 16.0004 18.7568C14.4776 18.7568 13.2432 17.5223 13.2432 15.9995Z" fill="#D0D5DD"/>
<path d="M15.9609 0H16.0386V32H15.9609V0Z" fill="#D0D5DD"/>
<path d="M32 15.9609L32 16.0386L-3.39506e-09 16.0386L0 15.9609L32 15.9609Z" fill="#D0D5DD"/>
<path d="M26.6016 0H26.6792V32H26.6016V0Z" fill="#D0D5DD"/>
<path d="M10.6406 0H10.7183V32H10.6406V0Z" fill="#D0D5DD"/>
<path d="M21.2812 0H21.3589V32H21.2812V0Z" fill="#D0D5DD"/>
<path d="M5.32031 0H5.39798V32H5.32031V0Z" fill="#D0D5DD"/>
<path d="M32 26.6016L32 26.6792L-3.39506e-09 26.6792L0 26.6016L32 26.6016Z" fill="#D0D5DD"/>
<path d="M32 10.6406L32 10.7183L-3.39506e-09 10.7183L0 10.6406L32 10.6406Z" fill="#D0D5DD"/>
<path d="M32 21.2812L32 21.3589L-3.39506e-09 21.3589L0 21.2812L32 21.2812Z" fill="#D0D5DD"/>
<path d="M32 5.32031L32 5.39798L-3.39506e-09 5.39798L0 5.32031L32 5.32031Z" fill="#D0D5DD"/>
<path d="M11.6642 23.8868C11.3982 24.3707 10.7866 24.5514 10.3316 24.2383C8.78999 23.1776 7.57094 21.7011 6.82245 19.9715C5.94107 17.9347 5.76226 15.6627 6.31417 13.5131C6.86608 11.3635 8.11736 9.45866 9.87093 8.09845C11.6245 6.73824 13.7807 6 16 6C18.2193 6 20.3755 6.73824 22.1291 8.09845C23.8826 9.45866 25.1339 11.3635 25.6858 13.5131C26.2377 15.6627 26.0589 17.9347 25.1775 19.9715C24.4291 21.7011 23.21 23.1776 21.6684 24.2383C21.2134 24.5514 20.6018 24.3707 20.3358 23.8868L16.9595 17.7453C16.7489 17.3622 16.9277 16.8778 17.1013 16.4766V16.4766C17.2071 16.2322 17.2285 15.9595 17.1623 15.7016C17.0961 15.4436 16.9459 15.215 16.7355 15.0518C16.5251 14.8886 16.2663 14.8 16 14.8C15.7337 14.8 15.4749 14.8886 15.2645 15.0518C15.0541 15.215 14.9039 15.4436 14.8377 15.7016C14.7715 15.9595 14.7929 16.2322 14.8987 16.4766V16.4766C15.0723 16.8778 15.2511 17.3622 15.0405 17.7453L11.6642 23.8868Z" fill="url(#paint1_linear_481_914)"/>
</g>
<path d="M12.7998 0.0996094H19.2002C21.442 0.0996094 23.1173 0.100404 24.4463 0.208984C25.7741 0.317475 26.7477 0.533352 27.5869 0.960938C29.0732 1.7183 30.2817 2.92681 31.0391 4.41309C31.4666 5.25227 31.6825 6.22592 31.791 7.55371C31.8996 8.88267 31.9004 10.558 31.9004 12.7998V19.2002C31.9004 21.442 31.8996 23.1173 31.791 24.4463C31.6825 25.7741 31.4666 26.7477 31.0391 27.5869C30.2817 29.0732 29.0732 30.2817 27.5869 31.0391C26.7477 31.4666 25.7741 31.6825 24.4463 31.791C23.1173 31.8996 21.442 31.9004 19.2002 31.9004H12.7998C10.558 31.9004 8.88267 31.8996 7.55371 31.791C6.22592 31.6825 5.25227 31.4666 4.41309 31.0391C2.92681 30.2817 1.7183 29.0732 0.960938 27.5869C0.533352 26.7477 0.317475 25.7741 0.208984 24.4463C0.100404 23.1173 0.0996094 21.442 0.0996094 19.2002V12.7998C0.0996094 10.558 0.100404 8.88267 0.208984 7.55371C0.317475 6.22592 0.533352 5.25227 0.960938 4.41309C1.7183 2.92681 2.92681 1.7183 4.41309 0.960938C5.25227 0.533352 6.22592 0.317475 7.55371 0.208984C8.88267 0.100404 10.558 0.0996094 12.7998 0.0996094Z" stroke="#D0D5DD" stroke-width="0.2"/>
</g>
<path d="M39.2912 23V9.90909H44.2003C45.206 9.90909 46.0497 10.0966 46.7315 10.4716C47.4176 10.8466 47.9354 11.3622 48.2848 12.0185C48.6385 12.6705 48.8153 13.4119 48.8153 14.2429C48.8153 15.0824 48.6385 15.8281 48.2848 16.4801C47.9311 17.1321 47.4091 17.6456 46.7188 18.0206C46.0284 18.3913 45.1783 18.5767 44.1683 18.5767H40.9148V16.6271H43.8487C44.4368 16.6271 44.9183 16.5249 45.2933 16.3203C45.6683 16.1158 45.9453 15.8345 46.1243 15.4766C46.3075 15.1186 46.3991 14.7074 46.3991 14.2429C46.3991 13.7784 46.3075 13.3693 46.1243 13.0156C45.9453 12.6619 45.6662 12.3871 45.2869 12.1911C44.9119 11.9908 44.4283 11.8906 43.8359 11.8906H41.6626V23H39.2912ZM54.9789 23.1918C53.9945 23.1918 53.1444 22.9872 52.4284 22.5781C51.7168 22.1648 51.1692 21.581 50.7857 20.8267C50.4022 20.0682 50.2104 19.1754 50.2104 18.1484C50.2104 17.1385 50.4022 16.2521 50.7857 15.4893C51.1735 14.7223 51.7147 14.1257 52.4093 13.6996C53.1039 13.2692 53.9199 13.054 54.8574 13.054C55.4625 13.054 56.0336 13.152 56.5705 13.348C57.1117 13.5398 57.589 13.8381 58.0023 14.2429C58.4199 14.6477 58.748 15.1634 58.9867 15.7898C59.2253 16.4119 59.3446 17.1534 59.3446 18.0142V18.7237H51.2971V17.1641H57.1266C57.1223 16.7209 57.0265 16.3267 56.839 15.9815C56.6515 15.6321 56.3894 15.3572 56.0527 15.157C55.7203 14.9567 55.3326 14.8565 54.8894 14.8565C54.4164 14.8565 54.0009 14.9716 53.6429 15.2017C53.285 15.4276 53.0059 15.7259 52.8056 16.0966C52.6096 16.4631 52.5094 16.8658 52.5051 17.3047V18.6662C52.5051 19.2372 52.6096 19.7273 52.8184 20.1364C53.0272 20.5412 53.3191 20.8523 53.6941 21.0696C54.0691 21.2827 54.508 21.3892 55.0108 21.3892C55.3475 21.3892 55.6522 21.3423 55.9249 21.2486C56.1976 21.1506 56.4341 21.0078 56.6344 20.8203C56.8347 20.6328 56.986 20.4006 57.0882 20.1236L59.2488 20.3665C59.1124 20.9375 58.8525 21.4361 58.4689 21.8622C58.0897 22.2841 57.6039 22.6122 57.0115 22.8466C56.4192 23.0767 55.7417 23.1918 54.9789 23.1918ZM61.3022 23V13.1818H63.5458V14.8182H63.6481C63.8271 14.2514 64.1339 13.8146 64.5685 13.5078C65.0075 13.1967 65.5082 13.0412 66.0707 13.0412C66.1985 13.0412 66.3413 13.0476 66.4989 13.0604C66.6609 13.0689 66.7951 13.0838 66.9016 13.1051V15.2337C66.8036 15.1996 66.6481 15.1697 66.435 15.1442C66.2262 15.1143 66.0238 15.0994 65.8278 15.0994C65.4059 15.0994 65.0266 15.1911 64.69 15.3743C64.3576 15.5533 64.0955 15.8026 63.9038 16.1222C63.712 16.4418 63.6161 16.8104 63.6161 17.228V23H61.3022ZM68.4389 23V13.1818H70.6506V14.8501H70.7656C70.9702 14.2876 71.3089 13.8487 71.782 13.5334C72.255 13.2138 72.8196 13.054 73.4759 13.054C74.1406 13.054 74.701 13.2159 75.157 13.5398C75.6172 13.8594 75.9411 14.2962 76.1286 14.8501H76.2308C76.4482 14.3047 76.8146 13.87 77.3303 13.5462C77.8501 13.218 78.4659 13.054 79.1776 13.054C80.081 13.054 80.8182 13.3395 81.3892 13.9105C81.9602 14.4815 82.2457 15.3146 82.2457 16.4098V23H79.9254V16.7678C79.9254 16.1584 79.7635 15.7131 79.4396 15.4318C79.1158 15.1463 78.7195 15.0036 78.2507 15.0036C77.6925 15.0036 77.2557 15.1783 76.9403 15.5277C76.6293 15.8729 76.4737 16.3224 76.4737 16.8764V23H74.2045V16.6719C74.2045 16.1648 74.0511 15.7599 73.7443 15.4574C73.4418 15.1548 73.0455 15.0036 72.5554 15.0036C72.223 15.0036 71.9205 15.0888 71.6477 15.2592C71.375 15.4254 71.1577 15.6619 70.9957 15.9688C70.8338 16.2713 70.7528 16.625 70.7528 17.0298V23H68.4389ZM84.5932 23V13.1818H86.9071V23H84.5932ZM85.7566 11.7884C85.3901 11.7884 85.0748 11.6669 84.8105 11.424C84.5463 11.1768 84.4142 10.8807 84.4142 10.5355C84.4142 10.1861 84.5463 9.88991 84.8105 9.64702C85.0748 9.39986 85.3901 9.27628 85.7566 9.27628C86.1273 9.27628 86.4426 9.39986 86.7026 9.64702C86.9668 9.88991 87.0989 10.1861 87.0989 10.5355C87.0989 10.8807 86.9668 11.1768 86.7026 11.424C86.4426 11.6669 86.1273 11.7884 85.7566 11.7884ZM94.2596 13.1818V14.9716H88.4556V13.1818H94.2596ZM89.9066 23V12.255C89.9066 11.5945 90.043 11.0447 90.3157 10.6058C90.5927 10.1669 90.9634 9.83878 91.4279 9.62145C91.8924 9.40412 92.408 9.29545 92.9748 9.29545C93.3754 9.29545 93.7312 9.32741 94.0423 9.39134C94.3533 9.45526 94.5835 9.51278 94.7326 9.56392L94.2724 11.3537C94.1744 11.3239 94.0508 11.294 93.9016 11.2642C93.7525 11.2301 93.5863 11.2131 93.4031 11.2131C92.9727 11.2131 92.668 11.3175 92.489 11.5263C92.3143 11.7308 92.2269 12.0249 92.2269 12.4084V23H89.9066ZM97.5099 26.6818C97.1946 26.6818 96.9027 26.6563 96.6342 26.6051C96.37 26.5582 96.1591 26.5028 96.0014 26.4389L96.5384 24.6364C96.875 24.7344 97.1754 24.7813 97.4396 24.777C97.7038 24.7727 97.9361 24.6896 98.1364 24.5277C98.3409 24.37 98.5135 24.1058 98.6541 23.7351L98.8523 23.2045L95.2919 13.1818H97.7464L100.009 20.5966H100.112L102.381 13.1818H104.842L100.911 24.1889C100.727 24.7088 100.484 25.1541 100.182 25.5249C99.8793 25.8999 99.5085 26.1854 99.0696 26.3814C98.6349 26.5817 98.1151 26.6818 97.5099 26.6818Z" fill="#F5F5F6"/>
</g>
<defs>
<filter id="filter0_dd_481_914" x="-3" y="-2" width="38" height="38" filterUnits="userSpaceOnUse" color-interpolation-filters="sRGB">
<feFlood flood-opacity="0" result="BackgroundImageFix"/>
<feColorMatrix in="SourceAlpha" type="matrix" values="0 0 0 0 0 0 0 0 0 0 0 0 0 0 0 0 0 0 127 0" result="hardAlpha"/>
<feOffset dy="1"/>
<feGaussianBlur stdDeviation="1"/>
<feColorMatrix type="matrix" values="0 0 0 0 0.0627451 0 0 0 0 0.0941176 0 0 0 0 0.156863 0 0 0 0.06 0"/>
<feBlend mode="normal" in2="BackgroundImageFix" result="effect1_dropShadow_481_914"/>
<feColorMatrix in="SourceAlpha" type="matrix" values="0 0 0 0 0 0 0 0 0 0 0 0 0 0 0 0 0 0 127 0" result="hardAlpha"/>
<feOffset dy="1"/>
<feGaussianBlur stdDeviation="1.5"/>
<feColorMatrix type="matrix" values="0 0 0 0 0.0627451 0 0 0 0 0.0941176 0 0 0 0 0.156863 0 0 0 0.1 0"/>
<feBlend mode="normal" in2="effect1_dropShadow_481_914" result="effect2_dropShadow_481_914"/>
<feBlend mode="normal" in="SourceGraphic" in2="effect2_dropShadow_481_914" result="shape"/>
</filter>
<linearGradient id="paint0_linear_481_914" x1="16" y1="0" x2="16" y2="32" gradientUnits="userSpaceOnUse">
<stop stop-color="#F9FAFB"/>
<stop offset="1" stop-color="#E7EBEF"/>
</linearGradient>
<linearGradient id="paint1_linear_481_914" x1="6" y1="6" x2="26" y2="26" gradientUnits="userSpaceOnUse">
<stop stop-color="#B39FFF"/>
<stop offset="1" stop-color="#6A1ED2"/>
</linearGradient>
<clipPath id="clip0_481_914">
<rect width="105" height="32" fill="white"/>
</clipPath>
<clipPath id="clip1_481_914">
<path d="M0 12.8C0 8.31958 0 6.07937 0.871948 4.36808C1.63893 2.86278 2.86278 1.63893 4.36808 0.871948C6.07937 0 8.31958 0 12.8 0H19.2C23.6804 0 25.9206 0 27.6319 0.871948C29.1372 1.63893 30.3611 2.86278 31.1281 4.36808C32 6.07937 32 8.31958 32 12.8V19.2C32 23.6804 32 25.9206 31.1281 27.6319C30.3611 29.1372 29.1372 30.3611 27.6319 31.1281C25.9206 32 23.6804 32 19.2 32H12.8C8.31958 32 6.07937 32 4.36808 31.1281C2.86278 30.3611 1.63893 29.1372 0.871948 27.6319C0 25.9206 0 23.6804 0 19.2V12.8Z" fill="white"/>
</clipPath>
</defs>
</svg>
