<svg width="184" height="172" viewBox="0 0 184 172" fill="none" xmlns="http://www.w3.org/2000/svg">
<path d="M51.3651 164.298C48.5598 169.211 42.3054 170.939 37.7876 167.575C24.2917 157.525 13.7308 143.872 7.34902 128.058C-0.31756 109.06 -1.51706 88.0234 3.93946 68.2604C9.39598 48.4975 21.1985 31.1316 37.488 18.8977C53.7776 6.6639 73.6287 0.257328 93.9147 0.687038C114.201 1.11675 133.769 8.35832 149.538 21.2712C165.307 34.1841 176.38 52.0346 181.013 72.0113C185.646 91.988 183.577 112.956 175.13 131.612C168.099 147.142 156.982 160.336 143.082 169.805C138.429 172.975 132.251 170.984 129.652 165.956L100.436 109.443C98.5844 105.86 100.312 101.418 101.976 97.7426V97.7426C102.989 95.5038 103.238 92.9877 102.682 90.5905C102.126 88.1933 100.797 86.0512 98.9045 84.5017C97.0123 82.9521 94.6641 82.0832 92.2298 82.0316C89.7954 81.98 87.4133 82.7488 85.4586 84.2169C83.5038 85.6849 82.0875 87.7688 81.4327 90.1404C80.778 92.512 80.9219 95.0364 81.8419 97.3161V97.3161C83.3523 101.059 84.894 105.57 82.8952 109.071L51.3651 164.298Z" fill="#6318FF"/>
</svg>
