<svg width="200" height="60" viewBox="0 0 200 60" fill="none" xmlns="http://www.w3.org/2000/svg">
<rect width="200" height="60" rx="8" fill="#6318FF"/>
<path d="M43.543 26.5V38H40.543V26.5H36.523V24.04H47.563V26.5H43.543ZM49.1152 35.7H51.4952V29.98H49.1152V27.68H54.4552V30.6H54.5952C54.6885 30.2267 54.8152 29.8667 54.9752 29.52C55.1485 29.16 55.3618 28.8467 55.6152 28.58C55.8818 28.3 56.2018 28.08 56.5752 27.92C56.9485 27.76 57.3885 27.68 57.8952 27.68H58.8752V30.4H56.6752C55.9418 30.4 55.3885 30.62 55.0152 31.06C54.6418 31.4867 54.4552 32.0133 54.4552 32.64V35.7H57.8552V38H49.1152V35.7ZM67.8273 27.68H70.8473L65.9873 39.66C65.6807 40.42 65.274 41 64.7673 41.4C64.2607 41.8 63.5673 42 62.6873 42H60.6473V39.7H63.1273L63.7673 37.94L59.6073 27.68H62.7873L64.2873 32.02L65.2273 35.02H65.3873L66.2873 32.02L67.8273 27.68ZM83.9317 38V24.04H89.3317C90.0117 24.04 90.6184 24.1467 91.1517 24.36C91.6851 24.56 92.1317 24.8533 92.4917 25.24C92.8651 25.6267 93.1451 26.0933 93.3317 26.64C93.5184 27.1867 93.6117 27.8 93.6117 28.48C93.6117 29.16 93.5184 29.7733 93.3317 30.32C93.1451 30.8667 92.8651 31.3333 92.4917 31.72C92.1317 32.1067 91.6851 32.4067 91.1517 32.62C90.6184 32.82 90.0117 32.92 89.3317 32.92H86.9517V38H83.9317ZM86.9517 30.5H88.5717C89.2784 30.5 89.7651 30.3667 90.0317 30.1C90.3117 29.8333 90.4517 29.3933 90.4517 28.78V28.18C90.4517 27.5667 90.3117 27.1267 90.0317 26.86C89.7651 26.5933 89.2784 26.46 88.5717 26.46H86.9517V30.5ZM100.284 38.24C98.5506 38.24 97.2372 37.76 96.3439 36.8C95.4506 35.84 95.0039 34.5333 95.0039 32.88C95.0039 32.04 95.1172 31.2867 95.3439 30.62C95.5839 29.94 95.9172 29.3667 96.3439 28.9C96.7839 28.42 97.3106 28.06 97.9239 27.82C98.5506 27.5667 99.2506 27.44 100.024 27.44C100.797 27.44 101.491 27.5667 102.104 27.82C102.717 28.06 103.237 28.4067 103.664 28.86C104.091 29.3133 104.417 29.8667 104.644 30.52C104.884 31.16 105.004 31.88 105.004 32.68V33.56H97.9439V33.74C97.9439 34.4067 98.1506 34.9467 98.5639 35.36C98.9772 35.76 99.5839 35.96 100.384 35.96C100.997 35.96 101.524 35.8467 101.964 35.62C102.404 35.38 102.784 35.0667 103.104 34.68L104.704 36.42C104.304 36.9133 103.744 37.34 103.024 37.7C102.304 38.06 101.391 38.24 100.284 38.24ZM100.044 29.56C99.4039 29.56 98.8906 29.76 98.5039 30.16C98.1306 30.5467 97.9439 31.0733 97.9439 31.74V31.9H102.104V31.74C102.104 31.06 101.917 30.5267 101.544 30.14C101.184 29.7533 100.684 29.56 100.044 29.56ZM107.076 35.7H109.456V29.98H107.076V27.68H112.416V30.6H112.556C112.649 30.2267 112.776 29.8667 112.936 29.52C113.109 29.16 113.323 28.8467 113.576 28.58C113.843 28.3 114.163 28.08 114.536 27.92C114.909 27.76 115.349 27.68 115.856 27.68H116.836V30.4H114.636C113.903 30.4 113.349 30.62 112.976 31.06C112.603 31.4867 112.416 32.0133 112.416 32.64V35.7H115.816V38H107.076V35.7ZM117.788 38V27.68H120.168V29.2H120.308C120.468 28.72 120.695 28.3067 120.988 27.96C121.295 27.6133 121.722 27.44 122.268 27.44C123.268 27.44 123.882 28.0267 124.108 29.2H124.228C124.308 28.96 124.408 28.7333 124.528 28.52C124.648 28.3067 124.795 28.12 124.968 27.96C125.142 27.8 125.348 27.6733 125.588 27.58C125.828 27.4867 126.108 27.44 126.428 27.44C127.868 27.44 128.588 28.5 128.588 30.62V38H126.208V30.92C126.208 30.44 126.122 30.1067 125.948 29.92C125.788 29.72 125.575 29.62 125.308 29.62C125.055 29.62 124.835 29.7067 124.648 29.88C124.475 30.04 124.388 30.2933 124.388 30.64V38H121.988V30.92C121.988 30.44 121.908 30.1067 121.748 29.92C121.602 29.72 121.395 29.62 121.128 29.62C120.862 29.62 120.635 29.7067 120.448 29.88C120.262 30.04 120.168 30.2933 120.168 30.64V38H117.788ZM135.42 26.36C134.754 26.36 134.287 26.2267 134.02 25.96C133.767 25.68 133.64 25.3467 133.64 24.96V24.38C133.64 23.98 133.767 23.6467 134.02 23.38C134.287 23.1133 134.754 22.98 135.42 22.98C136.087 22.98 136.547 23.1133 136.8 23.38C137.067 23.6467 137.2 23.98 137.2 24.38V24.96C137.2 25.3467 137.067 25.68 136.8 25.96C136.547 26.2267 136.087 26.36 135.42 26.36ZM130.66 35.7H133.94V29.98H130.66V27.68H136.9V35.7H139.94V38H130.66V35.7ZM141.793 35.7H144.833V29.98H141.593V27.68H144.833V26.18C144.833 25.3 145.086 24.5867 145.593 24.04C146.113 23.48 146.913 23.2 147.993 23.2H151.493V25.5H147.793V27.68H151.493V29.98H147.793V35.7H151.033V38H141.793V35.7ZM160.565 27.68H163.585L158.725 39.66C158.418 40.42 158.012 41 157.505 41.4C156.998 41.8 156.305 42 155.425 42H153.385V39.7H155.865L156.505 37.94L152.345 27.68H155.525L157.025 32.02L157.965 35.02H158.125L159.025 32.02L160.565 27.68Z" fill="white"/>
</svg>
