<svg width="384" height="96" viewBox="0 0 384 96" fill="none" xmlns="http://www.w3.org/2000/svg">
<rect width="384" height="96" rx="9" fill="#6318FF"/>
<path d="M79.0859 40V63H73.0859V40H65.0459V35.08H87.1259V40H79.0859ZM90.2303 58.4H94.9903V46.96H90.2303V42.36H100.91V48.2H101.19C101.377 47.4533 101.63 46.7333 101.95 46.04C102.297 45.32 102.724 44.6933 103.23 44.16C103.764 43.6 104.404 43.16 105.15 42.84C105.897 42.52 106.777 42.36 107.79 42.36H109.75V47.8H105.35C103.884 47.8 102.777 48.24 102.03 49.12C101.284 49.9733 100.91 51.0267 100.91 52.28V58.4H107.71V63H90.2303V58.4ZM127.655 42.36H133.695L123.975 66.32C123.361 67.84 122.548 69 121.535 69.8C120.521 70.6 119.135 71 117.375 71H113.295V66.4H118.255L119.535 62.88L111.215 42.36H117.575L120.575 51.04L122.455 57.04H122.775L124.575 51.04L127.655 42.36ZM159.863 63V35.08H170.663C172.023 35.08 173.237 35.2933 174.303 35.72C175.37 36.12 176.263 36.7067 176.983 37.48C177.73 38.2533 178.29 39.1867 178.663 40.28C179.037 41.3733 179.223 42.6 179.223 43.96C179.223 45.32 179.037 46.5467 178.663 47.64C178.29 48.7333 177.73 49.6667 176.983 50.44C176.263 51.2133 175.37 51.8133 174.303 52.24C173.237 52.64 172.023 52.84 170.663 52.84H165.903V63H159.863ZM165.903 48H169.143C170.557 48 171.53 47.7333 172.063 47.2C172.623 46.6667 172.903 45.7867 172.903 44.56V43.36C172.903 42.1333 172.623 41.2533 172.063 40.72C171.53 40.1867 170.557 39.92 169.143 39.92H165.903V48ZM192.568 63.48C189.101 63.48 186.474 62.52 184.688 60.6C182.901 58.68 182.008 56.0667 182.008 52.76C182.008 51.08 182.234 49.5733 182.688 48.24C183.168 46.88 183.834 45.7333 184.688 44.8C185.568 43.84 186.621 43.12 187.848 42.64C189.101 42.1333 190.501 41.88 192.048 41.88C193.594 41.88 194.981 42.1333 196.208 42.64C197.434 43.12 198.474 43.8133 199.328 44.72C200.181 45.6267 200.834 46.7333 201.288 48.04C201.768 49.32 202.008 50.76 202.008 52.36V54.12H187.888V54.48C187.888 55.8133 188.301 56.8933 189.128 57.72C189.954 58.52 191.168 58.92 192.768 58.92C193.994 58.92 195.048 58.6933 195.928 58.24C196.808 57.76 197.568 57.1333 198.208 56.36L201.408 59.84C200.608 60.8267 199.488 61.68 198.048 62.4C196.608 63.12 194.781 63.48 192.568 63.48ZM192.088 46.12C190.808 46.12 189.781 46.52 189.008 47.32C188.261 48.0933 187.888 49.1467 187.888 50.48V50.8H196.208V50.48C196.208 49.12 195.834 48.0533 195.088 47.28C194.368 46.5067 193.368 46.12 192.088 46.12ZM206.152 58.4H210.912V46.96H206.152V42.36H216.832V48.2H217.112C217.299 47.4533 217.552 46.7333 217.872 46.04C218.219 45.32 218.646 44.6933 219.152 44.16C219.686 43.6 220.326 43.16 221.072 42.84C221.819 42.52 222.699 42.36 223.712 42.36H225.672V47.8H221.272C219.806 47.8 218.699 48.24 217.952 49.12C217.206 49.9733 216.832 51.0267 216.832 52.28V58.4H223.632V63H206.152V58.4ZM227.577 63V42.36H232.337V45.4H232.617C232.937 44.44 233.39 43.6133 233.977 42.92C234.59 42.2267 235.443 41.88 236.537 41.88C238.537 41.88 239.763 43.0533 240.217 45.4H240.457C240.617 44.92 240.817 44.4667 241.057 44.04C241.297 43.6133 241.59 43.24 241.937 42.92C242.283 42.6 242.697 42.3467 243.177 42.16C243.657 41.9733 244.217 41.88 244.857 41.88C247.737 41.88 249.177 44 249.177 48.24V63H244.417V48.84C244.417 47.88 244.243 47.2133 243.897 46.84C243.577 46.44 243.15 46.24 242.617 46.24C242.11 46.24 241.67 46.4133 241.297 46.76C240.95 47.08 240.777 47.5867 240.777 48.28V63H235.977V48.84C235.977 47.88 235.817 47.2133 235.497 46.84C235.203 46.44 234.79 46.24 234.257 46.24C233.723 46.24 233.27 46.4133 232.897 46.76C232.523 47.08 232.337 47.5867 232.337 48.28V63H227.577ZM262.841 39.72C261.508 39.72 260.574 39.4533 260.041 38.92C259.534 38.36 259.281 37.6933 259.281 36.92V35.76C259.281 34.96 259.534 34.2933 260.041 33.76C260.574 33.2267 261.508 32.96 262.841 32.96C264.174 32.96 265.094 33.2267 265.601 33.76C266.134 34.2933 266.401 34.96 266.401 35.76V36.92C266.401 37.6933 266.134 38.36 265.601 38.92C265.094 39.4533 264.174 39.72 262.841 39.72ZM253.321 58.4H259.881V46.96H253.321V42.36H265.801V58.4H271.881V63H253.321V58.4ZM275.585 58.4H281.665V46.96H275.185V42.36H281.665V39.36C281.665 37.6 282.172 36.1733 283.185 35.08C284.225 33.96 285.825 33.4 287.985 33.4H294.985V38H287.585V42.36H294.985V46.96H287.585V58.4H294.065V63H275.585V58.4ZM313.13 42.36H319.17L309.45 66.32C308.836 67.84 308.023 69 307.01 69.8C305.996 70.6 304.61 71 302.85 71H298.77V66.4H303.73L305.01 62.88L296.69 42.36H303.05L306.05 51.04L307.93 57.04H308.25L310.05 51.04L313.13 42.36Z" fill="white"/>
</svg>
