<svg width="916" height="256" viewBox="0 0 916 256" fill="none" xmlns="http://www.w3.org/2000/svg">
<path d="M87.365 206.298C84.5597 211.211 78.3053 212.939 73.7875 209.574C60.2916 199.525 49.7306 185.872 43.3489 170.058C35.6823 151.06 34.4828 130.023 39.9393 110.26C45.3959 90.4974 57.1983 73.1314 73.4879 60.8976C89.7775 48.6638 109.629 42.2572 129.915 42.6869C150.201 43.1166 169.769 50.3582 185.538 63.2711C201.306 76.184 212.379 94.0345 217.013 114.011C221.646 133.988 219.577 154.956 211.13 173.612C204.099 189.142 192.982 202.336 179.082 211.805C174.429 214.975 168.251 212.984 165.652 207.956L136.436 151.443C134.584 147.86 136.311 143.418 137.975 139.742C138.989 137.504 139.237 134.988 138.681 132.59C138.125 130.193 136.797 128.051 134.904 126.502C133.012 124.952 130.664 124.083 128.23 124.031C125.795 123.98 123.413 124.749 121.458 126.217C119.504 127.685 118.087 129.769 117.433 132.14C116.778 134.512 116.922 137.036 117.842 139.316C119.352 143.059 120.894 147.57 118.895 151.071L87.365 206.298Z" fill="#6318FF"/>
<path d="M253.224 179V78.2H299.88C306.504 78.2 312.264 79.496 317.16 82.088C322.056 84.584 325.896 88.088 328.68 92.6C331.464 97.112 332.856 102.344 332.856 108.296C332.856 114.248 331.464 119.48 328.68 123.992C325.896 128.504 322.008 132.056 317.016 134.648C312.12 137.144 306.408 138.392 299.88 138.392H268.344V179H253.224ZM268.344 125.576H298.296C304.248 125.576 308.952 124.04 312.408 120.968C315.96 117.8 317.736 113.624 317.736 108.44C317.736 103.256 315.96 99.128 312.408 96.056C308.952 92.984 304.248 91.448 298.296 91.448H268.344V125.576Z" fill="#6318FF"/>
<path d="M348.427 179V78.2H422.731V91.448H363.547V121.688H402.427V134.504H363.547V165.752H423.307V179H348.427Z" fill="#6318FF"/>
<path d="M438.849 179V78.2H484.497C491.217 78.2 497.073 79.448 502.065 81.944C507.153 84.44 511.089 87.944 513.873 92.456C516.753 96.872 518.193 102.056 518.193 108.008C518.193 114.632 516.321 120.344 512.577 125.144C508.833 129.944 503.793 133.4 497.457 135.512L519.921 179H503.217L482.337 137.672H453.969V179H438.849ZM453.969 125H483.345C489.297 125 494.049 123.512 497.601 120.536C501.249 117.464 503.073 113.336 503.073 108.152C503.073 103.16 501.249 99.128 497.601 96.056C494.049 92.984 489.297 91.448 483.345 91.448H453.969V125Z" fill="#6318FF"/>
<path d="M533.771 179V78.2H554.075L585.611 142.712L617.147 78.2H637.307V179H623.051V96.632L585.467 171.8L547.883 96.632V179H533.771Z" fill="#6318FF"/>
<path d="M657.802 179V78.2H672.922V179H657.802Z" fill="#6318FF"/>
<path d="M693.521 179V78.2H768.113V91.448H708.641V122.408H747.809V135.224H708.641V179H693.521Z" fill="#6318FF"/>
<path d="M813.058 179V138.968L772.45 78.2H790.018L820.978 125.576L851.938 78.2H868.786L828.178 139.256V179H813.058Z" fill="#6318FF"/>
</svg>
