<svg width="505" height="421" viewBox="0 0 505 421" fill="none" xmlns="http://www.w3.org/2000/svg">
<path d="M493.868 218.087C493.868 370.98 393.817 410.408 251.374 410.408C111.012 410.408 10.377 361.652 10.377 218.087C10.377 95.1426 118.611 12.6826 252.122 12.6826C385.634 12.6826 493.868 95.1426 493.868 218.087Z" fill="#44375E"/>
<path d="M409.608 339.642L264.533 31.9195C258.936 21.1368 245.193 21.1368 239.596 31.9195L101.282 339.642C83.0695 374.744 192.365 400.42 251.894 400.42C308.608 400.42 428.616 376.283 409.608 339.642Z" fill="#E0D1FF"/>
<path d="M157.51 339.689C158.216 336.621 166.258 339.88 174.624 338.202C181.048 336.916 179.978 330.327 203.605 331.337C226.536 332.315 225.367 324.623 241.054 324.562C251.804 324.52 252.487 327.41 263.831 326.016C271.588 325.067 274.988 320.887 282.175 320.887C292.359 320.887 297.189 325.801 303.492 326.054C310.656 326.339 312.662 322.289 319.689 322.645C328.12 323.07 329.434 328.331 343.448 327.064C346.698 326.769 347.675 330.126 346.216 333.11C345.505 334.554 341.559 341.484 328.602 341.97C320.204 342.284 318.291 341.321 309.028 344.28C299.761 347.245 297.058 353.267 284.48 353.38C262.55 353.581 260.955 349.634 249.336 352.281C241.368 354.1 234.055 359.547 224.389 359.327C214.724 359.108 203.769 353.459 194.337 353.698C170.967 354.301 155.77 347.24 157.51 339.689Z" fill="#44375E"/>
<path d="M137.469 312.784C135.594 312.784 133.714 312.419 131.937 311.675L126.424 309.37L126.784 308.505L132.297 310.81C136.323 312.494 140.929 312.11 144.618 309.786L146.489 308.608C150.992 305.774 156.654 305.658 161.269 308.304L166.661 311.395L166.198 312.204L160.806 309.113C156.491 306.639 151.197 306.747 146.989 309.398L145.119 310.577C142.799 312.04 140.139 312.784 137.469 312.784Z" fill="white"/>
<path d="M342.601 315.846C340.511 315.846 338.412 315.383 336.508 314.453L329.452 311.002C325.927 309.276 321.55 309.286 318.034 311.03L317.618 310.193C321.447 308.295 326.02 308.285 329.864 310.16L336.92 313.611C340.712 315.467 345.327 315.327 348.965 313.246L353.519 310.647C357.288 308.496 362.104 308.281 366.098 310.095L373.2 313.321L372.812 314.172L365.71 310.946C361.988 309.258 357.494 309.454 353.982 311.46L349.428 314.06C347.352 315.248 344.976 315.846 342.601 315.846Z" fill="white"/>
<path d="M298.732 315.098L287.87 310.394C284.634 308.996 280.917 308.977 277.662 310.343L267.024 314.822L266.66 313.962L277.297 309.482C280.781 308.014 284.77 308.033 288.239 309.534L299.101 314.238L298.732 315.098Z" fill="white"/>
<path d="M224.726 320.017C222.542 320.017 220.359 319.507 218.372 318.493L215.243 316.898C211.877 315.182 207.935 315.004 204.433 316.421L197.003 319.418L196.652 318.549L204.082 315.551C207.837 314.036 212.059 314.223 215.669 316.066L218.797 317.66C222.51 319.554 226.942 319.554 230.66 317.66L234.153 315.879L234.578 316.711L231.085 318.493C229.093 319.512 226.91 320.017 224.726 320.017Z" fill="white"/>
<path d="M247.404 357.518C245.221 357.518 243.037 357.008 241.05 355.994L237.922 354.399C234.555 352.683 230.613 352.506 227.111 353.922L219.681 356.92L219.33 356.05L226.76 353.053C230.515 351.538 234.737 351.725 238.347 353.567L241.475 355.161C245.188 357.055 249.625 357.055 253.338 355.161L256.831 353.38L257.257 354.212L253.764 355.994C251.772 357.013 249.588 357.518 247.404 357.518Z" fill="white"/>
<path d="M144.988 328.602C142.729 328.602 140.476 328.167 138.353 327.293L133.125 325.137L133.48 324.272L138.708 326.428C142.907 328.162 147.686 328.073 151.819 326.189L155.761 324.393C160.03 322.444 164.987 322.313 169.349 324.033L178.145 327.498L177.803 328.368L169.008 324.903C164.875 323.276 160.189 323.402 156.149 325.244L152.207 327.04C149.926 328.078 147.457 328.602 144.988 328.602Z" fill="white"/>
<path d="M267.305 343.593L266.8 342.803L276.343 336.715C280.262 334.214 285.069 333.947 289.197 335.995L296.749 339.745C300.49 341.602 304.708 341.438 308.322 339.296L314.284 335.766C317.566 333.821 321.34 333.386 324.912 334.536L334.133 337.51L333.848 338.398L324.627 335.425C321.312 334.354 317.809 334.761 314.761 336.57L308.799 340.101C304.965 342.373 300.303 342.551 296.333 340.582L288.781 336.832C284.952 334.929 280.486 335.181 276.848 337.505L267.305 343.593Z" fill="white"/>
<path d="M230.711 337.21L230.244 336.402L238.768 331.473C241.438 329.93 244.674 329.851 247.418 331.258L250.897 333.049C252.8 334.026 254.97 334.213 257.009 333.577L262.536 331.857L262.816 332.75L257.289 334.47C255.012 335.181 252.595 334.971 250.472 333.881L246.988 332.09C244.529 330.823 241.63 330.898 239.235 332.282L230.711 337.21Z" fill="white"/>
<path d="M179.164 346.693L178.743 345.856L186.327 342.036C188.371 341.007 190.756 340.909 192.878 341.77L199.284 344.365C201.417 345.23 203.844 344.991 205.765 343.724L210.264 340.76C212.302 339.413 214.902 339.086 217.207 339.881L226.255 342.99L225.951 343.874L216.903 340.764C214.865 340.063 212.578 340.353 210.778 341.541L206.28 344.505C204.101 345.941 201.351 346.212 198.934 345.234L192.528 342.639C190.657 341.882 188.553 341.966 186.748 342.873L179.164 346.693Z" fill="white"/>
<path d="M124.068 352.987C121.889 352.987 119.715 352.477 117.699 351.458L108.277 346.698L108.698 345.861L118.12 350.621C121.763 352.463 125.971 352.524 129.67 350.794L134.939 348.325C138.404 346.703 142.435 346.558 146.007 347.932L154.592 351.233L154.256 352.108L145.671 348.807C142.337 347.525 138.573 347.656 135.337 349.176L130.067 351.645C128.15 352.538 126.107 352.987 124.068 352.987Z" fill="white"/>
<path d="M361.174 331.024C358.916 331.024 356.662 330.589 354.544 329.715L349.316 327.559L349.671 326.694L354.899 328.85C359.098 330.585 363.877 330.496 368.01 328.611L371.952 326.816C376.221 324.866 381.178 324.735 385.54 326.456L394.336 329.921L393.994 330.79L385.199 327.325C381.065 325.698 376.38 325.82 372.34 327.667L368.398 329.462C366.116 330.505 363.648 331.024 361.174 331.024Z" fill="white"/>
<path d="M370.213 352.987C368.034 352.987 365.86 352.477 363.844 351.458L354.422 346.698L354.843 345.861L364.265 350.621C367.908 352.463 372.116 352.524 375.815 350.794L381.085 348.325C384.549 346.703 388.585 346.558 392.152 347.932L400.737 351.233L400.401 352.108L391.816 348.807C388.482 347.525 384.718 347.656 381.482 349.176L376.212 351.645C374.295 352.538 372.252 352.987 370.213 352.987Z" fill="white"/>
<path d="M193.701 368.455C191.331 368.455 188.955 367.96 186.739 366.964L180.426 364.116C176.288 362.25 171.538 362.231 167.385 364.06L161.475 366.664L161.096 365.809L167.007 363.204C171.402 361.268 176.433 361.287 180.81 363.26L187.122 366.108C191.794 368.217 197.241 367.95 201.683 365.392L202.151 366.201C199.551 367.698 196.633 368.455 193.701 368.455Z" fill="white"/>
<path d="M338.052 368.062C336.027 368.062 333.998 367.623 332.09 366.739L325.768 363.802C321.597 361.867 316.641 362.259 312.83 364.826L311.769 365.542C307.686 368.291 302.375 368.712 297.909 366.636L290.82 363.344C287.136 361.633 282.941 361.698 279.313 363.526L271.831 367.295L271.411 366.458L278.892 362.689C282.778 360.735 287.267 360.665 291.213 362.498L298.302 365.79C302.473 367.725 307.429 367.337 311.245 364.77L312.306 364.055C316.388 361.305 321.696 360.885 326.161 362.956L332.483 365.893C336.588 367.8 341.32 367.487 345.141 365.051L346.899 363.933L347.399 364.724L345.641 365.841C343.326 367.314 340.694 368.062 338.052 368.062Z" fill="white"/>
<path d="M243.561 384.012C241.382 384.012 239.199 383.628 237.123 382.852L223.488 377.76C219.476 376.259 215.062 376.287 211.068 377.83L202.563 381.117L202.226 380.243L210.732 376.956C214.94 375.329 219.588 375.305 223.815 376.881L237.45 381.973C242.018 383.68 247.134 383.395 251.482 381.188L257.393 378.186C262.115 375.792 267.642 375.544 272.557 377.503L281.614 381.117L281.268 381.987L272.211 378.373C267.544 376.512 262.298 376.745 257.818 379.018L251.908 382.02C249.299 383.343 246.432 384.012 243.561 384.012Z" fill="white"/>
<path d="M85.5143 212.251H84.5791V74.1944C84.5791 73.5912 84.9251 73.0675 85.4816 72.829C86.038 72.5905 86.6552 72.7074 87.0901 73.1236L172.299 171.776L171.593 172.389L86.4121 73.7689C86.197 73.5678 85.9258 73.6567 85.8463 73.6894C85.7668 73.7221 85.5143 73.8577 85.5143 74.1944V212.251Z" fill="white"/>
<path d="M362.46 167.46L368.88 153.353L297.947 187.394L268.1 224.923L282.984 242.5L314.013 228.911L362.46 167.46Z" fill="#E0D1FF"/>
<path d="M250.434 118.695L189.563 204.578L212.929 238.413L277.653 218.816L329.397 211.924L256.541 118.578C254.984 116.554 251.912 116.61 250.434 118.695Z" fill="white"/>
<path d="M252.656 120.425L245.151 173.474L267.194 169.223L254.975 120.355C254.667 119.111 252.89 119.168 252.656 120.425Z" fill="#E0D1FF"/>
<path d="M146.433 162.349L131.297 142.944C127.523 141.326 123.521 145.118 125.957 150.374C129.225 157.426 138.077 179.005 138.077 179.005L174.091 265.252L183.386 244.847L146.433 162.349Z" fill="#E0D1FF"/>
<path d="M90.3358 69.5185C100.361 80.4742 174.526 160.9 195.479 183.957C194.936 186.982 190.616 187.361 190.616 187.361L89.4567 70.5613C88.9751 70.0048 89.6858 68.8078 90.3358 69.5185Z" fill="#E0D1FF"/>
<path d="M294.963 231.231C292.625 233.035 289.801 234.064 280.393 229.005C240.175 207.388 152.24 156.355 131.291 142.94C130.062 142.154 128.537 143.361 129.019 144.74L176.713 272.276C179.575 278.556 186.159 281.754 193.028 281.057L258.313 275.007C259.22 274.913 260.127 274.796 261.03 274.647L316.982 265.538C318.932 265.22 320.596 263.967 321.433 262.181C329.153 245.763 367.641 163.869 369.633 158.889C371.442 154.358 369.572 151.978 367.463 154.199C364.854 156.958 322.546 204.344 294.963 231.231Z" fill="white"/>
<path d="M318.507 263.14C319.325 262.789 319.587 261.76 319.021 261.073C313.307 254.19 302.936 241.808 294.038 235.561C292.532 234.504 290.652 234.097 288.829 234.448C270.621 237.95 213.004 265.585 192.434 275.606C191.125 276.242 191.658 279.089 193.112 278.954C193.131 278.954 193.15 278.107 193.169 278.107L258.426 272.473C259.333 272.389 260.24 272.276 261.142 272.136L317.062 263.551C317.562 263.472 318.048 263.331 318.507 263.14Z" fill="#E0D1FF"/>
<path d="M149.367 132.686L145.306 136.517L145.948 137.197L150.009 133.366L149.367 132.686Z" fill="white"/>
<path d="M142.449 141.214C141.944 141.214 141.532 141.046 141.252 140.719C140.541 139.886 141.041 138.334 142.383 137.184C143.73 136.033 145.338 135.786 146.049 136.613C146.423 137.048 146.479 137.679 146.213 138.39C145.979 139.007 145.521 139.629 144.913 140.148C144.31 140.667 143.618 141.023 142.977 141.158C142.795 141.196 142.617 141.214 142.449 141.214ZM144.852 137.053C144.37 137.053 143.66 137.329 142.996 137.894C142.028 138.722 141.654 139.746 141.967 140.111C142.107 140.275 142.407 140.321 142.795 140.242C143.281 140.144 143.833 139.849 144.314 139.438C144.796 139.026 145.17 138.526 145.343 138.063C145.483 137.693 145.483 137.385 145.343 137.221C145.245 137.109 145.072 137.053 144.852 137.053Z" fill="white"/>
<path d="M118.176 97.9758L114.664 101.147L115.29 101.841L118.803 98.67L118.176 97.9758Z" fill="white"/>
<path d="M111.761 105.757C111.246 105.757 110.802 105.588 110.517 105.238C109.825 104.391 110.358 102.848 111.728 101.731C112.345 101.226 113.042 100.885 113.687 100.768C114.435 100.632 115.043 100.8 115.408 101.245C115.773 101.689 115.815 102.32 115.534 103.026C115.291 103.634 114.814 104.251 114.197 104.751C113.393 105.411 112.5 105.757 111.761 105.757ZM114.174 101.656C114.08 101.656 113.972 101.665 113.86 101.689C113.374 101.778 112.813 102.058 112.322 102.456C111.335 103.26 110.938 104.275 111.242 104.649C111.546 105.018 112.621 104.831 113.603 104.027C114.094 103.629 114.477 103.134 114.664 102.675C114.814 102.306 114.819 102.002 114.683 101.838C114.59 101.717 114.407 101.656 114.174 101.656Z" fill="white"/>
<path d="M91.321 68.8812L88.6968 71.5864L89.3681 72.2376L91.9923 69.5323L91.321 68.8812Z" fill="white"/>
<path d="M86.0287 76.3594C85.5752 76.3594 85.1824 76.2191 84.9065 75.9198C84.1584 75.1203 84.5886 73.5492 85.8838 72.3381C87.179 71.1317 88.7735 70.8091 89.5217 71.6086C90.2651 72.4082 89.8396 73.9793 88.5444 75.1904C87.7308 75.9526 86.7956 76.3594 86.0287 76.3594ZM88.3901 72.0996C87.9085 72.0996 87.179 72.4082 86.5197 73.0254C85.5892 73.8952 85.2619 74.9332 85.5892 75.2839C85.9165 75.6346 86.978 75.3774 87.9038 74.5077C88.8343 73.638 89.1616 72.5999 88.8343 72.2492C88.7408 72.151 88.5865 72.0996 88.3901 72.0996Z" fill="white"/>
<path d="M87.9884 229.052C89.1527 228.832 90.158 228.593 90.9904 228.36C89.2509 219.62 86.6043 212.906 84.9818 213.214C83.3592 213.523 83.3546 220.743 84.9397 229.51C85.8001 229.416 86.8194 229.271 87.9884 229.052Z" fill="#6318FF"/>
<path d="M88.2503 230.431C87.259 230.618 86.207 230.791 85.2017 230.903C86.9411 239.75 89.6204 246.582 91.257 246.273C92.8935 245.965 92.8842 238.623 91.257 229.753C90.2844 230.015 89.2416 230.239 88.2503 230.431Z" fill="#85A392"/>
<path d="M91.3644 279.888H90.4292V300.42H91.3644V279.888Z" fill="white"/>
<path d="M91.3644 247.639H90.4292V270.813H91.3644V247.639Z" fill="white"/>
<path d="M90.8965 278.154C89.1851 278.154 88.6988 275.091 88.5819 274.376C88.3715 273.113 89.62 272.061 90.8965 272.061C92.1777 272.061 93.4262 273.118 93.2111 274.376C93.0942 275.086 92.6547 278.154 90.8965 278.154Z" fill="#85A392"/>
<path d="M90.9061 317.17C87.7546 317.17 85.1875 314.603 85.1875 311.451C85.1875 309.029 86.4266 307.706 87.619 306.429C89.0031 304.947 90.4386 303.418 90.4386 299.962H91.3737C91.3737 303.787 89.7418 305.531 88.3063 307.07C87.1374 308.323 86.1274 309.403 86.1274 311.456C86.1274 314.093 88.2736 316.239 90.9108 316.239C93.5481 316.239 95.6943 314.093 95.6943 311.456C95.6943 310.497 95.4137 309.576 94.8807 308.786L95.6569 308.262C96.2928 309.207 96.6295 310.31 96.6295 311.456C96.6248 314.603 94.0577 317.17 90.9061 317.17Z" fill="white"/>
<path d="M92.5052 311.474L92.2573 310.572C94.6093 309.931 94.6514 308.108 94.6514 308.094L95.5866 308.103C95.5819 308.977 94.9273 310.815 92.5052 311.474Z" fill="white"/>
<path d="M82.308 196.429L81.3906 196.61L84.4975 212.321L85.415 212.14L82.308 196.429Z" fill="white"/>
<path d="M286.5 212.125C289.072 206.832 294.533 202.717 301.921 203.007C303.464 198.771 310.567 186.057 309.216 176.621C307.981 167.994 301.047 164.95 295.15 163.009C294.426 162.771 293.738 162.546 293.07 162.331C300.5 169.532 296.217 184.032 293.374 193.014C291.26 199.696 288.08 208.057 286.5 212.125Z" fill="#6318FF"/>
<path d="M311.946 207.977C315.879 204.989 320.274 205.42 323.627 206.36C316.767 203.283 305.727 203.344 301.921 203.007C293.42 202.67 287.472 208.169 285.536 214.58C282.853 223.469 282.001 225.615 282.001 225.615C289.015 225.334 293.818 224.951 303.296 222.44C308.659 217.47 305.662 212.752 311.946 207.977Z" fill="#F2BDBA"/>
<path d="M293.374 193.019C296.212 184.037 300.495 169.537 293.07 162.336C285.766 159.993 281.272 158.969 273.216 158.483C273.216 158.483 254.573 158.609 249.934 161.532C239.427 168.162 230.585 183.2 221.266 195.624C221.266 195.624 266.552 222.216 280.814 229.29C281.324 228.243 281.216 227.172 281.997 225.62C281.997 225.62 282.853 223.474 285.532 214.585C285.785 213.748 286.107 212.925 286.495 212.13C288.08 208.057 291.26 199.697 293.374 193.019Z" fill="#6318FF"/>
<path d="M329.747 219.649C329.991 215.889 327.821 210.03 322.687 205.518C321.78 204.718 320.657 204.05 319.4 203.484C316.047 202.544 311.656 202.114 307.719 205.102C301.435 209.876 303.483 213.738 299.064 219.569C298.246 220.649 297.343 222.122 297.353 222.903C297.385 225.241 300.359 225.526 301.262 224.923C303.525 223.413 305.596 218.685 308.762 218.826C315.654 219.13 313.807 229.216 313.933 230.389C314.083 231.825 317.001 232.825 318.642 230.978C319.488 232.564 323.267 231.385 323.748 227.065C325.548 227.275 326.848 225.942 327.007 222.566C327.835 223.034 329.56 222.52 329.747 219.649Z" fill="#F2BDBA"/>
<path d="M221.27 195.624C221.27 195.624 231.3 201.506 243.382 208.454C249.237 200.8 256.728 191.107 259.753 187.576C265.645 180.698 266.365 171.617 262.138 165.871C260.071 163.065 257.448 160.68 252.37 160.531C251.374 160.821 250.537 161.153 249.938 161.531C239.427 168.162 230.584 183.195 221.27 195.624Z" fill="#6318FF"/>
<path d="M262.615 210.203C262.058 209.483 261.511 208.754 260.978 208.015C257.003 202.465 252.407 198.387 244.823 196.129C232.749 192.538 221.27 195.624 221.27 195.624C227.461 199.196 245.099 210.063 244.177 217.895C243.158 226.555 243.607 227.775 246.609 228.397C245.898 233.078 248.489 234.336 250.588 233.938C249.826 238.31 254.651 238.881 256.218 235.935C258.313 236.879 260.272 236.276 261.109 235.313C263.568 232.479 265.733 225.854 265.934 221.309C265.266 215.155 262.624 210.222 262.624 210.222L262.615 210.203Z" fill="#F2BDBA"/>
<path d="M270.068 218.091C267.286 215.758 264.836 213.074 262.615 210.203L262.624 210.222C262.624 210.222 265.271 215.16 265.935 221.308C268.548 222.735 271.008 224.086 273.771 225.559C274.328 222.763 272.472 220.107 270.068 218.091Z" fill="#E8A7A3"/>
<path d="M265.491 220.808C265.44 219.05 264.93 216.951 264.921 216.927L265.828 216.703C265.851 216.792 266.366 218.924 266.422 220.78L265.491 220.808Z" fill="black"/>
<path d="M302.263 143.006C297.671 136.179 289.535 138.269 283.671 145.563C281.389 144.086 277.48 147.766 279.201 151.221C279.439 151.698 279.355 152.278 278.991 152.671C278.991 152.671 277.036 158.993 280.038 163.954C283.04 168.91 289.254 166.675 289.254 166.675C292.401 165.329 295.122 163.435 295.122 163.435C302.122 158.207 306.49 149.285 302.263 143.006Z" fill="#F2BDBA"/>
<path d="M258.182 234.448L257.317 234.097C259.393 228.977 259.235 223.88 259.23 223.829L260.165 223.796C260.174 224.011 260.338 229.145 258.182 234.448Z" fill="black"/>
<path d="M251.318 232.596L250.443 232.259C251.841 228.617 252.454 225.769 252.566 222.431L253.501 222.463C253.385 225.91 252.753 228.846 251.318 232.596Z" fill="black"/>
<path d="M246.885 227.354L246.025 226.985C247.231 224.175 247.381 221.266 247.362 219.779L248.297 219.765C248.316 221.327 248.162 224.385 246.885 227.354Z" fill="black"/>
<path d="M319.46 229.173L318.534 229.038C318.684 228.028 318.768 226.915 318.773 225.727C318.792 222.814 317.973 220.294 317.281 218.695L318.142 218.325C318.866 220.009 319.731 222.66 319.708 225.737C319.703 226.962 319.619 228.117 319.46 229.173Z" fill="black"/>
<path d="M323.491 225.124C323.397 220.312 321.878 216.567 321.864 216.53L322.729 216.174C322.794 216.333 324.328 220.121 324.426 225.105L323.491 225.124Z" fill="black"/>
<path d="M326.675 221.154C326.479 217.6 325.272 214.739 325.258 214.711L326.119 214.341C326.17 214.463 327.405 217.385 327.61 221.103L326.675 221.154Z" fill="black"/>
<path d="M302.262 143.006C297.671 136.179 289.535 138.269 283.671 145.563L285.018 148.79C285.265 149.384 286.042 149.529 286.49 149.066L290.007 145.395C290.732 144.638 292.013 144.993 292.228 146.017C292.649 148.009 293.687 150.716 296.244 152.629C299.008 154.696 301.898 153.882 303.595 151.371C304.264 148.425 303.946 145.507 302.262 143.006Z" fill="black"/>
<path d="M294.486 159.063C294.103 158.684 294.103 158.062 294.482 157.678L295.202 156.954C295.581 156.57 296.202 156.57 296.586 156.949C296.969 157.328 296.969 157.95 296.591 158.333L295.87 159.058C295.492 159.441 294.87 159.446 294.486 159.063Z" fill="black"/>
<path d="M288.613 156.467C288.23 156.089 288.23 155.467 288.609 155.083L289.329 154.358C289.708 153.975 290.329 153.975 290.713 154.354C291.096 154.733 291.096 155.354 290.718 155.738L289.997 156.463C289.619 156.846 288.997 156.846 288.613 156.467Z" fill="black"/>
<path d="M296.885 222.903C296.88 222.402 297.142 221.696 297.67 220.798C298.035 220.181 298.428 219.634 298.694 219.279C300.504 216.894 301.191 214.865 301.865 212.901C302.463 211.143 303.029 209.483 304.329 207.762L305.077 208.328C303.866 209.932 303.324 211.521 302.753 213.205C302.094 215.145 301.346 217.338 299.443 219.849C299.19 220.181 298.821 220.7 298.479 221.275C297.881 222.29 297.825 222.744 297.825 222.893L296.885 222.903Z" fill="black"/>
<path d="M313.452 224.535C313.148 222.342 312.372 220.817 311.152 220.009C310.492 219.574 309.683 219.331 308.744 219.288C307.233 219.223 305.933 220.495 304.75 221.874L304.04 221.266C305.377 219.705 306.883 218.264 308.781 218.353C309.894 218.405 310.862 218.695 311.666 219.228C313.12 220.191 314.032 221.935 314.378 224.404L313.452 224.535Z" fill="black"/>
<path d="M253.399 196.236L252.66 195.661C255.816 191.621 258.084 188.797 259.393 187.268C264.977 180.754 265.968 171.87 261.759 166.147L262.512 165.59C266.978 171.664 265.968 181.035 260.104 187.876C258.804 189.395 256.551 192.21 253.399 196.236Z" fill="black"/>
<path d="M289.352 205.948L288.473 205.621C290.339 200.617 291.835 196.33 292.925 192.879C293.542 190.929 294.192 188.815 294.79 186.58L295.693 186.823C295.094 189.077 294.435 191.2 293.818 193.159C292.724 196.624 291.218 200.926 289.352 205.948Z" fill="black"/>
<path d="M288.599 163.846C287.659 163.009 285.826 162.256 285.808 162.252L286.158 161.386C286.238 161.419 288.155 162.205 289.221 163.149L288.599 163.846Z" fill="black"/>
<path d="M280.038 163.949C277.036 158.987 278.99 152.666 278.99 152.666C276.447 155.415 273.216 158.478 273.216 158.478C269.045 165.926 272.804 179.244 283.217 179.907C292.396 180.492 291.629 170.551 289.254 166.665C289.254 166.67 283.04 168.905 280.038 163.949Z" fill="#E8A7A3"/>
<path d="M282.436 166.942C278.35 164.725 278.032 159.624 278.018 159.409L278.953 159.357C278.957 159.404 279.261 164.155 282.885 166.119L282.436 166.942Z" fill="black"/>
</svg>
