<svg width="420" height="420" viewBox="0 0 420 420" fill="none" xmlns="http://www.w3.org/2000/svg">
<path d="M209.678 373.969C307.077 373.969 386.034 295.012 386.034 197.613C386.034 100.214 307.077 21.2566 209.678 21.2566C112.279 21.2566 33.3218 100.214 33.3218 197.613C33.3218 295.012 112.279 373.969 209.678 373.969Z" fill="#E0D1FF"/>
<path d="M56.2782 160.108L55.3579 159.95C55.4046 159.679 60.2538 132.644 79.0013 111.911L79.6927 112.537C61.1274 133.069 56.3249 159.842 56.2782 160.108Z" fill="white"/>
<path d="M81.8329 94.7749L81.062 94.2516C81.2115 94.0321 96.217 72.2667 120.29 61.6479L120.669 62.5029C96.8477 73.0095 81.9823 94.56 81.8329 94.7749Z" fill="white"/>
<path d="M375.738 194.413H374.803C374.803 160.884 359.588 130.495 359.434 130.191L360.265 129.771C360.419 130.074 375.738 160.655 375.738 194.413Z" fill="white"/>
<path d="M357.546 176.931C356.826 163.575 352.477 152.335 352.435 152.222L353.304 151.881C353.346 151.993 357.747 163.369 358.48 176.88L357.546 176.931Z" fill="white"/>
<path d="M26.9684 153.755L26.0527 153.559C26.1088 153.288 32.0091 126.393 52.686 99.2129L53.4288 99.7782C32.8781 126.795 27.0245 153.489 26.9684 153.755Z" fill="#150536"/>
<path d="M56.1757 78.5923L55.4609 77.9944C55.517 77.929 60.9969 71.3979 67.9857 64.8015L68.6258 65.4789C61.6743 72.038 56.2271 78.5269 56.1757 78.5923Z" fill="#150536"/>
<path d="M79.2823 65.446L78.5723 64.8387C78.6517 64.7453 86.6589 55.4953 101.94 45.0681C116.035 35.4491 139.384 22.8262 170.595 17.2903L170.759 18.2106C139.711 23.7185 116.483 36.276 102.468 45.839C87.2849 56.1961 79.3571 65.3526 79.2823 65.446Z" fill="#150536"/>
<path d="M385.586 137.507C377.723 105.459 352.777 77.7935 352.524 77.5179L353.216 76.8872C353.468 77.1628 378.574 105.011 386.492 137.283L385.586 137.507Z" fill="#150536"/>
<path d="M392.514 184.163C391.584 172.507 389.36 162.304 387.66 155.796L388.566 155.558C390.276 162.103 392.514 172.362 393.448 184.088L392.514 184.163Z" fill="#150536"/>
<path d="M397.582 228.217L396.671 228.007C397.474 224.531 398.175 220.761 398.754 216.804L399.679 216.939C399.095 220.92 398.385 224.713 397.582 228.217Z" fill="#150536"/>
<path d="M401.408 199.453L400.474 199.402C401.208 185.947 400.558 172.974 398.853 167.121L399.75 166.859C401.483 172.806 402.147 185.905 401.408 199.453Z" fill="#150536"/>
<path d="M386.707 242.017L385.82 241.732C387.46 236.631 388.852 229.53 389.959 220.64L390.884 220.756C389.772 229.703 388.366 236.855 386.707 242.017Z" fill="#150536"/>
<path d="M391.724 212.95L390.794 212.866C391.135 209.166 391.285 206.708 391.285 206.68L392.219 206.736C392.215 206.76 392.065 209.24 391.724 212.95Z" fill="#150536"/>
<path d="M297.123 36.8924C272.638 21.3077 231.63 15.9539 231.219 15.9025L231.336 14.9775C231.439 14.9916 241.824 16.3277 255.115 19.5838C267.392 22.5924 284.729 27.8994 297.627 36.1076L297.123 36.8924Z" fill="#150536"/>
<path d="M276.698 20.1167C270.129 17.2202 254.867 13.7772 254.713 13.7445L254.918 12.8335C255.073 12.8662 270.424 16.3279 277.076 19.2664L276.698 20.1167Z" fill="#150536"/>
<path d="M77.9363 332.428C75.9555 330.863 73.9981 329.223 72.1201 327.56L72.7414 326.86C74.6101 328.513 76.5535 330.144 78.5203 331.695L77.9363 332.428Z" fill="#150536"/>
<path d="M62.1511 317.759C35.3777 288.561 30.2482 256.7 30.1968 256.383L31.1218 256.242C31.1685 256.56 36.2653 288.15 62.8379 317.129L62.1511 317.759Z" fill="#150536"/>
<path d="M69.4899 315.344C59.9036 307.44 50.9433 289.402 50.8545 289.22L51.6907 288.809C51.7795 288.986 60.6557 306.846 70.0831 314.625L69.4899 315.344Z" fill="#150536"/>
<path d="M162.345 375.329C148.718 372.722 135.254 368.088 122.327 361.552L122.748 360.716C135.599 367.209 148.979 371.816 162.522 374.408L162.345 375.329Z" fill="#150536"/>
<path d="M105.817 351.923C99.1178 347.438 95.3665 344.112 95.3291 344.079L95.9504 343.383C95.9878 343.416 99.6971 346.705 106.336 351.148L105.817 351.923Z" fill="#150536"/>
<path d="M218.139 385.143L218.092 384.209C221.549 384.041 224.931 383.779 228.141 383.434L228.243 384.363C225.015 384.714 221.614 384.975 218.139 385.143Z" fill="#150536"/>
<path d="M205.856 385.358C184.469 385.125 166.549 381.92 166.367 381.887L166.535 380.967C166.712 381 184.563 384.195 205.866 384.424L205.856 385.358Z" fill="#150536"/>
<path d="M103.64 324.066C74.1715 303.403 63.3145 270.626 63.207 270.299L64.0947 270.01C64.2021 270.337 74.9703 302.824 104.178 323.3L103.64 324.066Z" fill="white"/>
<path d="M168.072 359.818C144.942 355.754 121.785 340.272 121.556 340.113L122.079 339.338C122.308 339.492 145.307 354.866 168.235 358.893L168.072 359.818Z" fill="white"/>
<path d="M130.022 331.737C123.864 329.808 116.432 322.917 116.119 322.627L116.754 321.945C116.829 322.015 124.345 328.981 130.297 330.849L130.022 331.737Z" fill="white"/>
<path d="M240.683 46.5393C235.988 49.3984 215.568 61.3485 200.829 72.5886C198.484 74.3779 196.737 76.8305 195.817 79.6335C193.906 85.4685 192.191 91.9481 191.705 93.8261C191.593 94.2606 191.649 94.7231 191.874 95.1108C193.252 97.5401 200.806 105.902 241.964 120.459L251.625 99.563C251.625 99.563 245.523 60.6805 243.65 47.6932C243.458 46.3898 241.959 45.7638 240.683 46.5393Z" fill="white"/>
<path d="M333.641 280.236L282.977 286.188C274.759 287.155 267.574 292.186 263.86 299.581L241.184 345.144C240.217 347.069 238.068 348.092 235.965 347.63L227.907 345.854C222.254 344.607 216.606 347.961 214.994 353.521L213.733 357.879C213.032 360.295 214.135 362.864 216.368 364.023L253.568 383.303C256.035 384.578 259.067 383.723 260.501 381.345L297.889 320.459L349.562 317.203L333.641 280.236Z" fill="#A274FF"/>
<path d="M304.966 241.33L308.661 232.061L339.228 233.701L328.123 275.667L304.966 241.33Z" fill="#A274FF"/>
<path d="M301.107 218.929C301.107 218.929 304.466 210.235 304.414 205.512C304.349 199.229 305.031 186.443 301.027 187.045C298.589 187.41 297.86 193.324 297.561 195.865C297.444 196.87 297.056 197.832 296.384 198.589C295.426 199.668 294.067 200.084 293.352 195.193C292.189 187.223 292.441 171.886 287.811 174.693C285.466 176.118 286.723 190.044 285.396 189.428C284.069 188.811 284.233 167.779 278.589 170.073C276.725 170.83 277.146 180.879 277.529 186.499C277.552 186.812 277.094 186.877 277.024 186.569C276.263 183.172 275.095 178.225 274.161 175.324C273.156 172.199 270.82 173.834 270.82 176.113C270.82 181.019 271.652 191.348 271.652 191.348L301.107 218.929Z" fill="#A274FF"/>
<path d="M379.568 246.833L387.977 261.316L368.356 324.384C366.515 330.779 359.199 334.769 352.631 333.675L327.376 330.872C324.134 330.331 322.97 331.994 324.106 335.077L335.005 385.087C336.855 390.119 333.986 395.65 328.805 397.038L291.226 407.082C287.587 408.053 283.952 405.512 283.621 401.761L281.458 388.853C281.369 387.867 281.089 383.91 283.326 382.312C286.597 379.977 291.736 376.706 291.736 376.706C293.469 375.777 293.646 372.997 293.137 371.1L278.86 315.582C276.529 306.897 281.934 300.165 290.806 298.689C302.018 296.821 320.705 292.616 320.705 292.616L328.707 240.41C329.758 236.266 333.584 233.43 337.859 233.636L350.136 234.22L379.568 246.833Z" fill="#6318FF"/>
<path d="M374.744 233.109C377.297 222.299 370.603 211.467 359.793 208.914C348.984 206.362 338.152 213.056 335.599 223.865C333.047 234.675 339.74 245.507 350.55 248.06C361.36 250.612 372.192 243.918 374.744 233.109Z" fill="#6318FF"/>
<path d="M172.533 228.212L239.366 167.751C242.818 164.626 247.868 164.873 251.956 167.102C260.22 171.61 274.394 179.668 287.036 193.366C297.65 204.868 315.285 223.129 317.369 238.588C317.607 240.358 316.991 242.134 315.753 243.418C295.375 264.53 253.923 303.412 249.288 307.364C238.319 316.722 209.873 295.596 193.667 276.76C186.898 268.898 164.063 236.201 172.533 228.212Z" fill="white"/>
<path d="M390.266 250.533C384.062 244.427 373.458 244.792 366.917 250.398L343.732 271.514C342.461 272.57 340.578 272.406 339.509 271.149L323.083 251.949C320.439 248.851 318.841 245.002 318.514 240.947L317.921 233.626C317.879 233.131 317.762 232.645 317.566 232.187L314.571 224.479C314.16 223.419 312.731 223.288 312.109 224.241C311.268 225.535 310.81 227.483 310.81 229.417C310.81 233.155 311.689 237.191 310.287 237.191C308.419 237.191 306.199 233.519 305.251 230.071C304.163 226.105 303.621 222.942 301.701 221.186C300.832 220.391 299.285 220.915 299.047 222.237C298.491 225.283 299.131 231.02 299.183 234.276C299.197 235.21 298.36 235.191 298.103 234.056C297.314 230.538 295.16 219.789 295.16 219.789C294.819 218.373 292.866 218.21 292.301 219.555C290.685 223.419 291.287 231.823 291.582 234.948C291.61 235.224 291.236 235.336 291.11 235.093C290.33 233.636 288.952 230.767 287.966 227.114C287.746 226.301 286.634 226.124 286.223 226.857C284.985 229.086 285.616 234.407 285.948 236.593C285.98 236.798 285.7 236.892 285.597 236.714C285.06 235.771 284.649 234.878 284.233 233.813C283.696 232.435 282.542 233.225 282.444 234.098C282.117 237.046 281.949 241.26 283.201 246.66C283.654 248.608 285.294 254.453 292.642 263.24L331.884 306.687C338.892 315.563 347.871 313.223 352.907 309.49C365.521 300.147 388.804 277.129 388.804 277.129C397.662 269.654 395.807 255.985 390.266 250.533Z" fill="#6318FF"/>
<path d="M214.779 264.263C191.327 239.195 179.101 231.968 173.131 231.3C171.809 231.15 170.664 232.183 170.673 233.514C170.743 245.726 187.945 270.117 193.663 276.769C206.715 291.948 227.724 308.612 241.132 309.616C242.16 309.691 242.991 308.798 242.874 307.78C242.061 300.614 236.399 287.374 214.779 264.263Z" fill="#CEDAD3"/>
<path d="M192.075 95.4518C193.929 99.918 215.242 113.657 241.954 120.464L242.748 118.75C232.382 109.663 214.461 100.544 201.156 97.1103C196.279 95.8536 193.621 95.2696 192.075 95.4518Z" fill="#CEDAD3"/>
<path d="M243.23 55.5418C240.782 53.5002 237.872 52.1455 234.587 51.5148L234.765 50.5991C238.208 51.2625 241.254 52.6827 243.828 54.8223L243.23 55.5418Z" fill="#150536"/>
<path d="M278.949 210.501L269.059 202.219C267.508 200.92 265.495 200.317 263.486 200.56C255.474 201.522 234.526 204.34 227.505 208.198C224.903 209.628 219.268 215.869 219.268 215.869C217.227 217.986 217.218 221.335 219.25 223.465L232.106 237.672C232.999 238.658 234.503 238.77 235.531 237.929L245.808 229.511C246.92 228.6 247.032 226.936 246.051 225.881L243.982 223.666C243.155 222.891 243.538 221.503 244.65 221.265L278.071 214.089C279.734 213.72 280.262 211.599 278.949 210.501ZM263.547 224.988C261.94 223.849 259.94 223.75 258.427 225.002L227.378 250.645C225.51 252.187 225.393 255.938 226.977 257.774C228.205 259.199 230.681 262.04 231.882 263.497C234.101 266.193 237.745 266.277 239.534 264.646L247.915 257.008C248.677 256.317 249.854 256.363 250.555 257.116L252.33 259.022C253.587 260.339 255.661 260.404 256.997 259.171L266.252 250.622C268.003 249.001 268.018 246.235 266.275 244.6L265.42 243.797C264.621 243.049 264.631 241.774 265.439 241.04L269.699 237.158C271.288 235.71 271.853 232.463 269.849 230.571C269.853 230.571 265.626 226.469 263.547 224.988Z" fill="#85A392"/>
<path d="M195.863 97.9513C201.754 102.59 217.152 111.027 236.171 117.199L236.797 115.886C228.939 109.21 211.042 100.918 196.246 97.1711C195.784 97.0543 195.485 97.6569 195.863 97.9513Z" fill="#150536"/>
<path d="M174.672 236.154C177.344 232.771 200.955 254.798 208.958 262.96C222.655 276.924 242.547 303.949 237.754 305.211C234.769 305.995 216.302 295.652 196.807 273.616C181.974 256.845 173.023 238.242 174.672 236.154Z" fill="#150536"/>
<path d="M332.422 41.2509L331.731 37.0558C331.156 33.566 327.704 31.8562 324.368 33.0428C319.995 34.5938 314.324 36.4344 311.25 38.8263C310.031 39.7747 309.367 41.2696 309.493 42.8066C310.619 56.462 311.909 67.1041 312.521 71.8038C312.736 73.4716 312.184 75.1487 311.016 76.3587L297.375 90.5466L311.208 97.6195L337.103 73.4903L332.422 41.2509Z" fill="#A274FF"/>
<path d="M241.959 120.464L251.854 99.0633C253.568 95.3587 257.184 92.906 261.258 92.6771L281.762 91.5419C286.807 91.2616 291.717 89.804 296.099 87.286C299.687 85.2258 304.102 85.2445 307.671 87.3421C310.016 88.7202 312.978 88.4633 315.052 86.702L322.457 80.4139C323.307 79.6898 323.765 78.6107 323.695 77.4988C323.302 71.5471 322.055 52.0568 321.896 42.5546C321.873 41.2325 322.616 40.0132 323.802 39.4339C328.731 37.028 336.449 35.8554 342.363 36.8645C343.825 37.1121 344.97 38.3127 345.063 39.7936C345.46 46.2779 341.031 53.2247 341.031 53.2247L344.932 82.5489C345.792 89.0145 343.031 95.4287 337.747 99.2502L313.113 117.059C311.245 118.409 309.301 119.661 307.293 120.796C302.523 123.501 297.421 125.575 292.119 126.963L273.241 131.901L241.959 120.464Z" fill="#6318FF"/>
<path d="M250.448 101.235L261.917 99.4976L270.83 108.967L253.554 125.407L244.417 115.082L250.448 101.235Z" fill="#A274FF"/>
<path d="M278.505 95.8754C280.749 87.2883 275.608 78.5075 267.021 76.2628C258.433 74.0182 249.653 79.1597 247.408 87.7468C245.163 96.3339 250.305 105.115 258.892 107.359C267.479 109.604 276.26 104.462 278.505 95.8754Z" fill="#6318FF"/>
<path d="M221.81 85.917L224.851 81.2219C225.365 80.4277 225.052 79.3626 224.187 78.9748L222.917 78.4049C222.151 78.0592 222.052 77.0127 222.744 76.5315L236.324 67.1181C237.011 66.6416 236.857 65.5858 236.063 65.3195L229.845 63.2686C229.107 63.0257 228.303 63.1332 227.654 63.5629L214.283 72.4158C213.461 72.9577 212.798 73.7052 212.349 74.5788L210.471 78.2414C209.523 80.0914 210.336 82.3571 212.242 83.1794L219.899 86.4916C220.595 86.7952 221.403 86.5476 221.81 85.917ZM237.866 83.8427L237.175 83.413C236.558 83.0299 236.324 82.2497 236.623 81.591L237.539 79.5822C238.076 78.4049 237.619 77.0127 236.488 76.3821L233.419 74.6722C232.213 74.0042 230.695 74.4386 230.036 75.6486L220.763 92.5508C220.146 93.6766 220.487 95.0875 221.553 95.8069L224.837 98.0166C226.047 98.8295 227.696 98.4278 228.401 97.1524L231.059 92.3078C231.457 91.5884 232.372 91.3455 233.073 91.7706L233.437 91.9948C234.236 92.4854 235.283 92.1864 235.703 91.3501L238.445 85.931C238.829 85.1882 238.572 84.2819 237.866 83.8427Z" fill="#85A392"/>
<path d="M290.427 99.8666C285.933 95.8536 279.08 96.0919 274.871 100.399L262.36 113.209C261.383 114.209 259.945 114.606 258.594 114.251L239.996 109.369C238.712 109.032 237.548 108.341 236.637 107.374L231.298 101.712C230.854 101.24 230.055 101.324 229.77 101.903C229.476 102.497 229.294 103.468 229.597 105.043C230.27 108.547 228.238 108.537 226.173 106.883C225.108 106.033 223.459 104.706 222.113 103.618C221.09 102.791 219.581 103.529 219.576 104.842C219.567 106.44 219.796 108.271 220.716 109.294C218.838 114.928 221.992 121.618 226.986 124.318C232.751 127.434 263.822 137.035 263.822 137.035C266.84 137.927 270.105 137.091 272.324 134.862L290.904 116.204C295.463 111.635 295.244 104.169 290.427 99.8666Z" fill="#6318FF"/>
<path d="M253.241 81.1613C251.251 82.6049 249.7 84.6838 248.779 87.1598C246.705 92.7424 248.663 98.7409 253.035 102.324C255.39 104.253 258.982 104.711 262.552 102.506C264.873 101.072 266.63 98.7642 267.648 96.0266C269.433 91.2288 268.228 86.2534 265.042 82.689C262.426 79.7691 256.558 78.7507 253.241 81.1613Z" fill="#150536"/>
<path d="M136.902 262.119C135.117 255.317 133.132 246.553 132.085 243.577C132.043 243.46 131.898 243.138 131.791 243.068C130.852 242.442 125.339 239.802 118.958 240.868C116.982 241.199 110.198 240.569 107.484 242.629C106.643 243.264 106.325 244.339 106.251 245.39C105.868 251.056 104.924 268.566 105.083 274.476C105.111 275.536 105.84 276.489 106.881 276.699C118.378 279.04 131.749 277.961 137.705 273.462C138.364 272.962 138.733 272.173 138.658 271.346C138.509 269.762 138.098 266.674 136.902 262.119Z" fill="white"/>
<path d="M71.2086 216.743L52.2135 210.805C51.2278 210.497 50.6111 209.516 50.7559 208.493L53.6898 187.97C53.8953 186.522 52.8909 185.181 51.4427 184.971L39.5766 183.158C39.0207 183.079 37.8247 183.495 37.8247 185.092C37.8247 185.872 38.0396 186.307 38.4367 186.783L40.581 189.367C40.9828 189.848 41.1556 190.483 41.0529 191.1L38.5161 206.797L47.2008 225.292L68.3028 227.549L71.2086 216.743Z" fill="#A274FF"/>
<path d="M33.6809 190.264L50.1907 216.233C50.6345 216.934 51.3446 217.429 52.1528 217.612L55.8528 218.434C57.0814 218.705 58.3661 218.49 59.4359 217.836L60.8655 216.962C63.7012 215.224 67.1535 214.818 70.3163 215.85L92.9646 223.236L86.3448 243.881L64.0142 238.433C62.0754 237.962 60.1694 237.382 58.296 236.695C55.5117 235.677 51.438 234.121 48.9573 232.902C42.5618 229.758 40.4642 227.31 39.4224 225.357C36.1102 219.149 27.9254 205.078 26.893 203.414C25.5522 201.256 22.6043 201.069 21.0393 200.663C20.0723 200.41 19.3622 199.985 18.9698 199.065L18.7689 198.598C18.5306 198.042 18.7175 197.397 19.2127 197.052L30.0604 189.474C31.2656 188.633 32.9334 188.993 33.6809 190.264Z" fill="#6318FF"/>
<path d="M103.065 237.368L123.051 237.354C124.681 237.345 126.363 237.831 127.223 238.817C127.737 239.405 128.652 240.676 129.138 241.288C129.474 241.718 129.353 242.274 128.867 242.157L126.442 241.288L126.872 242.774C127.167 243.577 126.433 243.941 125.812 243.628L123.397 242.489C123.457 243.161 122.747 243.638 122.145 243.325C121.033 242.746 120.608 242.372 119.071 241.325C118.687 241.068 118.234 240.938 117.772 240.961C113.651 241.166 110.746 241.68 108.232 242.708C106.368 243.47 106.322 245.408 106.289 246.016C106.233 247.039 104.85 250.103 104.85 250.103L91.8393 247.427L89.5361 238.765L103.065 237.368Z" fill="#A274FF"/>
<path d="M95.469 239.676C101.135 239.676 105.728 234.891 105.728 228.987C105.728 223.084 101.135 218.299 95.469 218.299C89.8031 218.299 85.21 223.084 85.21 228.987C85.21 234.891 89.8031 239.676 95.469 239.676Z" fill="#6318FF"/>
<path d="M99.9302 254.224C99.9302 254.224 93.6188 265.37 92.6704 271.957C92.3668 274.078 93.9131 276.026 96.0434 276.279C97.9307 276.498 100.851 276.606 105.247 276.255C104.611 274.27 106.059 256.62 106.681 249.487C106.765 248.529 105.583 248.015 104.934 248.725L99.9302 254.224Z" fill="white"/>
<path d="M121.476 248.912C122.826 251.725 127.923 262.455 129.012 266.763C129.147 267.295 128.727 267.8 128.18 267.767C123.196 267.435 118.384 268.164 116.333 268.538C115.81 268.631 115.342 268.206 115.384 267.678L116.777 250.491C116.8 250.188 116.996 249.921 117.277 249.809L120.439 248.52C120.836 248.356 121.289 248.529 121.476 248.912Z" fill="white"/>
<path d="M127.839 263.292C125.531 257.256 121.145 248.23 121.145 248.23L120.112 248.651L125.008 267.683C126.368 267.669 127.788 267.753 129.208 267.889C129.143 266.982 128.605 265.305 127.839 263.292Z" fill="#85A392"/>
<path d="M129.213 267.889C129.208 267.809 125.443 264.754 125.443 264.754C124.798 264.263 123.929 264.198 123.224 264.586L115.866 268.617C117.641 268.276 123.425 267.328 129.213 267.889Z" fill="#A274FF"/>
<path d="M91.9884 232.127C91.8155 233.991 92.2313 235.743 93.0582 237.214C93.6141 238.2 94.6606 238.835 95.7958 238.835C95.8005 238.835 95.8098 238.835 95.8145 238.835C100.925 238.835 105.069 234.519 105.069 229.193C105.069 229.184 105.069 229.17 105.069 229.16C105.06 226.913 103.453 225.003 101.327 224.648C100.678 224.54 100 224.512 99.3042 224.573C95.4641 224.923 92.3574 228.133 91.9884 232.127Z" fill="#150536"/>
<path d="M125.087 250.276L122.882 250.533C122.705 250.552 122.616 250.328 122.756 250.22L124.606 248.823C125.33 248.277 124.896 247.128 123.994 247.198C121.99 247.352 119.406 247.567 117.561 247.763C117.258 247.796 117.122 247.385 117.388 247.23C118.215 246.759 118.65 246.53 119.509 246.048C120.738 245.357 119.528 244.385 118.122 244.437C115.492 244.54 112.871 246.123 110.876 246.123C107.269 246.123 97.2861 245.637 97.2861 245.637C96.4965 245.609 95.7631 245.208 95.3193 244.554L87.2092 232.552C84.9388 229.553 80.6549 228.997 77.6977 231.319C74.89 233.519 74.2873 237.532 76.3288 240.461L88.2043 255.677C89.3021 257.083 90.9699 257.933 92.7545 257.994L118.612 257.602C121.696 257.606 123.863 254.813 124.139 253.36C124.933 252.822 125.498 252.234 125.905 251.701C126.377 251.075 125.872 250.183 125.087 250.276Z" fill="#6318FF"/>
<path d="M93.2687 139.725C93.2687 139.725 95.4644 147.976 101 159.16C108.849 175.011 112.68 181.359 116.716 188.166C121.63 196.454 136.636 204.858 165.586 186.923C195.583 168.344 191.01 156.104 189.02 151.844C187.842 149.321 178.289 131.466 170.361 117.913C167.268 112.625 164.348 108.107 162.405 105.192C160.789 102.768 158.191 101.193 155.295 100.866C147.4 99.974 130.675 100.063 113.478 112.522C89.7696 129.705 93.2687 139.725 93.2687 139.725Z" fill="white"/>
<path d="M190.224 160.916C191.013 156.931 189.294 152.857 185.945 150.55C177.451 144.691 160.816 144.439 139.723 157.763C116.547 172.404 116.009 184.793 119.457 191.656C126.212 198.322 140.779 202.288 165.581 186.923C183.357 175.917 188.991 167.134 190.224 160.916Z" fill="#CEDAD3"/>
<path d="M123.798 191.203C120.916 187.078 120.859 174.156 142.494 160.239C164.302 146.21 183.432 150.199 186.244 157.763C189.057 165.326 173.388 179.178 155.935 188.045C140.144 196.071 126.993 195.776 123.798 191.203Z" fill="#150536"/>
<path d="M105.065 273.257C103.163 273.252 101.159 273.355 99.1549 273.513C94.6421 273.873 94.0348 275.293 94.4599 275.728C94.857 276.134 95.4596 276.354 96.0436 276.419C97.9309 276.639 101.827 276.765 105.976 276.279C105.065 275.275 105.069 274.789 105.065 273.257Z" fill="#150536"/>
<path d="M136.799 245.441C135.449 243.773 134.679 243.979 132.212 243.942C133.258 247.558 135.08 255.177 136.902 262.124C138.724 269.066 138.734 272.598 138.734 272.598C141.023 272.294 142.868 271.953 147.348 271.201C151.006 270.584 151.333 267.557 149.441 264.754L136.799 245.441Z" fill="white"/>
<path d="M136.944 273.999C137.205 273.336 136.776 272.672 135.678 272.13C133.496 271.047 129.226 270.196 120.906 270.664C113.235 271.093 109.344 272.99 107.386 274.662C106.34 275.559 106.41 276.251 107.335 276.811C118.864 279.61 130.791 278.049 136.944 273.999Z" fill="#CEDAD3"/>
<path d="M147.824 271.285C148.749 271.047 148.894 270.056 148.413 269.711C148.208 269.566 147.965 269.416 147.675 269.267C145.4 268.099 141.765 268.113 138.29 268.529C138.729 271.229 138.808 271.878 138.313 272.794C141.144 272.598 147.549 271.355 147.824 271.285Z" fill="#150536"/>
<path d="M120.897 136.992C119.538 133.573 119.496 129.761 121.098 127.261C121.472 126.677 122.158 125.724 121.813 125.126L118.804 120.763C118.169 119.66 116.51 120.352 115.749 121.375C111.998 126.434 110.596 133.026 113.399 140.062C117.515 150.41 125.158 153.437 133.034 151.512C134.31 151.199 134.931 149.755 134.272 148.62L131.974 144.813C131.469 143.939 130.502 143.458 129.493 143.537C126.092 143.813 122.728 141.589 120.897 136.992ZM143.335 124.785C137.379 115.353 127.914 113.914 121.715 116.269C120.631 116.68 120.14 117.937 120.72 118.941L124.102 123.524C124.504 124.215 125.298 124.552 126.078 124.402C129.386 123.762 133.45 125.042 136.127 129.088C138.252 132.302 138.248 137.333 134.875 140.566C134.137 141.276 134.211 142.496 134.725 143.383L136.884 147.107C137.739 148.578 139.649 148.718 140.953 147.63C147.063 142.528 147.512 131.4 143.335 124.785Z" fill="#85A392"/>
<path d="M276.772 124.127C276.45 124.127 276.123 124.043 275.824 123.87C273.535 122.538 269.405 119.936 267.466 117.521C266.92 116.839 266.934 115.844 267.508 115.152L273.577 107.837C274.217 107.061 275.352 106.926 276.16 107.524C278.066 108.939 281.537 111.555 283.383 113.19C284.125 113.849 284.242 114.942 283.654 115.736C281.533 118.605 279.416 121.707 278.346 123.295C277.977 123.832 277.379 124.127 276.772 124.127ZM275.03 108.084C274.754 108.084 274.478 108.201 274.291 108.43L268.223 115.746C267.933 116.096 267.919 116.591 268.195 116.932C270.11 119.32 274.497 122.015 276.296 123.062C276.73 123.314 277.286 123.188 277.566 122.772C278.645 121.174 280.766 118.063 282.897 115.176C283.191 114.774 283.135 114.218 282.757 113.886C280.939 112.275 277.492 109.677 275.595 108.271C275.427 108.145 275.226 108.084 275.03 108.084Z" fill="#150536"/>
<path d="M365.072 290.439C364.955 290.439 364.839 290.434 364.717 290.42C363.746 290.327 362.872 289.855 362.26 289.098L352.192 276.601C350.996 275.116 351.169 272.953 352.58 271.673L363.708 261.614C364.442 260.951 365.385 260.624 366.366 260.694C367.352 260.764 368.24 261.217 368.875 261.969L379.526 274.662C380.802 276.181 380.601 278.451 379.087 279.727L367.38 289.584C366.726 290.144 365.918 290.439 365.072 290.439ZM353.211 272.369C352.164 273.317 352.038 274.915 352.921 276.017L362.989 288.514C363.442 289.075 364.087 289.425 364.806 289.495C365.525 289.565 366.226 289.346 366.777 288.883L378.485 279.026C379.606 278.082 379.751 276.4 378.812 275.274L368.16 262.581C367.693 262.021 367.03 261.685 366.301 261.638C365.572 261.591 364.871 261.829 364.334 262.32L353.211 272.369Z" fill="#150536"/>
<path d="M310.077 268.524L309.348 267.94L314.595 261.358C314.903 260.97 314.796 260.564 314.59 260.311C314.384 260.059 314.006 259.872 313.562 260.096L307.634 263.147C306.858 263.544 305.98 263.353 305.438 262.675C304.896 261.998 304.915 261.096 305.475 260.433L310.75 254.205C311.077 253.818 310.969 253.402 310.764 253.145C310.554 252.888 310.175 252.692 309.727 252.93L294.446 260.708L294.021 259.877L309.297 252.098C310.063 251.692 310.951 251.879 311.493 252.556C312.039 253.238 312.025 254.14 311.465 254.808L306.19 261.035C305.863 261.418 305.966 261.834 306.172 262.091C306.377 262.348 306.756 262.544 307.204 262.315L313.128 259.265C313.889 258.872 314.763 259.055 315.305 259.713C315.847 260.372 315.851 261.269 315.319 261.937L310.077 268.524Z" fill="#150536"/>
<path d="M335.511 278.211L328.692 296.599L329.568 296.924L336.387 278.536L335.511 278.211Z" fill="#150536"/>
<path d="M346.208 282.205L345.327 282.515L353.192 304.862L354.073 304.552L346.208 282.205Z" fill="#150536"/>
<path d="M345.883 297.676L344.959 297.812L346.581 308.798L347.506 308.661L345.883 297.676Z" fill="#150536"/>
<path d="M335.37 293.44L333.69 302.242L334.608 302.417L336.288 293.615L335.37 293.44Z" fill="#150536"/>
<path d="M260.594 116.994L259.772 117.44L268.249 133.059L269.07 132.613L260.594 116.994Z" fill="#150536"/>
<path d="M260.647 125.294L259.749 125.552L262.366 134.658L263.264 134.4L260.647 125.294Z" fill="#150536"/>
<path d="M256.421 118.475L255.611 132.158L256.544 132.214L257.354 118.53L256.421 118.475Z" fill="#150536"/>
<path d="M231.728 123.781L230.826 123.538L233.227 114.559C233.377 113.994 233.886 113.643 234.47 113.704C235.049 113.765 235.475 114.218 235.507 114.797L235.774 120.174C235.783 120.324 235.886 120.371 235.951 120.385C236.016 120.399 236.129 120.403 236.199 120.268L239.665 113.428L240.497 113.849L237.035 120.688C236.792 121.165 236.283 121.408 235.759 121.296C235.236 121.183 234.872 120.754 234.844 120.221L234.578 114.844C234.568 114.676 234.447 114.638 234.377 114.634C234.307 114.624 234.18 114.638 234.138 114.797L231.728 123.781Z" fill="#150536"/>
<path d="M327.774 76.7641L327.626 77.6868L341.3 79.8663L341.447 78.9436L327.774 76.7641Z" fill="#150536"/>
<path d="M328.712 80.949L328.373 81.8193L341.21 86.833L341.55 85.9627L328.712 80.949Z" fill="#150536"/>
<path d="M328.893 84.5573L328.185 85.1667L337.263 95.7158L337.971 95.1063L328.893 84.5573Z" fill="#150536"/>
<path d="M314.982 335.03L314.931 335.025L288.218 331.97L288.325 331.04L315.01 334.091C315.655 334.082 316.005 333.638 316.122 333.227C316.239 332.811 316.159 332.241 315.589 331.905L284.85 317.395C283.892 316.825 283.532 315.755 283.934 314.764C284.336 313.774 285.345 313.255 286.382 313.508L310.764 318.931C311.464 319.1 311.927 318.689 312.114 318.282C312.296 317.885 312.315 317.282 311.773 316.862L291.348 306.766L291.764 305.93L312.296 316.086C313.258 316.792 313.324 317.894 312.964 318.675C312.604 319.455 311.721 320.118 310.558 319.842L286.177 314.419C285.443 314.241 284.981 314.685 284.803 315.119C284.625 315.549 284.649 316.189 285.289 316.572L316.029 331.083C316.907 331.606 317.281 332.535 317.024 333.479C316.757 334.423 315.958 335.03 314.982 335.03Z" fill="#150536"/>
<path d="M84.9199 246.88C84.8218 246.88 84.7237 246.875 84.6256 246.861C84.0417 246.777 83.5231 246.445 83.2008 245.95L80.7528 242.199C80.1408 241.265 80.3977 239.994 81.3274 239.373L84.5929 237.182C85.5273 236.555 86.798 236.803 87.4286 237.728L89.6944 241.045C90.2877 241.914 90.1289 243.082 89.33 243.764L86.2514 246.389C85.8777 246.712 85.4058 246.88 84.9199 246.88ZM85.7375 237.775C85.5226 237.775 85.3077 237.836 85.1162 237.962L81.8506 240.153C81.3461 240.494 81.206 241.18 81.5376 241.694L83.9856 245.446C84.1631 245.717 84.4434 245.894 84.7611 245.941C85.0835 245.988 85.4011 245.894 85.6441 245.684L88.7227 243.058C89.1572 242.685 89.2459 242.049 88.9189 241.578L86.6532 238.261C86.4476 237.943 86.0925 237.775 85.7375 237.775Z" fill="#150536"/>
<path d="M93.7763 247.235L88.6616 252.596L89.3376 253.241L94.4522 247.88L93.7763 247.235Z" fill="#150536"/>
<path d="M92.2183 252.149L90.855 254.904L91.6924 255.318L93.0557 252.563L92.2183 252.149Z" fill="#150536"/>
<path d="M95.9556 247.135L94.0488 256.233L94.9633 256.425L96.87 247.326L95.9556 247.135Z" fill="#150536"/>
<path d="M106.592 254.481C106.569 254.481 106.55 254.481 106.527 254.481C105.905 254.453 105.377 254.056 105.181 253.467L104.35 250.954L105.237 250.66L106.069 253.173C106.181 253.505 106.475 253.547 106.564 253.547C106.653 253.547 106.952 253.537 107.092 253.215L107.9 251.323C108.096 250.865 108.503 250.538 108.993 250.449C109.484 250.361 109.979 250.515 110.325 250.87L112.768 253.374C112.983 253.593 113.244 253.57 113.422 253.472C113.6 253.374 113.763 253.164 113.693 252.865L112.558 248.006L113.469 247.796L114.604 252.654C114.758 253.308 114.464 253.967 113.875 254.29C113.282 254.612 112.572 254.504 112.1 254.023L109.657 251.519C109.526 251.384 109.344 251.328 109.166 251.365C108.984 251.398 108.834 251.519 108.764 251.687L107.956 253.579C107.718 254.135 107.19 254.481 106.592 254.481Z" fill="#150536"/>
<path d="M46.369 217.026L39.6787 219.322L39.982 220.206L46.6723 217.91L46.369 217.026Z" fill="#150536"/>
<path d="M44.5178 220.004L40.9209 223L41.5189 223.718L45.1158 220.722L44.5178 220.004Z" fill="#150536"/>
<path d="M47.1838 220.185L44.3877 227.379L45.2586 227.717L48.0547 220.524L47.1838 220.185Z" fill="#150536"/>
<path d="M22.1227 199.224C22.0199 199.224 21.9125 199.215 21.8097 199.192L21.0015 199.014L21.2023 198.103L22.0106 198.281C22.1601 198.313 22.3142 198.281 22.4357 198.196C22.5618 198.108 22.6413 197.977 22.6599 197.823L22.744 197.169C22.8001 196.753 23.029 196.379 23.3747 196.141C23.7204 195.903 24.1549 195.828 24.5613 195.926L26.1684 196.323C26.3412 196.365 26.5187 196.323 26.6495 196.206C26.785 196.09 26.8504 195.921 26.8364 195.744L26.757 194.847C26.7149 194.37 26.8971 193.912 27.2569 193.599C27.6166 193.286 28.0931 193.165 28.5603 193.277L29.6114 193.525C29.7842 193.567 29.9571 193.52 30.0926 193.403C30.2234 193.286 30.2935 193.118 30.2748 192.941C30.2234 192.427 30.4383 191.936 30.8494 191.623C31.2605 191.31 31.7931 191.236 32.2742 191.422L33.4796 191.885L33.1432 192.759L31.9379 192.296C31.7604 192.226 31.5688 192.254 31.4147 192.371C31.2605 192.488 31.1858 192.665 31.2044 192.857C31.2512 193.338 31.069 193.791 30.7092 194.109C30.3495 194.426 29.8683 194.548 29.4012 194.436L28.35 194.188C28.1772 194.151 28.0043 194.193 27.8689 194.305C27.738 194.422 27.668 194.585 27.6866 194.763L27.7661 195.66C27.8081 196.136 27.6213 196.603 27.2569 196.912C26.8925 197.22 26.4019 197.342 25.9394 197.225L24.3324 196.828C24.1829 196.79 24.0287 196.818 23.8979 196.907C23.7671 196.996 23.6877 197.127 23.6643 197.285L23.5802 197.939C23.5242 198.346 23.3046 198.715 22.9636 198.953C22.7207 199.131 22.4263 199.224 22.1227 199.224Z" fill="#150536"/>
<path d="M327.105 46.8803C327.091 46.8803 327.081 46.8803 327.067 46.8803C326.591 46.8663 326.18 46.586 325.993 46.1515L325.236 44.3949C325.171 44.2454 325.04 44.2268 324.984 44.2268C324.984 44.2268 324.984 44.2268 324.979 44.2268C324.923 44.2268 324.787 44.2454 324.727 44.3996L323.881 46.5112L323.012 46.1655L323.858 44.0539C324.04 43.5961 324.474 43.3018 324.965 43.2924C324.97 43.2924 324.974 43.2924 324.979 43.2924C325.465 43.2924 325.899 43.5774 326.091 44.0212L326.848 45.7778C326.908 45.9226 327.039 45.9413 327.095 45.9459C327.147 45.9459 327.277 45.9366 327.348 45.7918L327.894 44.6986C328.076 44.3342 328.427 44.0866 328.828 44.0399C329.235 43.9885 329.632 44.1427 329.894 44.4557L330.795 45.5068C330.893 45.6189 331.015 45.6049 331.062 45.5956C331.108 45.5862 331.225 45.5488 331.267 45.404L331.814 43.5774C331.935 43.1756 332.248 42.8673 332.659 42.7552C333.066 42.6431 333.495 42.7505 333.799 43.0401L335.565 44.6939C335.668 44.792 335.789 44.7733 335.836 44.7547C335.883 44.7406 335.99 44.6939 336.023 44.5538L336.369 43.0588C336.467 42.643 336.761 42.316 337.167 42.1805C337.574 42.0451 338.008 42.1338 338.331 42.4095L339.597 43.4886C339.709 43.5821 339.826 43.554 339.872 43.5353C339.919 43.5167 340.026 43.4653 340.05 43.3204L340.288 41.8395C340.358 41.4004 340.666 41.036 341.087 40.8912C341.512 40.7463 341.975 40.8445 342.302 41.1481C342.423 41.2602 342.549 41.2182 342.601 41.1995C342.652 41.1761 342.764 41.1107 342.764 40.9472V39.8821H343.698V40.9472C343.698 41.4378 343.423 41.8582 342.974 42.0544C342.526 42.2506 342.026 42.1665 341.666 41.8348C341.559 41.7321 341.437 41.7601 341.391 41.7788C341.344 41.7928 341.232 41.8489 341.208 41.9937L340.97 43.4746C340.9 43.9091 340.61 44.2641 340.195 44.4183C339.779 44.5725 339.33 44.493 338.994 44.2034L337.728 43.1242C337.621 43.0355 337.508 43.0588 337.462 43.0728C337.42 43.0869 337.312 43.1383 337.28 43.2737L336.934 44.7687C336.836 45.1938 336.527 45.5255 336.107 45.6563C335.687 45.7824 335.247 45.6796 334.925 45.3807L333.159 43.7269C333.056 43.6335 332.944 43.6521 332.898 43.6615C332.851 43.6755 332.743 43.7175 332.706 43.8483L332.159 45.675C332.033 46.1001 331.683 46.4178 331.253 46.5112C330.819 46.6046 330.37 46.4505 330.085 46.1141L329.183 45.063C329.095 44.9602 328.987 44.9649 328.941 44.9695C328.899 44.9742 328.786 45.0023 328.726 45.119L328.179 46.2122C327.978 46.6233 327.567 46.8803 327.105 46.8803Z" fill="#150536"/>
<path d="M325.737 39.7781L325.267 40.5852L329.726 43.1859L330.196 42.3788L325.737 39.7781Z" fill="#150536"/>
<path d="M329.936 38.0597L329.482 38.8765L335.277 42.0956L335.731 41.2788L329.936 38.0597Z" fill="#150536"/>
<path d="M335.234 37.4857L334.833 38.3298L339.603 40.5924L340.004 39.7482L335.234 37.4857Z" fill="#150536"/>
<path d="M287.008 401.77L286.148 401.405L287.578 398.042C287.924 397.229 288.606 396.626 289.456 396.383C290.306 396.14 291.203 396.294 291.927 396.804L293.413 397.85C293.931 398.215 294.572 398.313 295.174 398.107C295.777 397.906 296.23 397.444 296.426 396.841L296.683 396.042C296.973 395.131 297.697 394.426 298.608 394.15C299.519 393.875 300.514 394.066 301.257 394.659L302.766 395.86C303.284 396.271 303.943 396.397 304.574 396.201C305.204 396.01 305.681 395.533 305.877 394.902L306.265 393.655C306.55 392.739 307.236 392.043 308.152 391.754C309.068 391.459 310.03 391.627 310.796 392.207L312.529 393.52C313.053 393.917 313.711 394.029 314.337 393.823C314.963 393.618 315.426 393.136 315.613 392.506L316.262 390.296C316.547 389.329 317.295 388.591 318.266 388.315C319.233 388.044 320.261 388.287 321.009 388.965L322.401 390.231C322.919 390.702 323.634 390.866 324.307 390.656C324.98 390.45 325.479 389.918 325.648 389.236C325.895 388.217 326.643 387.428 327.652 387.133C328.656 386.839 329.712 387.091 330.473 387.815L332.641 389.876L331.996 390.553L329.829 388.493C329.31 388.002 328.595 387.829 327.913 388.03C327.231 388.231 326.722 388.764 326.554 389.46C326.311 390.469 325.573 391.249 324.582 391.553C323.592 391.856 322.541 391.623 321.775 390.922L320.383 389.656C319.878 389.194 319.182 389.03 318.523 389.217C317.865 389.404 317.355 389.904 317.164 390.558L316.514 392.767C316.243 393.683 315.543 394.407 314.636 394.706C313.725 395.005 312.73 394.837 311.969 394.262L310.236 392.95C309.717 392.557 309.063 392.445 308.442 392.641C307.82 392.837 307.353 393.309 307.162 393.931L306.774 395.178C306.489 396.094 305.77 396.808 304.854 397.093C303.938 397.374 302.943 397.187 302.191 396.589L300.682 395.388C300.168 394.977 299.514 394.851 298.883 395.042C298.253 395.234 297.776 395.701 297.575 396.327L297.318 397.126C297.033 398.018 296.361 398.696 295.473 398.995C294.586 399.294 293.642 399.154 292.876 398.612L291.39 397.565C290.9 397.219 290.292 397.117 289.713 397.28C289.138 397.444 288.671 397.855 288.438 398.406L287.008 401.77Z" fill="#150536"/>
<path d="M256.478 378.622H255.544V374.142C255.544 373.525 255.226 372.974 254.698 372.661C254.171 372.348 253.531 372.338 252.993 372.633L251.017 373.721C250.186 374.179 249.2 374.165 248.387 373.679C247.569 373.198 247.084 372.343 247.084 371.395V369.853C247.084 369.269 246.803 368.746 246.317 368.419C245.832 368.092 245.238 368.036 244.701 368.265L242.164 369.325C241.342 369.671 240.408 369.582 239.67 369.087C238.927 368.592 238.483 367.765 238.483 366.877V366.368C238.483 365.784 238.207 365.265 237.722 364.938C237.236 364.611 236.647 364.551 236.11 364.775L233.68 365.77C232.858 366.106 231.929 366.013 231.195 365.518C230.457 365.022 230.018 364.2 230.018 363.313C230.018 362.724 229.738 362.201 229.247 361.878C228.757 361.551 228.163 361.5 227.626 361.729L225.739 362.528C225.01 362.836 224.192 362.803 223.492 362.444C222.791 362.084 222.286 361.439 222.113 360.668L221.87 359.603C221.754 359.099 221.427 358.678 220.969 358.449C220.506 358.216 219.974 358.202 219.502 358.412L216.148 359.884L215.774 359.029L219.128 357.557C219.857 357.239 220.684 357.258 221.394 357.618C222.104 357.978 222.613 358.627 222.791 359.402L223.034 360.468C223.146 360.967 223.473 361.383 223.926 361.617C224.379 361.85 224.912 361.869 225.384 361.673L227.271 360.874C228.093 360.524 229.027 360.612 229.775 361.108C230.518 361.603 230.962 362.43 230.962 363.322C230.962 363.906 231.237 364.424 231.723 364.751C232.209 365.078 232.793 365.135 233.335 364.915L235.764 363.92C236.586 363.584 237.516 363.677 238.249 364.172C238.988 364.667 239.427 365.49 239.427 366.377V366.886C239.427 367.47 239.707 367.994 240.193 368.321C240.679 368.648 241.272 368.704 241.809 368.475L244.346 367.414C245.168 367.073 246.102 367.162 246.841 367.653C247.583 368.148 248.023 368.975 248.023 369.862V371.404C248.023 372.021 248.34 372.572 248.868 372.885C249.396 373.198 250.036 373.207 250.573 372.913L252.549 371.824C253.381 371.367 254.367 371.381 255.18 371.866C255.997 372.348 256.483 373.203 256.483 374.151V378.622H256.478Z" fill="#150536"/>
<path d="M361.531 235.397C357.214 242.405 345.722 246.076 340.125 238.546C333.907 230.174 338.341 212.37 351.281 211.623C354.234 211.45 357.177 212.417 359.504 214.342C365.409 219.233 366.371 227.539 361.531 235.397Z" fill="#150536"/>
<path d="M346.773 226.119C345.184 231.029 343.362 236.457 341.078 233.673C339.658 231.94 338.793 227.773 339.807 223.811C340.606 220.691 342.839 217.696 345.058 216.126C346.207 215.313 347.371 215.127 348.3 215.622C350.674 216.878 348.553 220.611 346.773 226.119Z" fill="#44375E"/>
<path d="M257.058 89.748C254.661 92.3127 251.966 95.1204 250.859 92.1959C250.172 90.3786 250.494 87.1785 252.223 84.9875C253.582 83.259 256.021 82.2779 258.109 82.2452C259.193 82.2312 260.132 82.6423 260.739 83.4038C262.272 85.3426 259.744 86.8702 257.058 89.748Z" fill="#44375E"/>
<path d="M100.477 230.585C100.51 228.908 100.575 227.049 101.86 227.731C102.659 228.156 104.196 231.524 102.434 233.584C102.103 233.972 101.612 234.093 101.168 234.014C100.043 233.818 100.44 232.463 100.477 230.585Z" fill="#44375E"/>
<path d="M134.09 274.167C134.291 273.733 133.931 273.308 133.034 272.976C131.245 272.317 127.764 271.846 121.014 272.313C114.791 272.743 111.666 274.055 110.101 275.181C109.264 275.784 109.33 276.237 110.096 276.578C119.505 278.176 129.161 276.924 134.09 274.167Z" fill="#150536"/>
<path d="M297.627 234.159C296.847 230.679 294.703 219.985 294.679 219.878L295.595 219.696C295.618 219.803 297.758 230.483 298.538 233.954L297.627 234.159Z" fill="#150536"/>
<path d="M307.096 235.294C306.134 233.897 305.293 232.038 304.789 230.197C304.611 229.553 304.448 228.927 304.293 228.324C303.504 225.301 302.882 222.909 301.374 221.531L302.004 220.84C303.719 222.405 304.373 224.914 305.2 228.086C305.354 228.684 305.517 229.305 305.695 229.945C306.176 231.692 306.966 233.449 307.872 234.761L307.096 235.294Z" fill="#150536"/>
<path d="M311.53 235.509L310.595 235.481C310.619 234.747 310.548 233.79 310.478 232.776C310.408 231.734 310.324 230.557 310.324 229.417C310.324 227.338 310.838 225.311 311.698 223.984L312.483 224.493C311.716 225.675 311.259 227.511 311.259 229.417C311.259 230.52 311.333 231.636 311.408 232.711C311.483 233.748 311.553 234.729 311.53 235.509Z" fill="#150536"/>
<path d="M341.797 272.668C340.807 272.668 339.83 272.252 339.144 271.453L331.365 262.362L332.075 261.755L339.854 270.846C340.755 271.902 342.358 272.042 343.428 271.154L366.599 250.052C367.87 248.964 369.299 248.053 370.855 247.343L371.243 248.193C369.767 248.866 368.412 249.73 367.216 250.753L344.04 271.86C343.385 272.401 342.587 272.668 341.797 272.668Z" fill="#150536"/>
<path d="M343.339 313.307C339.345 313.307 335.136 311.583 331.501 306.976L322.55 297.068L323.242 296.442L332.216 306.374C338.784 314.694 347.31 313.045 352.613 309.116C356.854 305.972 362.759 300.945 370.164 294.171L370.795 294.863C363.367 301.655 357.434 306.706 353.169 309.868C350.468 311.863 346.993 313.307 343.339 313.307Z" fill="#150536"/>
<path d="M285.172 236.943C284.654 236.032 284.224 235.122 283.78 233.982L284.654 233.645C285.084 234.752 285.481 235.603 285.985 236.481L285.172 236.943Z" fill="#150536"/>
<path d="M290.675 235.308C289.919 233.893 288.498 230.959 287.489 227.231L288.391 226.988C289.372 230.627 290.759 233.486 291.498 234.864L290.675 235.308Z" fill="#150536"/>
<path d="M355.158 249.024C347.604 249.024 340.671 244.899 337.065 238.256L337.887 237.808C341.33 244.147 347.95 248.09 355.158 248.09V249.024Z" fill="#150536"/>
<path d="M228.509 108.434C227.766 108.434 226.855 108.033 225.888 107.257C224.823 106.407 223.174 105.075 221.824 103.992L222.412 103.263C223.762 104.351 225.407 105.678 226.472 106.528C227.467 107.327 228.434 107.682 228.878 107.411C229.28 107.168 229.373 106.341 229.144 105.136C228.869 103.697 228.939 102.543 229.359 101.698L230.195 102.114C229.971 102.567 229.766 103.426 230.06 104.959C230.382 106.64 230.149 107.734 229.359 108.21C229.112 108.36 228.822 108.434 228.509 108.434Z" fill="#150536"/>
<path d="M262.696 113.536L262.028 112.882L274.539 100.072C278.931 95.5735 286.05 95.3306 290.741 99.5164L290.119 100.213C285.803 96.3584 279.253 96.5826 275.212 100.722L262.696 113.536Z" fill="#150536"/>
<path d="M290.572 115.879L277.878 128.634L278.54 129.293L291.234 116.538L290.572 115.879Z" fill="#150536"/>
<path d="M89.6763 237.037L86.8265 232.818C85.8221 231.491 84.3319 230.627 82.6547 230.408C80.9776 230.193 79.3192 230.646 77.9877 231.688L77.4131 230.954C78.9454 229.754 80.8468 229.23 82.7762 229.483C84.7056 229.735 86.4108 230.725 87.588 232.276L90.4518 236.514L89.6763 237.037Z" fill="#150536"/>
<path d="M105.274 259.644L104.72 270.524L105.653 270.572L106.207 259.692L105.274 259.644Z" fill="#150536"/>
<path d="M133.392 246.304L132.486 246.532L137.053 264.653L137.959 264.425L133.392 246.304Z" fill="#150536"/>
</svg>
