<svg width="145" height="145" viewBox="0 0 145 145" fill="none" xmlns="http://www.w3.org/2000/svg">
<g clip-path="url(#clip0_476_435)">
<g filter="url(#filter0_dd_476_435)">
<g clip-path="url(#clip1_476_435)">
<path d="M1 58.4571C1 38.3453 1 28.2893 4.91403 20.6076C8.35692 13.8506 13.8506 8.35692 20.6076 4.91403C28.2893 1 38.3453 1 58.4572 1H87.1857C107.298 1 117.354 1 125.035 4.91403C131.792 8.35692 137.286 13.8506 140.729 20.6076C144.643 28.2893 144.643 38.3453 144.643 58.4572V87.1857C144.643 107.298 144.643 117.354 140.729 125.035C137.286 131.792 131.792 137.286 125.035 140.729C117.354 144.643 107.298 144.643 87.1857 144.643H58.4571C38.3453 144.643 28.2893 144.643 20.6076 140.729C13.8506 137.286 8.35692 131.792 4.91403 125.035C1 117.354 1 107.298 1 87.1857V58.4571Z" fill="white"/>
<path d="M1 58.4571C1 38.3453 1 28.2893 4.91403 20.6076C8.35692 13.8506 13.8506 8.35692 20.6076 4.91403C28.2893 1 38.3453 1 58.4572 1H87.1857C107.298 1 117.354 1 125.035 4.91403C131.792 8.35692 137.286 13.8506 140.729 20.6076C144.643 28.2893 144.643 38.3453 144.643 58.4572V87.1857C144.643 107.298 144.643 117.354 140.729 125.035C137.286 131.792 131.792 137.286 125.035 140.729C117.354 144.643 107.298 144.643 87.1857 144.643H58.4571C38.3453 144.643 28.2893 144.643 20.6076 140.729C13.8506 137.286 8.35692 131.792 4.91403 125.035C1 117.354 1 107.298 1 87.1857V58.4571Z" fill="url(#paint0_linear_476_435)"/>
<path fill-rule="evenodd" clip-rule="evenodd" d="M72.8208 10.1509C38.2094 10.1509 10.1514 38.209 10.1514 72.8203C10.1514 107.432 38.2094 135.49 72.8208 135.49C107.432 135.49 135.49 107.432 135.49 72.8203C135.49 38.209 107.432 10.1509 72.8208 10.1509ZM9.80273 72.8203C9.80273 38.0164 38.0169 9.80225 72.8208 9.80225C107.625 9.80225 135.839 38.0164 135.839 72.8203C135.839 107.624 107.625 135.838 72.8208 135.838C38.0169 135.838 9.80273 107.624 9.80273 72.8203Z" fill="#D0D5DD"/>
<path fill-rule="evenodd" clip-rule="evenodd" d="M72.8216 55.2149C63.0977 55.2149 55.2149 63.0977 55.2149 72.8216C55.2149 82.5455 63.0977 90.4283 72.8216 90.4283C82.5455 90.4283 90.4283 82.5455 90.4283 72.8216C90.4283 63.0977 82.5455 55.2149 72.8216 55.2149ZM54.8662 72.8216C54.8662 62.9051 62.9051 54.8662 72.8216 54.8662C82.738 54.8662 90.7769 62.9051 90.7769 72.8216C90.7769 82.738 82.738 90.7769 72.8216 90.7769C62.9051 90.7769 54.8662 82.738 54.8662 72.8216Z" fill="#D0D5DD"/>
<path fill-rule="evenodd" clip-rule="evenodd" d="M72.8233 60.7905C66.1802 60.7905 60.7949 66.1758 60.7949 72.8189C60.7949 79.462 66.1802 84.8472 72.8233 84.8472C79.4664 84.8472 84.8516 79.462 84.8516 72.8189C84.8516 66.1758 79.4664 60.7905 72.8233 60.7905ZM60.4463 72.8189C60.4463 65.9833 65.9877 60.4419 72.8233 60.4419C79.6589 60.4419 85.2003 65.9833 85.2003 72.8189C85.2003 79.6545 79.6589 85.1959 72.8233 85.1959C65.9877 85.1959 60.4463 79.6545 60.4463 72.8189Z" fill="#D0D5DD"/>
<path d="M72.6465 1H72.9951V144.643H72.6465V1Z" fill="#D0D5DD"/>
<path d="M144.643 72.646L144.643 72.9946L0.99971 72.9946L0.99971 72.646L144.643 72.646Z" fill="#D0D5DD"/>
<path d="M120.41 1H120.759V144.643H120.41V1Z" fill="#D0D5DD"/>
<path d="M48.7637 1H49.1123V144.643H48.7637V1Z" fill="#D0D5DD"/>
<path d="M96.5283 1H96.877V144.643H96.5283V1Z" fill="#D0D5DD"/>
<path d="M24.8818 1H25.2305V144.643H24.8818V1Z" fill="#D0D5DD"/>
<path d="M144.643 120.41L144.643 120.759L0.99971 120.759L0.99971 120.41L144.643 120.41Z" fill="#D0D5DD"/>
<path d="M144.643 48.7642L144.643 49.1128L0.99971 49.1128L0.99971 48.7642L144.643 48.7642Z" fill="#D0D5DD"/>
<path d="M144.643 96.5283L144.643 96.877L0.99971 96.877L0.99971 96.5283L144.643 96.5283Z" fill="#D0D5DD"/>
<path d="M144.643 24.8818L144.643 25.2305L0.99971 25.2305L0.99971 24.8818L144.643 24.8818Z" fill="#D0D5DD"/>
<path d="M52.8712 109.89C51.4939 112.216 48.4232 113.034 46.2051 111.441C39.579 106.684 34.394 100.22 31.2607 92.7331C27.4967 83.7389 26.9078 73.7793 29.5867 64.4229C32.2657 55.0665 38.0603 46.8449 46.058 41.053C54.0556 35.2611 63.8018 32.228 73.7616 32.4315C83.7214 32.6349 93.3288 36.0633 101.071 42.1767C108.813 48.2901 114.249 56.7411 116.524 66.1987C118.799 75.6563 117.783 85.5831 113.636 94.4157C110.184 101.768 104.726 108.014 97.9011 112.497C95.6165 113.998 92.5836 113.056 91.3074 110.675L76.9635 83.92C76.0543 82.224 76.9022 80.1208 77.7192 78.3807C78.2169 77.3208 78.3388 76.1296 78.0658 74.9947C77.7929 73.8598 77.1405 72.8456 76.2115 72.112C75.2824 71.3784 74.1295 70.967 72.9344 70.9426C71.7392 70.9182 70.5696 71.2822 69.6099 71.9772C68.6502 72.6722 67.9549 73.6588 67.6334 74.7816C67.3119 75.9044 67.3826 77.0995 67.8343 78.1788C68.5758 79.9508 69.3327 82.0867 68.3514 83.7441L52.8712 109.89Z" fill="url(#paint1_linear_476_435)"/>
</g>
<path d="M58.457 1.44922H87.1855C97.2489 1.44922 104.77 1.44911 110.735 1.93652C116.696 2.42351 121.064 3.39511 124.831 5.31445C131.504 8.7143 136.929 14.139 140.329 20.8115C142.248 24.5784 143.219 28.9471 143.706 34.9072C144.193 40.8729 144.194 48.3937 144.194 58.457V87.1855C144.194 97.2489 144.193 104.77 143.706 110.735C143.219 116.695 142.248 121.064 140.329 124.831C136.929 131.504 131.504 136.929 124.831 140.329C121.064 142.248 116.695 143.219 110.735 143.706C104.77 144.193 97.2489 144.194 87.1855 144.194H58.457C48.3937 144.194 40.8729 144.193 34.9072 143.706C28.9471 143.219 24.5784 142.248 20.8115 140.329C14.139 136.929 8.7143 131.504 5.31445 124.831C3.39512 121.064 2.42351 116.696 1.93652 110.735C1.44911 104.77 1.44922 97.2489 1.44922 87.1855V58.457C1.44922 48.3937 1.44911 40.8729 1.93652 34.9072C2.42352 28.947 3.39509 24.5785 5.31445 20.8115C8.71429 14.139 14.139 8.71429 20.8115 5.31445C24.5785 3.39509 28.947 2.42352 34.9072 1.93652C40.8729 1.44911 48.3937 1.44922 58.457 1.44922Z" stroke="#D0D5DD" stroke-width="0.897768"/>
</g>
</g>
<defs>
<filter id="filter0_dd_476_435" x="-12.4665" y="-7.97768" width="170.576" height="170.576" filterUnits="userSpaceOnUse" color-interpolation-filters="sRGB">
<feFlood flood-opacity="0" result="BackgroundImageFix"/>
<feColorMatrix in="SourceAlpha" type="matrix" values="0 0 0 0 0 0 0 0 0 0 0 0 0 0 0 0 0 0 127 0" result="hardAlpha"/>
<feOffset dy="4.48884"/>
<feGaussianBlur stdDeviation="4.48884"/>
<feColorMatrix type="matrix" values="0 0 0 0 0.0627451 0 0 0 0 0.0941176 0 0 0 0 0.156863 0 0 0 0.06 0"/>
<feBlend mode="normal" in2="BackgroundImageFix" result="effect1_dropShadow_476_435"/>
<feColorMatrix in="SourceAlpha" type="matrix" values="0 0 0 0 0 0 0 0 0 0 0 0 0 0 0 0 0 0 127 0" result="hardAlpha"/>
<feOffset dy="4.48884"/>
<feGaussianBlur stdDeviation="6.73326"/>
<feColorMatrix type="matrix" values="0 0 0 0 0.0627451 0 0 0 0 0.0941176 0 0 0 0 0.156863 0 0 0 0.1 0"/>
<feBlend mode="normal" in2="effect1_dropShadow_476_435" result="effect2_dropShadow_476_435"/>
<feBlend mode="normal" in="SourceGraphic" in2="effect2_dropShadow_476_435" result="shape"/>
</filter>
<linearGradient id="paint0_linear_476_435" x1="72.8214" y1="1" x2="72.8214" y2="144.643" gradientUnits="userSpaceOnUse">
<stop stop-color="white"/>
<stop offset="1" stop-color="#D0D5DD"/>
</linearGradient>
<linearGradient id="paint1_linear_476_435" x1="117.71" y1="32.4219" x2="37.3573" y2="121.703" gradientUnits="userSpaceOnUse">
<stop stop-color="#B39FFF"/>
<stop offset="1" stop-color="#6A1ED2"/>
</linearGradient>
<clipPath id="clip0_476_435">
<rect width="145" height="145" fill="white"/>
</clipPath>
<clipPath id="clip1_476_435">
<path d="M1 58.4571C1 38.3453 1 28.2893 4.91403 20.6076C8.35692 13.8506 13.8506 8.35692 20.6076 4.91403C28.2893 1 38.3453 1 58.4572 1H87.1857C107.298 1 117.354 1 125.035 4.91403C131.792 8.35692 137.286 13.8506 140.729 20.6076C144.643 28.2893 144.643 38.3453 144.643 58.4572V87.1857C144.643 107.298 144.643 117.354 140.729 125.035C137.286 131.792 131.792 137.286 125.035 140.729C117.354 144.643 107.298 144.643 87.1857 144.643H58.4571C38.3453 144.643 28.2893 144.643 20.6076 140.729C13.8506 137.286 8.35692 131.792 4.91403 125.035C1 117.354 1 107.298 1 87.1857V58.4571Z" fill="white"/>
</clipPath>
</defs>
</svg>
