<svg width="20" height="18" viewBox="0 0 20 18" fill="none" xmlns="http://www.w3.org/2000/svg">
<path d="M5.96521 16.9521C5.67733 17.4511 5.03551 17.6266 4.57189 17.2849C3.18694 16.2642 2.10317 14.8776 1.44827 13.2715C0.66153 11.342 0.538439 9.20547 1.09839 7.1983C1.65834 5.19112 2.86951 3.42739 4.54114 2.1849C6.21278 0.942398 8.2499 0.291731 10.3317 0.335374C12.4134 0.379016 14.4215 1.11449 16.0397 2.42595C17.6579 3.73742 18.7942 5.55036 19.2697 7.57924C19.7452 9.60812 19.5328 11.7377 18.666 13.6325C17.9445 15.2097 16.8036 16.5497 15.3772 17.5114C14.8997 17.8333 14.2658 17.6312 13.999 17.1205L11.0009 11.3809C10.8109 11.0171 10.9881 10.5659 11.1589 10.1926C11.2629 9.9652 11.2884 9.70966 11.2313 9.46619C11.1743 9.22273 11.0379 9.00518 10.8437 8.8478C10.6495 8.69042 10.4086 8.60217 10.1587 8.59693C9.90894 8.59169 9.66448 8.66977 9.46389 8.81887C9.26329 8.96797 9.11795 9.17962 9.05075 9.42048C8.98356 9.66134 8.99833 9.91773 9.09274 10.1493C9.24774 10.5294 9.40595 10.9876 9.20084 11.3432L5.96521 16.9521Z" fill="#6318FF"/>
</svg>
